<svg width="1280" height="22" viewBox="0 0 1280 22" fill="none" xmlns="http://www.w3.org/2000/svg">
<path d="M1152 10.8453C1173.33 -3.61511 1194.67 -3.61511 1216 10.8453C1237.33 25.3056 1258.67 25.3056 1280 10.8453V21.9996H0V10.8453C21.3333 -3.61511 42.6667 -3.61511 64 10.8453C85.3332 25.3056 106.667 25.3056 128 10.8453C149.333 -3.61511 170.667 -3.61511 192 10.8453C213.333 25.3056 234.667 25.3056 256 10.8453C277.333 -3.61511 298.667 -3.61511 320 10.8453C341.333 25.3056 362.667 25.3056 384 10.8453C405.333 -3.61511 426.667 -3.61511 448 10.8453C469.333 25.3056 490.667 25.3056 512 10.8453C533.333 -3.61511 554.667 -3.61511 576 10.8453C597.333 25.3056 618.667 25.3056 640 10.8453C661.333 -3.61511 682.667 -3.61511 704 10.8453C725.333 25.3056 746.667 25.3056 768 10.8453C789.333 -3.61511 810.667 -3.61511 832 10.8453C853.333 25.3056 874.667 25.3056 896 10.8453C917.333 -3.61511 938.667 -3.61511 960 10.8453C981.333 25.3056 1002.67 25.3056 1024 10.8453C1045.33 -3.61511 1066.67 -3.61511 1088 10.8453C1109.33 25.3056 1130.67 25.3056 1152 10.8453Z" fill="#00896C"/>
</svg>
