<svg width="1280" height="285" viewBox="0 0 1280 285" fill="none" xmlns="http://www.w3.org/2000/svg">
<path d="M1248 250L1248 275" stroke="#096148"/>
<path d="M1280 285C826.582 147.666 453.5 147.667 0 285H1280Z" fill="#F3F3F3"/>
<circle cx="1245.5" cy="231.5" r="8.5" fill="#005CAF"/>
<circle cx="1253.5" cy="248.5" r="8.5" fill="#005CAF"/>
<circle cx="1241.5" cy="250.5" r="8.5" fill="#005CAF"/>
<ellipse cx="8.89555" cy="4.44583" rx="8.89555" ry="4.44583" transform="matrix(0.806226 0.591608 -0.482921 0.875664 1237.29 263.688)" fill="#00896C"/>
<ellipse cx="9.34231" cy="3.1681" rx="9.34231" ry="3.1681" transform="matrix(-0.553998 0.832518 -0.748695 -0.662915 1260.1 265.582)" fill="#00896C"/>
<circle cx="1236.5" cy="241.5" r="8.5" fill="#005CAF"/>
<circle cx="1256.5" cy="239.5" r="8.5" fill="#005CAF"/>
<circle cx="1246.5" cy="242.5" r="5.5" fill="white"/>
<path d="M1103 228L1103 244" stroke="#096148"/>
<path d="M53.1848 189.957H77.4661V272C77.4661 277.523 72.989 282 67.4661 282H63.1848C57.662 282 53.1848 277.523 53.1848 272V189.957Z" fill="#EDDFC3"/>
<ellipse cx="54.3143" cy="62.0565" rx="50.2567" ry="55.0565" fill="#096148"/>
<ellipse cx="89.889" cy="80.1263" rx="50.2567" ry="55.0565" fill="#096148"/>
<ellipse cx="90.1715" cy="150.147" rx="45.4569" ry="55.0565" fill="#096148"/>
<ellipse cx="23.5389" cy="172.17" rx="45.4569" ry="55.0565" fill="#096148"/>
<ellipse cx="23.2567" cy="101.866" rx="50.2567" ry="52.5154" fill="#096148"/>
<path d="M137.737 206.795H150.981V250.378C150.981 254.035 148.017 257 144.359 257C140.702 257 137.737 254.035 137.737 250.378V206.795Z" fill="#EDDFC3"/>
<ellipse cx="138.353" cy="137.031" rx="27.4127" ry="30.0308" fill="#00896C"/>
<ellipse cx="157.758" cy="146.887" rx="27.4127" ry="30.0308" fill="#00896C"/>
<ellipse cx="157.912" cy="185.08" rx="24.7947" ry="30.0308" fill="#00896C"/>
<ellipse cx="121.567" cy="197.092" rx="24.7947" ry="30.0308" fill="#00896C"/>
<ellipse cx="121.413" cy="158.745" rx="27.4127" ry="28.6448" fill="#00896C"/>
<path d="M1185.18 182.957H1209.47V265C1209.47 270.523 1204.99 275 1199.47 275H1195.18C1189.66 275 1185.18 270.523 1185.18 265V182.957Z" fill="#EDDFC3"/>
<ellipse cx="1186.31" cy="55.0565" rx="50.2567" ry="55.0565" fill="#096148"/>
<ellipse cx="1221.89" cy="73.1263" rx="50.2567" ry="55.0565" fill="#096148"/>
<ellipse cx="1222.17" cy="143.147" rx="45.4569" ry="55.0565" fill="#096148"/>
<ellipse cx="1155.54" cy="165.17" rx="45.4569" ry="55.0565" fill="#096148"/>
<ellipse cx="1155.26" cy="94.8665" rx="50.2567" ry="52.5154" fill="#096148"/>
<path d="M1268 196H1281V277.5C1281 281.09 1278.09 284 1274.5 284C1270.91 284 1268 281.09 1268 277.5V196Z" fill="#EDDFC3"/>
<ellipse cx="1270.35" cy="127.031" rx="27.4127" ry="30.0308" fill="#00896C"/>
<ellipse cx="1289.76" cy="136.887" rx="27.4127" ry="30.0308" fill="#00896C"/>
<ellipse cx="1289.91" cy="175.08" rx="24.7947" ry="30.0308" fill="#00896C"/>
<ellipse cx="1253.57" cy="187.092" rx="24.7947" ry="30.0308" fill="#00896C"/>
<ellipse cx="1253.41" cy="148.745" rx="27.4127" ry="28.6448" fill="#00896C"/>
<circle cx="1101.27" cy="215.475" r="5.47458" fill="#FAD689"/>
<circle cx="1106.42" cy="226.424" r="5.47458" fill="#FAD689"/>
<circle cx="1098.7" cy="227.712" r="5.47458" fill="#FAD689"/>
<ellipse cx="5.72935" cy="2.86342" rx="5.72935" ry="2.86342" transform="matrix(0.806226 0.591608 -0.482921 0.875664 1095.99 236.206)" fill="#00896C"/>
<ellipse cx="6.01709" cy="2.04047" rx="6.01709" ry="2.04047" transform="matrix(-0.553998 0.832518 -0.748695 -0.662915 1110.67 237.426)" fill="#00896C"/>
<circle cx="1095.47" cy="221.915" r="5.47458" fill="#FAD689"/>
<circle cx="1108.36" cy="220.627" r="5.47458" fill="#FAD689"/>
<circle cx="1101.92" cy="222.559" r="3.54238" fill="white"/>
<path d="M25 263L25 279" stroke="#096148"/>
<circle cx="23.2712" cy="250.475" r="5.47458" fill="#FAD689"/>
<circle cx="28.4238" cy="261.424" r="5.47458" fill="#FAD689"/>
<circle cx="20.695" cy="262.712" r="5.47458" fill="#FAD689"/>
<ellipse cx="5.72935" cy="2.86342" rx="5.72935" ry="2.86342" transform="matrix(0.806226 0.591608 -0.482921 0.875664 17.9858 271.206)" fill="#00896C"/>
<ellipse cx="6.01709" cy="2.04047" rx="6.01709" ry="2.04047" transform="matrix(-0.553998 0.832518 -0.748695 -0.662915 32.6716 272.426)" fill="#00896C"/>
<circle cx="17.4746" cy="256.915" r="5.47458" fill="#FAD689"/>
<circle cx="30.3559" cy="255.627" r="5.47458" fill="#FAD689"/>
<circle cx="23.9152" cy="257.559" r="3.54238" fill="white"/>
</svg>
