<svg width="1931" height="1914" viewBox="0 0 1931 1914" fill="none" xmlns="http://www.w3.org/2000/svg">
<path d="M715.399 84.1891L701.909 47.2515L696.259 29.6804L716.252 24.0742L720.561 42.0211L728.243 80.5873L715.399 84.1891ZM730.66 114.124C727.235 115.085 724.071 114.687 721.169 112.931C718.321 111.079 716.416 108.44 715.456 105.015C714.474 101.515 714.74 98.3087 716.252 95.3949C717.818 92.3857 720.313 90.4009 723.738 89.4405C727.238 88.4591 730.402 88.8571 733.229 90.6343C736.11 92.3162 738.041 94.907 739.023 98.4067C739.983 101.832 739.691 105.086 738.146 108.17C736.655 111.158 734.16 113.143 730.66 114.124Z" fill="#00896C"/>
<path d="M657.314 138.517C652.108 140.492 646.711 141.092 641.124 140.317C635.509 139.469 630.336 137.172 625.607 133.424C620.949 129.649 617.331 124.364 614.753 117.567C612.174 110.77 611.39 104.451 612.4 98.6091C613.454 92.6674 615.815 87.5535 619.483 83.2674C623.123 78.909 627.546 75.7423 632.752 73.7674C636.656 72.2863 640.691 71.583 644.854 71.6577C649.018 71.7324 653.045 72.6448 656.935 74.395C660.797 76.0729 664.314 78.5849 667.485 81.9308C670.657 85.2768 673.216 89.5166 675.164 94.6503C677.742 101.447 678.504 107.816 677.45 113.758C676.467 119.672 674.156 124.808 670.516 129.167C666.921 133.425 662.52 136.542 657.314 138.517ZM651.39 122.899C653.776 121.994 655.467 120.567 656.465 118.617C657.534 116.639 657.951 114.248 657.714 111.443C657.477 108.638 656.714 105.537 655.424 102.138C654.135 98.74 652.663 95.9487 651.007 93.7646C649.324 91.5082 647.427 89.9948 645.315 89.2244C643.275 88.4266 641.063 88.4803 638.676 89.3855C636.29 90.2906 634.562 91.7318 633.493 93.709C632.496 95.6589 632.079 98.05 632.244 100.882C632.454 103.615 633.203 106.681 634.492 110.079C635.781 113.477 637.267 116.305 638.95 118.561C640.706 120.79 642.603 122.303 644.643 123.101C646.755 123.872 649.004 123.804 651.39 122.899Z" fill="#00896C"/>
<path d="M594.193 165.385C587.017 168.841 579.781 170.48 572.485 170.303C565.26 170.092 558.479 167.864 552.143 163.619C545.877 159.341 540.63 152.812 536.402 144.033C533.282 137.554 531.524 131.319 531.128 125.329C530.699 119.27 531.388 113.66 533.194 108.498C535.07 103.303 537.871 98.6925 541.597 94.6664C545.323 90.6403 549.799 87.369 555.025 84.8525C560.738 82.101 566.153 80.7806 571.271 80.8912C576.355 80.9321 580.858 81.6388 584.781 83.0114L580.694 99.6569C577.904 98.8545 575.126 98.4328 572.36 98.3917C569.629 98.2474 566.627 98.9638 563.352 100.541C559.52 102.386 556.576 105.006 554.519 108.4C552.499 111.69 551.49 115.566 551.493 120.028C551.532 124.387 552.776 129.109 555.226 134.196C557.709 139.352 560.606 143.407 563.917 146.361C567.264 149.213 570.976 150.859 575.05 151.3C579.161 151.638 583.621 150.649 588.428 148.334C589.822 147.663 591.097 146.834 592.253 145.848C593.409 144.862 594.254 143.855 594.788 142.825L588.748 130.283L576.416 136.222L569.067 120.964L598.017 107.022L615.532 143.392C614.057 147.279 611.472 151.27 607.78 155.366C604.157 159.428 599.628 162.768 594.193 165.385Z" fill="#00896C"/>
<path d="M533.397 226.796C529.068 229.35 524.777 231.208 520.524 232.371C516.377 233.56 512.61 233.718 509.221 232.844C505.871 232.037 503.194 229.935 501.19 226.538C499.815 224.207 499.223 221.683 499.416 218.965C499.647 216.315 500.702 213.537 502.581 210.633L502.286 210.134C500.231 209.999 498.252 209.461 496.349 208.518C494.407 207.509 492.729 205.806 491.314 203.408C490.135 201.41 489.595 199.125 489.693 196.552C489.753 193.914 490.341 191.411 491.46 189.045L491.224 188.646C488.334 188.465 485.343 187.581 482.251 185.993C479.187 184.3 476.672 181.788 474.707 178.457C471.996 173.862 470.868 169.364 471.325 164.964C471.782 160.564 473.376 156.57 476.109 152.983C478.868 149.29 482.279 146.245 486.342 143.847C488.007 142.865 489.684 142.055 491.373 141.418C493.023 140.714 494.618 140.221 496.159 139.941L517.039 127.621L524.643 140.509L515.951 145.637C516.823 146.201 517.765 147.037 518.778 148.145C519.818 149.147 520.731 150.315 521.517 151.647C524.111 156.043 525.22 160.282 524.845 164.364C524.498 168.34 522.985 172.016 520.308 175.392C517.697 178.728 514.293 181.634 510.097 184.11C509.165 184.66 508.093 185.202 506.882 185.737C505.632 186.206 504.276 186.646 502.814 187.06C502.568 188.013 502.436 188.854 502.418 189.584C502.466 190.274 502.784 191.118 503.374 192.117C504.12 193.383 505.323 193.975 506.981 193.895C508.601 193.747 510.942 192.77 514.006 190.962L522.997 185.657C529.991 181.531 536.073 179.513 541.245 179.605C546.445 179.59 550.557 182.147 553.583 187.275C555.941 191.272 556.692 195.588 555.835 200.223C555.045 204.82 552.73 209.418 548.89 214.018C545.155 218.646 539.991 222.905 533.397 226.796ZM503.79 173.42C505.189 172.594 506.224 171.534 506.897 170.24C507.636 168.906 507.913 167.396 507.726 165.71C507.606 163.985 506.957 162.123 505.778 160.125C504.638 158.194 503.362 156.792 501.95 155.919C500.603 155.007 499.168 154.552 497.643 154.554C496.184 154.517 494.755 154.911 493.357 155.736C492.024 156.522 490.989 157.582 490.249 158.916C489.577 160.211 489.281 161.688 489.361 163.346C489.509 164.965 490.152 166.741 491.292 168.672C492.471 170.67 493.753 172.159 495.138 173.137C496.59 174.076 498.045 174.564 499.504 174.602C501.029 174.6 502.458 174.206 503.79 173.42ZM529.652 214.056C532.116 212.602 534.07 211.044 535.515 209.384C537.066 207.751 538.099 206.154 538.614 204.592C539.13 203.031 539.034 201.651 538.326 200.452C537.305 198.72 535.904 198.021 534.124 198.352C532.45 198.711 530.281 199.677 527.617 201.249L522.222 204.432C520.158 205.65 518.487 206.546 517.209 207.12C515.971 207.761 514.807 208.223 513.717 208.507C513.323 209.817 513.129 211.009 513.134 212.084C513.245 213.185 513.576 214.202 514.126 215.135C515.305 217.133 517.288 217.983 520.076 217.685C522.863 217.388 526.055 216.178 529.652 214.056Z" fill="#00896C"/>
<path d="M478.872 261.976C474.75 264.853 470.613 267.033 466.461 268.516C462.418 270.019 458.673 270.464 455.227 269.851C451.826 269.302 448.996 267.41 446.739 264.176C445.19 261.957 444.407 259.485 444.392 256.761C444.421 254.1 445.261 251.25 446.912 248.211L446.58 247.736C444.521 247.758 442.507 247.372 440.537 246.578C438.524 245.72 436.72 244.149 435.127 241.867C433.799 239.964 433.086 237.727 432.988 235.155C432.846 232.519 433.242 229.979 434.176 227.535L433.911 227.154C431.015 227.195 427.966 226.541 424.762 225.194C421.577 223.739 418.878 221.426 416.665 218.256C413.61 213.88 412.143 209.482 412.263 205.06C412.383 200.638 413.668 196.534 416.119 192.749C418.588 188.856 421.757 185.559 425.625 182.859C427.21 181.752 428.821 180.817 430.456 180.052C432.048 179.224 433.601 178.612 435.115 178.215L454.995 164.338L463.56 176.608L455.285 182.385C456.197 182.88 457.2 183.642 458.294 184.669C459.408 185.589 460.408 186.684 461.293 187.952C464.215 192.137 465.644 196.279 465.582 200.378C465.538 204.369 464.311 208.15 461.899 211.72C459.55 215.246 456.378 218.403 452.383 221.191C451.495 221.811 450.468 222.434 449.302 223.06C448.091 223.622 446.772 224.165 445.346 224.689C445.174 225.658 445.106 226.507 445.143 227.235C445.244 227.92 445.626 228.738 446.29 229.689C447.131 230.894 448.375 231.393 450.023 231.186C451.626 230.915 453.886 229.762 456.803 227.726L465.364 221.75C472.022 217.102 477.933 214.627 483.097 214.323C488.279 213.912 492.575 216.147 495.983 221.03C498.639 224.835 499.717 229.081 499.217 233.769C498.78 238.412 496.822 243.174 493.344 248.054C489.974 252.953 485.149 257.593 478.872 261.976ZM445.279 211.014C446.61 210.084 447.562 208.948 448.134 207.606C448.769 206.219 448.93 204.693 448.615 203.026C448.364 201.315 447.574 199.509 446.246 197.606C444.963 195.767 443.583 194.467 442.108 193.705C440.697 192.898 439.23 192.554 437.71 192.672C436.252 192.747 434.858 193.248 433.526 194.178C432.258 195.063 431.306 196.199 430.671 197.586C430.099 198.928 429.916 200.423 430.123 202.071C430.394 203.674 431.171 205.395 432.454 207.234C433.782 209.136 435.174 210.522 436.63 211.392C438.15 212.218 439.638 212.593 441.095 212.519C442.616 212.401 444.01 211.899 445.279 211.014ZM474.165 249.558C476.511 247.921 478.341 246.219 479.655 244.453C481.076 242.706 481.985 241.035 482.379 239.439C482.774 237.843 482.573 236.474 481.777 235.333C480.626 233.684 479.176 233.093 477.426 233.559C475.785 234.045 473.696 235.173 471.159 236.944L466.023 240.529C464.057 241.901 462.459 242.922 461.23 243.592C460.044 244.326 458.919 244.875 457.854 245.242C457.561 246.578 457.458 247.781 457.545 248.852C457.74 249.942 458.147 250.931 458.767 251.819C460.095 253.721 462.137 254.418 464.894 253.908C467.65 253.399 470.741 251.949 474.165 249.558Z" fill="#00896C"/>
<path d="M404.438 286.236C398.823 290.853 393.238 292.341 387.684 290.7C382.081 288.999 376.677 284.983 371.471 278.651L345.539 247.111L361.488 233.998L385.8 263.567C388.648 267.031 391.091 269.028 393.127 269.556C395.114 270.025 397.123 269.424 399.154 267.754C400.946 266.281 402.15 264.64 402.766 262.832C403.393 260.916 403.602 258.491 403.393 255.559L375.915 222.137L391.864 209.023L433.782 260.008L420.79 270.69L413.879 264.658L413.52 264.953C413.492 269.181 412.838 273.073 411.557 276.629C410.276 280.185 407.903 283.388 404.438 286.236Z" fill="#00896C"/>
<path d="M343.437 339.474L283.645 277.077L298.637 262.711L346.39 312.545L370.679 289.27L382.717 301.833L343.437 339.474Z" fill="#00896C"/>
<path d="M251.569 395.932L219.011 373.879L204.146 362.939L217.075 346.691L231.074 358.72L259.876 385.494L251.569 395.932ZM281.465 411.271C279.25 414.055 276.452 415.584 273.071 415.858C269.677 416.024 266.589 415 263.805 412.785C260.961 410.521 259.299 407.766 258.82 404.518C258.328 401.162 259.19 398.092 261.405 395.309C263.668 392.465 266.466 390.936 269.799 390.722C273.119 390.399 276.201 391.369 279.046 393.632C281.829 395.847 283.497 398.657 284.049 402.061C284.589 405.357 283.728 408.427 281.465 411.271Z" fill="#00896C"/>
<path d="M236.231 473.955C233.16 478.599 229.131 482.239 224.143 484.875C219.091 487.468 213.551 488.626 207.523 488.348C201.538 488.006 195.513 485.831 189.449 481.822C183.386 477.812 179.057 473.142 176.463 467.811C173.847 462.373 172.775 456.844 173.247 451.222C173.654 445.558 175.393 440.404 178.464 435.76C180.767 432.276 183.63 429.348 187.053 426.976C190.476 424.604 194.277 422.991 198.456 422.139C202.571 421.244 206.893 421.227 211.422 422.09C215.951 422.952 220.505 424.897 225.085 427.925C231.149 431.935 235.489 436.658 238.105 442.096C240.763 447.47 241.889 452.989 241.481 458.653C241.052 464.209 239.302 469.31 236.231 473.955ZM222.297 464.742C223.705 462.613 224.244 460.466 223.914 458.301C223.626 456.071 222.567 453.888 220.736 451.75C218.905 449.612 216.473 447.541 213.441 445.536C210.409 443.531 207.583 442.126 204.964 441.321C202.279 440.474 199.855 440.354 197.691 440.963C195.57 441.507 193.805 442.844 192.398 444.972C190.99 447.101 190.43 449.28 190.718 451.51C191.048 453.675 192.107 455.859 193.895 458.061C195.662 460.156 198.061 462.206 201.093 464.211C204.125 466.216 206.983 467.642 209.668 468.49C212.394 469.273 214.819 469.392 216.94 468.848C219.104 468.239 220.89 466.87 222.297 464.742Z" fill="#00896C"/>
<path d="M200.689 532.635C196.88 539.631 191.963 545.186 185.937 549.302C179.948 553.35 173.142 555.501 165.52 555.754C157.935 555.94 149.863 553.704 141.305 549.045C134.988 545.607 129.92 541.572 126.102 536.94C122.216 532.271 119.499 527.315 117.951 522.07C116.441 516.757 116.023 511.379 116.697 505.935C117.371 500.49 119.094 495.221 121.867 490.127C124.899 484.557 128.524 480.323 132.743 477.425C136.894 474.49 140.963 472.434 144.949 471.258L151.351 487.157C148.618 488.135 146.116 489.414 143.846 490.996C141.545 492.474 139.526 494.808 137.788 498.001C135.755 501.736 134.894 505.582 135.206 509.538C135.487 513.389 136.932 517.125 139.54 520.746C142.116 524.261 145.884 527.369 150.842 530.068C155.869 532.803 160.588 534.404 165.002 534.869C169.384 535.229 173.358 534.399 176.924 532.378C180.458 530.251 183.501 526.845 186.052 522.158C186.791 520.8 187.343 519.383 187.705 517.907C188.068 516.432 188.166 515.12 187.998 513.973L175.772 507.318L169.228 519.34L154.353 511.243L169.715 483.021L205.171 502.32C206.242 506.337 206.474 511.086 205.868 516.568C205.299 521.981 203.572 527.337 200.689 532.635Z" fill="#00896C"/>
<path d="M187.197 617.984C185.175 622.586 182.777 626.6 180.004 630.028C177.332 633.415 174.366 635.744 171.105 637.014C167.914 638.315 164.514 638.171 160.903 636.585C158.425 635.496 156.471 633.792 155.04 631.474C153.68 629.186 152.914 626.316 152.743 622.862L152.212 622.628C150.466 623.719 148.545 624.438 146.45 624.784C144.284 625.099 141.927 624.697 139.378 623.577C137.254 622.643 135.481 621.104 134.059 618.958C132.566 616.781 131.582 614.406 131.108 611.833L130.683 611.646C128.232 613.187 125.288 614.216 121.851 614.733C118.374 615.148 114.866 614.578 111.326 613.022C106.441 610.875 102.899 607.882 100.7 604.044C98.5013 600.205 97.4632 596.032 97.5859 591.525C97.6689 586.915 98.6594 582.451 100.557 578.133C101.335 576.363 102.224 574.726 103.222 573.222C104.15 571.687 105.158 570.356 106.245 569.228L115.999 547.033L129.699 553.054L125.638 562.293C126.674 562.242 127.927 562.37 129.397 562.678C130.827 562.884 132.25 563.298 133.666 563.921C138.338 565.974 141.715 568.767 143.794 572.3C145.834 575.731 146.753 579.598 146.551 583.902C146.38 588.135 145.315 592.481 143.355 596.942C142.919 597.933 142.366 598.999 141.695 600.14C140.954 601.25 140.111 602.4 139.166 603.59C139.523 604.507 139.907 605.267 140.317 605.87C140.759 606.402 141.511 606.902 142.573 607.368C143.918 607.96 145.241 607.738 146.54 606.704C147.768 605.639 149.098 603.478 150.529 600.221L154.73 590.664C157.997 583.23 161.756 578.04 166.008 575.094C170.219 572.045 175.051 571.719 180.502 574.115C184.75 575.982 187.88 579.047 189.892 583.31C191.936 587.502 192.742 592.587 192.311 598.564C191.982 604.502 190.278 610.975 187.197 617.984ZM131.992 591.948C132.645 590.461 132.867 588.996 132.656 587.552C132.477 586.037 131.82 584.65 130.684 583.39C129.579 582.06 127.965 580.928 125.841 579.995C123.788 579.092 121.933 578.7 120.277 578.816C118.652 578.862 117.221 579.332 115.984 580.224C114.778 581.046 113.848 582.2 113.195 583.687C112.572 585.102 112.351 586.568 112.53 588.083C112.74 589.526 113.362 590.898 114.396 592.197C115.461 593.426 117.02 594.491 119.073 595.393C121.197 596.327 123.107 596.786 124.803 596.771C126.53 596.685 127.997 596.232 129.203 595.41C130.44 594.518 131.369 593.364 131.992 591.948ZM176.716 609.83C177.868 607.21 178.545 604.805 178.748 602.613C179.053 600.382 178.958 598.482 178.465 596.914C177.972 595.345 177.088 594.281 175.813 593.721C173.973 592.912 172.427 593.162 171.176 594.471C170.027 595.74 168.83 597.79 167.586 600.622L165.065 606.357C164.101 608.551 163.268 610.255 162.566 611.467C161.935 612.71 161.26 613.765 160.541 614.632C160.987 615.925 161.525 617.007 162.157 617.876C162.89 618.705 163.753 619.338 164.744 619.773C166.868 620.707 168.974 620.238 171.063 618.369C173.152 616.499 175.036 613.653 176.716 609.83Z" fill="#00896C"/>
<path d="M163.508 678.379C161.845 683.123 159.763 687.31 157.261 690.94C154.858 694.523 152.08 697.072 148.926 698.589C145.845 700.132 142.443 700.25 138.721 698.946C136.167 698.051 134.088 696.502 132.483 694.301C130.951 692.125 129.967 689.322 129.53 685.891L128.983 685.699C127.326 686.921 125.466 687.785 123.404 688.291C121.268 688.772 118.887 688.552 116.26 687.631C114.07 686.864 112.184 685.465 110.601 683.435C108.945 681.38 107.782 679.087 107.112 676.558L106.674 676.404C104.348 678.129 101.492 679.382 98.1047 680.161C94.6701 680.842 91.1283 680.543 87.4793 679.264C82.4437 677.499 78.6822 674.787 76.1949 671.129C73.7075 667.471 72.3517 663.39 72.1275 658.887C71.8559 654.284 72.5003 649.757 74.0607 645.306C74.7003 643.481 75.4601 641.781 76.3404 640.205C77.1477 638.603 78.0498 637.198 79.0467 635.991L87.0662 613.111L101.188 618.061L97.8496 627.585C98.8788 627.454 100.138 627.486 101.627 627.68C103.068 627.775 104.519 628.079 105.979 628.591C110.795 630.279 114.376 632.804 116.721 636.167C119.019 639.43 120.233 643.216 120.362 647.522C120.517 651.756 119.789 656.171 118.177 660.769C117.819 661.791 117.35 662.896 116.769 664.086C116.115 665.25 115.363 666.461 114.512 667.72C114.938 668.607 115.379 669.335 115.835 669.905C116.317 670.401 117.105 670.841 118.2 671.225C119.586 671.711 120.888 671.389 122.103 670.258C123.246 669.102 124.406 666.845 125.583 663.488L129.036 653.635C131.722 645.973 135.071 640.509 139.084 637.244C143.049 633.881 147.841 633.184 153.46 635.154C157.839 636.689 161.195 639.504 163.529 643.6C165.889 647.623 167.084 652.631 167.114 658.624C167.242 664.569 166.04 671.154 163.508 678.379ZM106.464 656.663C107.001 655.131 107.109 653.653 106.789 652.229C106.494 650.733 105.732 649.4 104.502 648.232C103.299 646.991 101.602 645.986 99.4126 645.219C97.2962 644.477 95.4168 644.228 93.7744 644.472C92.1575 644.642 90.7668 645.22 89.6021 646.205C88.463 647.117 87.6249 648.339 87.0877 649.872C86.5761 651.331 86.4677 652.809 86.7626 654.306C87.0832 655.729 87.8088 657.049 88.9396 658.265C90.096 659.408 91.7324 660.35 93.8489 661.092C96.0383 661.859 97.9779 662.17 99.6677 662.025C101.383 661.807 102.81 661.242 103.949 660.33C105.114 659.345 105.952 658.123 106.464 656.663ZM152.431 671.055C153.378 668.354 153.868 665.904 153.902 663.703C154.034 661.455 153.794 659.568 153.182 658.042C152.569 656.517 151.606 655.523 150.292 655.063C148.395 654.398 146.873 654.766 145.726 656.167C144.678 657.52 143.643 659.657 142.619 662.576L140.547 668.487C139.754 670.75 139.055 672.512 138.448 673.775C137.915 675.063 137.323 676.166 136.673 677.086C137.216 678.341 137.836 679.378 138.533 680.196C139.328 680.966 140.237 681.531 141.258 681.889C143.448 682.656 145.512 682.028 147.451 680.003C149.39 677.978 151.05 674.996 152.431 671.055Z" fill="#00896C"/>
<path d="M117.336 741.579C115.485 748.609 111.828 753.084 106.365 755.004C100.826 756.905 94.0934 756.812 86.1662 754.725L46.6794 744.33L51.9359 724.362L88.9547 734.107C93.2923 735.249 96.4412 735.439 98.4014 734.675C100.287 733.892 101.564 732.229 102.234 729.686C102.824 727.443 102.84 725.408 102.281 723.581C101.668 721.66 100.418 719.572 98.5328 717.317L56.6904 706.302L61.9468 686.334L125.776 703.137L121.494 719.403L112.36 718.558L112.242 719.006C114.694 722.451 116.442 725.99 117.484 729.623C118.527 733.256 118.478 737.241 117.336 741.579Z" fill="#00896C"/>
<path d="M99.0876 820.456L14.0708 804.946L17.7974 784.519L85.6967 796.906L91.7341 763.812L108.852 766.935L99.0876 820.456Z" fill="#00896C"/>
<path d="M57.7615 920.051L18.4565 921.27L0 921.121L0.95002 900.379L19.3429 901.918L58.3718 906.725L57.7615 920.051ZM90.9735 914.953C90.8107 918.507 89.4402 921.386 86.862 923.59C84.2101 925.714 81.1073 926.694 77.5537 926.531C73.9228 926.365 70.9613 925.107 68.6691 922.757C66.3032 920.326 65.2016 917.334 65.3643 913.78C65.5306 910.149 66.9011 907.27 69.4758 905.143C71.9768 902.935 75.0427 901.915 78.6735 902.081C82.2272 902.244 85.2256 903.542 87.6687 905.976C90.0382 908.33 91.1398 911.322 90.9735 914.953Z" fill="#00896C"/>
<path d="M91.0477 992.258C91.2777 997.821 90.1428 1003.13 87.6429 1008.19C85.0657 1013.25 81.2525 1017.43 76.2034 1020.74C71.1511 1023.96 64.9933 1025.73 57.7302 1026.03C50.4671 1026.33 44.2234 1025.08 38.9992 1022.27C33.6945 1019.4 29.5877 1015.54 26.6789 1010.71C23.6929 1005.88 22.0848 1000.68 21.8548 995.119C21.6823 990.946 22.2889 986.896 23.6745 982.969C25.0601 979.042 27.1973 975.509 30.0862 972.371C32.8978 969.236 36.3917 966.693 40.5679 964.74C44.7441 962.787 49.5752 961.697 55.0612 961.47C62.3243 961.17 68.6082 962.458 73.9129 965.335C79.2144 968.134 83.3582 971.949 86.3443 976.779C89.2499 981.535 90.8177 986.695 91.0477 992.258ZM74.358 992.948C74.2525 990.398 73.4323 988.342 71.8971 986.78C70.3587 985.141 68.2214 983.991 65.4851 983.33C62.7488 982.67 59.5649 982.414 55.9333 982.564C52.3017 982.714 49.1884 983.23 46.5932 984.111C43.9208 984.996 41.8857 986.318 40.4879 988.079C39.0869 989.762 38.4391 991.879 38.5446 994.429C38.65 996.979 39.4719 999.073 41.0102 1000.71C42.5454 1002.27 44.6827 1003.42 47.4222 1004.16C50.0812 1004.83 53.2265 1005.08 56.8581 1004.93C60.4897 1004.78 63.6417 1004.27 66.3141 1003.38C68.9833 1002.42 71.0184 1001.1 72.4194 999.414C73.8172 997.653 74.4634 995.498 74.358 992.948Z" fill="#00896C"/>
<path d="M96.5681 1060.64C97.5708 1068.54 96.8316 1075.92 94.3505 1082.79C91.8597 1089.57 87.5971 1095.3 81.5629 1099.96C75.5189 1104.55 67.6636 1107.46 57.9971 1108.68C50.8624 1109.59 44.3919 1109.28 38.5859 1107.75C32.7032 1106.24 27.6005 1103.81 23.2778 1100.46C18.9454 1097.03 15.4606 1092.92 12.8234 1088.1C10.1862 1083.29 8.50247 1078.01 7.77232 1072.26C6.97402 1065.97 7.43844 1060.41 9.16559 1055.59C10.816 1050.79 12.9139 1046.74 15.4593 1043.45L29.9507 1052.61C28.3054 1055 27.0247 1057.5 26.1088 1060.11C25.1064 1062.65 24.8339 1065.73 25.2915 1069.33C25.8269 1073.55 27.378 1077.18 29.9448 1080.2C32.425 1083.16 35.7815 1085.35 40.0143 1086.76C44.1605 1088.1 49.0339 1088.42 54.6343 1087.71C60.3114 1086.99 65.076 1085.53 68.9278 1083.32C72.6933 1081.05 75.431 1078.06 77.141 1074.33C78.7646 1070.54 79.2405 1066 78.5687 1060.7C78.374 1059.17 77.9924 1057.7 77.4238 1056.29C76.8553 1054.88 76.1673 1053.76 75.36 1052.92L61.5508 1054.68L63.274 1068.26L46.4727 1070.39L42.4276 1038.51L82.4745 1033.43C85.6927 1036.06 88.6588 1039.78 91.3727 1044.58C94.0769 1049.3 95.8087 1054.66 96.5681 1060.64Z" fill="#00896C"/>
<path d="M135.54 1137.76C136.591 1142.68 136.994 1147.34 136.748 1151.74C136.562 1156.05 135.518 1159.67 133.615 1162.61C131.788 1165.53 128.946 1167.4 125.089 1168.23C122.442 1168.79 119.861 1168.55 117.344 1167.51C114.903 1166.45 112.604 1164.57 110.444 1161.87L109.877 1161.99C109.099 1163.9 107.961 1165.6 106.464 1167.11C104.891 1168.63 102.744 1169.68 100.021 1170.26C97.7524 1170.75 95.4138 1170.54 93.0054 1169.63C90.5213 1168.74 88.3345 1167.38 86.445 1165.57L85.9913 1165.67C84.9042 1168.35 83.1178 1170.91 80.632 1173.34C78.0544 1175.71 74.8749 1177.3 71.0937 1178.11C65.8755 1179.22 61.2523 1178.87 57.224 1177.04C53.1956 1175.21 49.9131 1172.43 47.3765 1168.71C44.7481 1164.92 42.9409 1160.72 41.9549 1156.1C41.5508 1154.21 41.3141 1152.37 41.2449 1150.56C41.1 1148.77 41.1386 1147.11 41.3609 1145.56L36.2935 1121.85L50.9269 1118.72L53.0363 1128.59C53.8469 1127.94 54.9382 1127.31 56.3104 1126.7C57.5909 1126.03 58.9874 1125.54 60.4999 1125.21C65.4911 1124.15 69.8632 1124.44 73.6162 1126.09C77.2774 1127.68 80.2845 1130.28 82.6375 1133.89C84.9744 1137.42 86.652 1141.57 87.6703 1146.33C87.8966 1147.39 88.0716 1148.58 88.1951 1149.9C88.243 1151.23 88.2315 1152.66 88.1604 1154.18C88.9865 1154.71 89.7425 1155.1 90.4283 1155.35C91.098 1155.52 92 1155.49 93.1344 1155.25C94.5713 1154.94 95.5143 1153.99 95.9634 1152.39C96.3369 1150.81 96.1519 1148.28 95.4084 1144.8L93.2262 1134.59C91.529 1126.65 91.5431 1120.24 93.2686 1115.36C94.9024 1110.43 98.6308 1107.34 104.454 1106.09C108.991 1105.12 113.323 1105.78 117.448 1108.06C121.557 1110.27 125.185 1113.92 128.331 1119.02C131.537 1124.03 133.94 1130.28 135.54 1137.76ZM75.5325 1148.93C75.1931 1147.34 74.5159 1146.02 73.501 1144.97C72.47 1143.85 71.1255 1143.11 69.4675 1142.75C67.7933 1142.32 65.8219 1142.34 63.5531 1142.83C61.36 1143.3 59.6258 1144.06 58.3506 1145.13C57.0592 1146.11 56.1727 1147.33 55.6913 1148.78C55.1937 1150.15 55.1146 1151.63 55.454 1153.22C55.7773 1154.73 56.4545 1156.05 57.4855 1157.17C58.5004 1158.22 59.8071 1158.97 61.4056 1159.42C62.9879 1159.79 64.8757 1159.75 67.0688 1159.28C69.3376 1158.79 71.1555 1158.05 72.5225 1157.04C73.8734 1155.96 74.7976 1154.74 75.2952 1153.37C75.7767 1151.92 75.8558 1150.44 75.5325 1148.93ZM122.27 1137.28C121.672 1134.48 120.814 1132.13 119.697 1130.24C118.639 1128.25 117.452 1126.76 116.135 1125.78C114.817 1124.79 113.478 1124.45 112.117 1124.74C110.15 1125.16 109.043 1126.27 108.793 1128.06C108.603 1129.76 108.832 1132.12 109.478 1135.15L110.787 1141.27C111.288 1143.62 111.609 1145.49 111.749 1146.88C111.964 1148.26 112.033 1149.51 111.957 1150.63C113.075 1151.42 114.144 1151.98 115.165 1152.32C116.245 1152.56 117.314 1152.57 118.373 1152.34C120.642 1151.86 122.077 1150.25 122.678 1147.51C123.279 1144.77 123.143 1141.36 122.27 1137.28Z" fill="#00896C"/>
<path d="M151.641 1200.61C153.066 1205.43 153.825 1210.04 153.919 1214.45C154.065 1218.76 153.302 1222.46 151.63 1225.53C150.033 1228.58 147.343 1230.67 143.561 1231.79C140.965 1232.55 138.373 1232.51 135.784 1231.67C133.269 1230.8 130.831 1229.1 128.471 1226.57L127.915 1226.74C127.285 1228.7 126.281 1230.48 124.904 1232.1C123.453 1233.74 121.393 1234.95 118.723 1235.74C116.498 1236.4 114.151 1236.37 111.679 1235.65C109.134 1234.95 106.85 1233.77 104.827 1232.11L104.382 1232.24C103.504 1235 101.92 1237.69 99.6277 1240.3C97.2397 1242.86 94.1917 1244.69 90.4837 1245.79C85.3666 1247.3 80.7297 1247.3 76.5729 1245.78C72.416 1244.27 68.9299 1241.75 66.1144 1238.23C63.2029 1234.66 61.0784 1230.61 59.741 1226.08C59.1929 1224.23 58.815 1222.41 58.6074 1220.61C58.3256 1218.84 58.236 1217.18 58.3385 1215.61L51.4651 1192.36L65.8151 1188.12L68.6763 1197.8C69.4347 1197.09 70.4745 1196.38 71.7959 1195.67C73.0211 1194.9 74.3754 1194.3 75.8586 1193.86C80.7531 1192.41 85.1347 1192.37 89.0033 1193.72C92.7758 1195.03 95.9736 1197.39 98.5969 1200.81C101.198 1204.15 103.19 1208.16 104.571 1212.83C104.878 1213.87 105.144 1215.04 105.368 1216.35C105.518 1217.67 105.616 1219.09 105.662 1220.61C106.527 1221.08 107.311 1221.42 108.013 1221.61C108.694 1221.73 109.591 1221.63 110.704 1221.3C112.113 1220.88 112.98 1219.86 113.305 1218.23C113.555 1216.63 113.177 1214.12 112.168 1210.71L109.208 1200.69C106.906 1192.91 106.428 1186.52 107.774 1181.52C109.024 1176.48 112.504 1173.11 118.214 1171.42C122.664 1170.1 127.033 1170.43 131.321 1172.38C135.588 1174.27 139.485 1177.63 143.014 1182.47C146.595 1187.22 149.47 1193.27 151.641 1200.61ZM92.6682 1216.35C92.2077 1214.79 91.4313 1213.53 90.3389 1212.56C89.2246 1211.52 87.8272 1210.89 86.1467 1210.66C84.4442 1210.35 82.4806 1210.53 80.2558 1211.19C78.1051 1211.83 76.4349 1212.72 75.2451 1213.88C74.0334 1214.96 73.2431 1216.25 72.8742 1217.73C72.4834 1219.13 72.5182 1220.61 72.9786 1222.17C73.4171 1223.65 74.1935 1224.92 75.3078 1225.96C76.4002 1226.93 77.7606 1227.57 79.3889 1227.9C80.9952 1228.15 82.8737 1227.96 85.0244 1227.32C87.2492 1226.66 89.0046 1225.78 90.2904 1224.67C91.5544 1223.49 92.3818 1222.2 92.7726 1220.79C93.1415 1219.31 93.1067 1217.83 92.6682 1216.35ZM138.373 1201.14C137.561 1198.4 136.526 1196.13 135.267 1194.32C134.059 1192.42 132.761 1191.03 131.372 1190.15C129.983 1189.27 128.621 1189.03 127.286 1189.42C125.358 1189.99 124.339 1191.18 124.228 1192.99C124.169 1194.7 124.578 1197.04 125.455 1200L127.231 1206.01C127.911 1208.31 128.374 1210.15 128.62 1211.53C128.941 1212.88 129.106 1214.13 129.116 1215.25C130.291 1215.95 131.4 1216.43 132.444 1216.69C133.539 1216.85 134.606 1216.77 135.645 1216.47C137.869 1215.81 139.176 1214.09 139.565 1211.32C139.954 1208.54 139.556 1205.15 138.373 1201.14Z" fill="#00896C"/>
<path d="M151.151 1278.87C153.761 1285.66 153.413 1291.43 150.104 1296.18C146.724 1300.96 141.209 1304.82 133.558 1307.77L95.4507 1322.43L88.0349 1303.16L123.761 1289.41C127.947 1287.8 130.612 1286.11 131.755 1284.35C132.826 1282.61 132.89 1280.51 131.945 1278.06C131.112 1275.9 129.935 1274.24 128.413 1273.08C126.792 1271.88 124.557 1270.92 121.708 1270.19L81.3272 1285.73L73.9114 1266.46L135.511 1242.76L141.552 1258.45L133.65 1263.11L133.816 1263.54C137.82 1264.9 141.307 1266.75 144.278 1269.09C147.249 1271.43 149.54 1274.69 151.151 1278.87Z" fill="#00896C"/>
<path d="M182.478 1353.53L104.443 1390.66L95.521 1371.91L157.845 1342.26L143.39 1311.88L159.102 1304.4L182.478 1353.53Z" fill="#00896C"/>
<path d="M207.24 1458.48L176.085 1482.48L161.033 1493.16L149.663 1475.78L165.477 1466.27L199.936 1447.32L207.24 1458.48ZM231.186 1434.91C233.134 1437.89 233.707 1441.02 232.907 1444.32C232 1447.59 230.058 1450.21 227.081 1452.15C224.04 1454.14 220.902 1454.86 217.668 1454.29C214.327 1453.71 211.683 1451.93 209.735 1448.95C207.744 1445.91 207.171 1442.77 208.013 1439.54C208.749 1436.29 210.637 1433.66 213.679 1431.67C216.655 1429.72 219.846 1429.02 223.252 1429.57C226.551 1430.09 229.195 1431.87 231.186 1434.91Z" fill="#00896C"/>
<path d="M276.521 1497.52C279.969 1501.89 282.162 1506.86 283.102 1512.42C283.981 1518.03 283.344 1523.66 281.191 1529.29C278.99 1534.87 275.036 1539.91 269.328 1544.41C263.62 1548.91 257.829 1551.56 251.953 1552.35C245.969 1553.13 240.382 1552.42 235.192 1550.21C229.941 1548.04 225.592 1544.78 222.144 1540.4C219.558 1537.12 217.675 1533.49 216.495 1529.49C215.315 1525.5 214.976 1521.39 215.476 1517.15C215.916 1512.96 217.255 1508.85 219.493 1504.82C221.732 1500.79 225.006 1497.08 229.318 1493.68C235.025 1489.18 240.871 1486.53 246.855 1485.76C252.791 1484.91 258.385 1485.58 263.636 1487.74C268.778 1489.89 273.073 1493.15 276.521 1497.52ZM263.405 1507.86C261.824 1505.86 259.955 1504.68 257.795 1504.31C255.588 1503.88 253.182 1504.21 250.578 1505.27C247.974 1506.34 245.245 1508 242.391 1510.25C239.537 1512.5 237.317 1514.75 235.732 1516.98C234.085 1519.27 233.212 1521.53 233.112 1523.78C232.964 1525.96 233.68 1528.06 235.26 1530.06C236.84 1532.06 238.734 1533.28 240.941 1533.7C243.101 1534.07 245.506 1533.75 248.159 1532.74C250.702 1531.72 253.401 1530.08 256.255 1527.83C259.109 1525.58 261.359 1523.32 263.005 1521.03C264.604 1518.69 265.477 1516.42 265.625 1514.24C265.725 1511.99 264.985 1509.87 263.405 1507.86Z" fill="#00896C"/>
<path d="M321.084 1549.68C326.528 1555.5 330.257 1561.91 332.271 1568.92C334.231 1575.88 334.134 1583.02 331.979 1590.34C329.771 1597.59 325.112 1604.55 317.999 1611.21C312.75 1616.13 307.327 1619.67 301.73 1621.84C296.076 1624.06 290.517 1625.09 285.051 1624.91C279.533 1624.67 274.296 1623.38 269.339 1621.03C264.383 1618.68 259.922 1615.38 255.958 1611.15C251.623 1606.52 248.743 1601.75 247.318 1596.83C245.836 1591.97 245.163 1587.46 245.299 1583.31L262.405 1582.23C262.474 1585.13 262.902 1587.91 263.691 1590.56C264.37 1593.21 265.952 1595.86 268.436 1598.51C271.344 1601.61 274.724 1603.64 278.578 1604.59C282.322 1605.53 286.322 1605.33 290.579 1604C294.726 1602.66 298.86 1600.06 302.981 1596.2C307.158 1592.28 310.161 1588.31 311.989 1584.26C313.709 1580.22 314.169 1576.18 313.371 1572.16C312.463 1568.14 310.186 1564.18 306.538 1560.28C305.481 1559.16 304.309 1558.19 303.022 1557.38C301.736 1556.57 300.521 1556.07 299.379 1555.86L289.219 1565.38L298.575 1575.37L286.214 1586.95L264.25 1563.49L293.714 1535.9C297.864 1536.15 302.446 1537.42 307.459 1539.72C312.419 1541.96 316.96 1545.28 321.084 1549.68Z" fill="#00896C"/>
<path d="M397.868 1589.33C401.599 1592.7 404.655 1596.24 407.035 1599.95C409.41 1603.55 410.687 1607.1 410.866 1610.6C411.097 1614.04 409.891 1617.22 407.248 1620.15C405.435 1622.16 403.203 1623.47 400.552 1624.1C397.953 1624.67 394.987 1624.5 391.654 1623.57L391.266 1624C391.752 1626 391.829 1628.05 391.499 1630.15C391.116 1632.31 389.992 1634.42 388.127 1636.48C386.573 1638.21 384.553 1639.4 382.069 1640.08C379.533 1640.81 376.969 1641 374.377 1640.64L374.066 1640.98C374.758 1643.79 374.808 1646.91 374.217 1650.34C373.517 1653.77 371.871 1656.92 369.281 1659.79C365.705 1663.75 361.75 1666.17 357.415 1667.05C353.079 1667.93 348.792 1667.6 344.552 1666.07C340.203 1664.54 336.277 1662.19 332.775 1659.03C331.34 1657.74 330.066 1656.38 328.953 1654.96C327.788 1653.59 326.841 1652.22 326.113 1650.83L308.115 1634.59L318.142 1623.48L325.633 1630.24C325.911 1629.24 326.427 1628.09 327.182 1626.79C327.827 1625.5 328.668 1624.28 329.704 1623.13C333.124 1619.34 336.838 1617.02 340.846 1616.16C344.744 1615.3 348.704 1615.64 352.725 1617.19C356.69 1618.68 360.48 1621.06 364.097 1624.33C364.9 1625.05 365.738 1625.91 366.611 1626.91C367.431 1627.96 368.257 1629.12 369.089 1630.4C370.072 1630.35 370.914 1630.22 371.616 1630.02C372.26 1629.77 372.971 1629.21 373.748 1628.35C374.732 1627.26 374.938 1625.93 374.366 1624.38C373.741 1622.88 372.109 1620.93 369.468 1618.55L361.718 1611.55C355.69 1606.11 351.947 1600.91 350.488 1595.95C348.92 1590.99 350.131 1586.3 354.12 1581.88C357.229 1578.44 361.123 1576.43 365.803 1575.86C370.426 1575.24 375.506 1576.08 381.044 1578.37C386.576 1580.55 392.184 1584.2 397.868 1589.33ZM355.781 1633.54C354.575 1632.45 353.254 1631.78 351.817 1631.53C350.323 1631.22 348.8 1631.41 347.247 1632.09C345.636 1632.72 344.054 1633.9 342.499 1635.62C340.997 1637.28 340.04 1638.92 339.63 1640.53C339.162 1642.09 339.157 1643.59 339.615 1645.05C340.015 1646.45 340.818 1647.7 342.024 1648.78C343.172 1649.82 344.493 1650.49 345.987 1650.8C347.424 1651.05 348.922 1650.89 350.48 1650.32C351.981 1649.7 353.483 1648.55 354.986 1646.89C356.54 1645.17 357.577 1643.5 358.097 1641.88C358.559 1640.22 358.59 1638.68 358.19 1637.28C357.732 1635.82 356.929 1634.58 355.781 1633.54ZM386.829 1596.72C384.705 1594.8 382.635 1593.4 380.619 1592.52C378.597 1591.53 376.764 1591.02 375.12 1590.99C373.476 1590.97 372.188 1591.47 371.255 1592.5C369.908 1594 369.658 1595.54 370.507 1597.14C371.35 1598.63 372.919 1600.41 375.216 1602.49L379.866 1606.68C381.645 1608.29 383 1609.62 383.93 1610.66C384.911 1611.65 385.7 1612.63 386.297 1613.58C387.665 1613.57 388.861 1613.39 389.884 1613.07C390.902 1612.63 391.774 1612.01 392.5 1611.21C394.054 1609.49 394.273 1607.34 393.155 1604.77C392.038 1602.2 389.929 1599.51 386.829 1596.72Z" fill="#00896C"/>
<path d="M447.738 1630.88C451.714 1633.95 455.029 1637.25 457.683 1640.77C460.324 1644.18 461.866 1647.62 462.309 1651.1C462.8 1654.51 461.838 1657.77 459.425 1660.89C457.769 1663.03 455.643 1664.51 453.047 1665.34C450.499 1666.11 447.528 1666.16 444.135 1665.49L443.78 1665.95C444.416 1667.91 444.649 1669.94 444.478 1672.06C444.26 1674.24 443.299 1676.43 441.596 1678.63C440.176 1680.46 438.253 1681.81 435.827 1682.67C433.354 1683.59 430.812 1683.97 428.2 1683.81L427.916 1684.18C428.819 1686.93 429.105 1690.04 428.775 1693.5C428.336 1696.97 426.934 1700.24 424.568 1703.29C421.303 1707.51 417.542 1710.23 413.286 1711.43C409.03 1712.64 404.729 1712.63 400.385 1711.43C395.933 1710.23 391.841 1708.19 388.11 1705.3C386.581 1704.12 385.207 1702.86 383.99 1701.53C382.725 1700.26 381.677 1698.96 380.846 1697.63L361.67 1682.8L370.826 1670.96L378.809 1677.13C379.009 1676.12 379.437 1674.93 380.091 1673.58C380.637 1672.24 381.383 1670.96 382.33 1669.74C385.453 1665.7 388.98 1663.1 392.911 1661.94C396.733 1660.79 400.708 1660.83 404.835 1662.07C408.901 1663.26 412.86 1665.35 416.714 1668.33C417.57 1668.99 418.471 1669.78 419.416 1670.71C420.314 1671.7 421.226 1672.79 422.151 1674C423.128 1673.88 423.958 1673.69 424.643 1673.43C425.266 1673.13 425.932 1672.52 426.642 1671.61C427.541 1670.45 427.646 1669.11 426.957 1667.6C426.221 1666.15 424.446 1664.34 421.632 1662.16L413.375 1655.77C406.952 1650.8 402.826 1645.9 400.995 1641.06C399.056 1636.24 399.909 1631.47 403.552 1626.76C406.391 1623.09 410.123 1620.79 414.746 1619.87C419.308 1618.91 424.437 1619.35 430.132 1621.22C435.814 1622.97 441.683 1626.19 447.738 1630.88ZM409.119 1678.14C407.835 1677.15 406.467 1676.58 405.015 1676.44C403.502 1676.24 401.997 1676.55 400.5 1677.34C398.942 1678.09 397.453 1679.39 396.034 1681.22C394.661 1682.99 393.831 1684.7 393.544 1686.33C393.196 1687.92 393.305 1689.42 393.871 1690.84C394.377 1692.21 395.272 1693.39 396.556 1694.38C397.78 1695.33 399.148 1695.9 400.661 1696.09C402.113 1696.24 403.594 1695.97 405.105 1695.28C406.554 1694.54 407.965 1693.29 409.337 1691.51C410.757 1689.68 411.665 1687.93 412.06 1686.29C412.395 1684.59 412.31 1683.06 411.804 1681.69C411.238 1680.27 410.343 1679.09 409.119 1678.14ZM437.291 1639.07C435.027 1637.32 432.857 1636.08 430.78 1635.36C428.688 1634.52 426.822 1634.15 425.181 1634.25C423.54 1634.35 422.294 1634.95 421.442 1636.05C420.212 1637.64 420.08 1639.2 421.047 1640.73C422 1642.16 423.7 1643.81 426.147 1645.71L431.102 1649.54C432.998 1651.01 434.449 1652.23 435.455 1653.2C436.509 1654.11 437.369 1655.02 438.037 1655.93C439.4 1655.81 440.579 1655.55 441.575 1655.15C442.557 1654.64 443.379 1653.95 444.042 1653.1C445.461 1651.26 445.517 1649.1 444.208 1646.63C442.899 1644.15 440.594 1641.63 437.291 1639.07Z" fill="#00896C"/>
<path d="M493.105 1694.68C499.187 1698.66 502.274 1703.54 502.366 1709.33C502.416 1715.19 500.196 1721.54 495.707 1728.4L473.347 1762.57L456.07 1751.26L477.033 1719.23C479.489 1715.48 480.666 1712.55 480.562 1710.45C480.416 1708.41 479.243 1706.68 477.043 1705.24C475.102 1703.97 473.176 1703.31 471.267 1703.26C469.251 1703.23 466.874 1703.76 464.138 1704.83L440.444 1741.03L423.167 1729.73L459.312 1674.5L473.386 1683.71L469.692 1692.11L470.081 1692.36C474.124 1691.13 478.034 1690.59 481.81 1690.75C485.587 1690.91 489.352 1692.22 493.105 1694.68Z" fill="#00896C"/>
<path d="M562.137 1736.98L520.472 1812.69L502.281 1802.68L535.556 1742.21L506.084 1725.99L514.473 1710.75L562.137 1736.98Z" fill="#00896C"/>
<path d="M643.546 1807.71L632.281 1845.38L626.308 1862.85L606.929 1855.39L614.201 1838.43L631.096 1802.92L643.546 1807.71ZM649.205 1774.59C652.525 1775.86 654.823 1778.07 656.1 1781.22C657.277 1784.4 657.226 1787.66 655.949 1790.98C654.644 1794.37 652.514 1796.78 649.56 1798.21C646.506 1799.69 643.319 1799.79 639.999 1798.51C636.607 1797.21 634.309 1795 633.104 1791.88C631.8 1788.81 631.8 1785.58 633.105 1782.19C634.383 1778.87 636.562 1776.43 639.644 1774.89C642.626 1773.38 645.813 1773.28 649.205 1774.59Z" fill="#00896C"/>
<path d="M722.586 1798.88C727.939 1800.4 732.624 1803.15 736.639 1807.11C740.633 1811.15 743.406 1816.08 744.957 1821.92C746.433 1827.73 746.173 1834.13 744.176 1841.12C742.179 1848.11 739.03 1853.64 734.728 1857.72C730.33 1861.85 725.38 1864.54 719.877 1865.78C714.354 1867.1 708.915 1866.99 703.561 1865.46C699.546 1864.32 695.892 1862.47 692.599 1859.92C689.306 1857.37 686.623 1854.23 684.552 1850.5C682.459 1846.85 681.142 1842.73 680.6 1838.15C680.058 1833.57 680.542 1828.65 682.05 1823.37C684.047 1816.38 687.245 1810.82 691.642 1806.68C695.966 1802.53 700.889 1799.79 706.413 1798.48C711.841 1797.21 717.232 1797.35 722.586 1798.88ZM717.997 1814.94C715.543 1814.24 713.334 1814.37 711.368 1815.34C709.329 1816.28 707.565 1817.95 706.078 1820.34C704.591 1822.73 703.348 1825.67 702.35 1829.17C701.351 1832.66 700.863 1835.78 700.884 1838.52C700.884 1841.33 701.5 1843.68 702.732 1845.56C703.89 1847.42 705.696 1848.7 708.15 1849.4C710.604 1850.1 712.85 1849.98 714.89 1849.04C716.855 1848.07 718.618 1846.4 720.18 1844.03C721.646 1841.72 722.878 1838.81 723.877 1835.32C724.875 1831.82 725.374 1828.67 725.374 1825.85C725.3 1823.02 724.684 1820.67 723.526 1818.81C722.294 1816.93 720.451 1815.64 717.997 1814.94Z" fill="#00896C"/>
<path d="M789.247 1815.07C797.066 1816.59 803.846 1819.6 809.589 1824.11C815.255 1828.6 819.36 1834.44 821.901 1841.63C824.367 1848.8 824.671 1857.17 822.813 1866.74C821.441 1873.8 819.123 1879.85 815.86 1884.88C812.581 1890 808.676 1894.08 804.142 1897.14C799.533 1900.18 794.532 1902.21 789.138 1903.21C783.744 1904.21 778.201 1904.15 772.507 1903.05C766.282 1901.84 761.151 1899.66 757.115 1896.51C753.064 1893.44 749.876 1890.18 747.552 1886.74L760.778 1875.83C762.535 1878.15 764.51 1880.14 766.703 1881.83C768.806 1883.58 771.641 1884.8 775.209 1885.49C779.384 1886.3 783.311 1885.96 786.988 1884.47C790.574 1883.04 793.7 1880.54 796.365 1876.96C798.939 1873.44 800.765 1868.91 801.842 1863.37C802.933 1857.75 803.035 1852.77 802.146 1848.42C801.167 1844.14 799.176 1840.6 796.173 1837.81C793.08 1835.08 788.914 1833.21 783.676 1832.19C782.157 1831.89 780.64 1831.8 779.124 1831.9C777.608 1831.99 776.328 1832.3 775.284 1832.8L772.629 1846.47L786.066 1849.08L782.836 1865.7L751.293 1859.58L758.993 1819.95C762.5 1817.71 766.957 1816.06 772.366 1814.98C777.698 1813.89 783.325 1813.92 789.247 1815.07Z" fill="#00896C"/>
<path d="M874.694 1802.19C879.691 1802.73 884.242 1803.8 888.346 1805.42C892.381 1806.94 895.496 1809.07 897.69 1811.79C899.892 1814.44 900.782 1817.73 900.357 1821.65C900.066 1824.34 899.031 1826.72 897.253 1828.78C895.482 1830.77 892.976 1832.36 889.734 1833.57L889.672 1834.14C891.238 1835.48 892.503 1837.1 893.465 1838.99C894.418 1840.96 894.745 1843.33 894.446 1846.1C894.197 1848.4 893.263 1850.56 891.647 1852.56C890.021 1854.64 888.053 1856.29 885.743 1857.52L885.693 1857.98C887.902 1859.86 889.771 1862.35 891.3 1865.47C892.744 1868.66 893.258 1872.18 892.842 1876.02C892.268 1881.33 890.483 1885.61 887.486 1888.86C884.489 1892.12 880.824 1894.36 876.489 1895.61C872.069 1896.92 867.514 1897.32 862.824 1896.81C860.902 1896.6 859.073 1896.25 857.338 1895.75C855.595 1895.33 854.022 1894.77 852.619 1894.08L828.516 1891.47L830.125 1876.59L840.159 1877.68C839.797 1876.7 839.542 1875.47 839.392 1873.98C839.157 1872.55 839.123 1871.07 839.29 1869.53C839.839 1864.46 841.484 1860.4 844.225 1857.35C846.88 1854.37 850.291 1852.33 854.455 1851.22C858.542 1850.11 863.008 1849.81 867.852 1850.34C868.928 1850.45 870.112 1850.66 871.402 1850.95C872.684 1851.33 874.035 1851.78 875.454 1852.32C876.221 1851.71 876.83 1851.11 877.281 1850.54C877.655 1849.96 877.904 1849.09 878.029 1847.94C878.187 1846.48 877.577 1845.28 876.199 1844.35C874.813 1843.5 872.352 1842.89 868.815 1842.51L858.436 1841.38C850.363 1840.51 844.281 1838.49 840.19 1835.33C836.013 1832.23 834.245 1827.72 834.885 1821.8C835.384 1817.19 837.363 1813.28 840.821 1810.08C844.202 1806.86 848.807 1804.56 854.636 1803.17C860.396 1801.69 867.082 1801.36 874.694 1802.19ZM866.517 1862.68C864.902 1862.5 863.438 1862.73 862.125 1863.37C860.735 1863.99 859.611 1865.04 858.752 1866.5C857.817 1867.96 857.225 1869.84 856.975 1872.14C856.734 1874.37 856.919 1876.26 857.53 1877.8C858.064 1879.34 858.942 1880.56 860.166 1881.47C861.313 1882.38 862.694 1882.91 864.309 1883.09C865.846 1883.25 867.31 1883.02 868.701 1882.4C870.014 1881.76 871.134 1880.75 872.061 1879.38C872.911 1877.99 873.456 1876.18 873.698 1873.95C873.947 1871.65 873.809 1869.69 873.283 1868.07C872.681 1866.45 871.806 1865.19 870.659 1864.29C869.435 1863.38 868.055 1862.84 866.517 1862.68ZM870.08 1814.64C867.235 1814.33 864.737 1814.41 862.586 1814.88C860.367 1815.26 858.584 1815.92 857.238 1816.87C855.891 1817.81 855.143 1818.97 854.993 1820.36C854.777 1822.36 855.481 1823.76 857.106 1824.55C858.663 1825.27 860.978 1825.79 864.054 1826.12L870.281 1826.8C872.665 1827.05 874.54 1827.33 875.908 1827.64C877.283 1827.87 878.492 1828.19 879.536 1828.61C880.635 1827.8 881.504 1826.96 882.142 1826.1C882.711 1825.15 883.054 1824.13 883.17 1823.06C883.42 1820.75 882.338 1818.88 879.926 1817.46C877.514 1816.03 874.231 1815.09 870.08 1814.64Z" fill="#00896C"/>
<path d="M939.45 1806.61C944.474 1806.77 949.093 1807.5 953.307 1808.79C957.447 1810.01 960.713 1811.89 963.108 1814.44C965.504 1816.92 966.64 1820.13 966.514 1824.07C966.427 1826.77 965.575 1829.22 963.957 1831.41C962.342 1833.53 959.964 1835.31 956.823 1836.76L956.804 1837.34C958.468 1838.55 959.851 1840.07 960.953 1841.88C962.053 1843.77 962.559 1846.11 962.47 1848.89C962.395 1851.21 961.628 1853.43 960.167 1855.55C958.704 1857.75 956.867 1859.55 954.656 1860.94L954.641 1861.41C956.985 1863.11 959.038 1865.46 960.799 1868.45C962.48 1871.52 963.259 1874.99 963.136 1878.86C962.965 1884.19 961.509 1888.59 958.767 1892.06C956.025 1895.54 952.54 1898.05 948.312 1899.62C944.004 1901.26 939.492 1902.01 934.777 1901.86C932.845 1901.8 930.995 1901.58 929.227 1901.22C927.457 1900.93 925.846 1900.49 924.395 1899.9L900.163 1899.12L900.642 1884.17L910.729 1884.49C910.294 1883.55 909.946 1882.34 909.684 1880.86C909.342 1879.46 909.196 1877.98 909.245 1876.44C909.409 1871.33 910.741 1867.16 913.244 1863.91C915.667 1860.74 918.912 1858.45 922.981 1857.03C926.973 1855.61 931.403 1854.98 936.273 1855.13C937.355 1855.17 938.55 1855.28 939.859 1855.48C941.166 1855.75 942.547 1856.11 944.003 1856.54C944.721 1855.87 945.284 1855.23 945.69 1854.62C946.019 1854.01 946.202 1853.13 946.239 1851.97C946.286 1850.5 945.587 1849.36 944.144 1848.54C942.697 1847.8 940.196 1847.37 936.641 1847.25L926.206 1846.92C918.09 1846.66 911.873 1845.11 907.554 1842.26C903.155 1839.49 901.05 1835.13 901.241 1829.18C901.389 1824.54 903.066 1820.49 906.272 1817.03C909.4 1813.58 913.817 1810.93 919.524 1809.1C925.156 1807.19 931.798 1806.36 939.45 1806.61ZM935.876 1867.54C934.252 1867.49 932.81 1867.83 931.549 1868.56C930.21 1869.29 929.168 1870.42 928.423 1871.94C927.601 1873.46 927.152 1875.38 927.078 1877.7C927.006 1879.94 927.333 1881.81 928.059 1883.31C928.708 1884.8 929.677 1885.95 930.966 1886.76C932.178 1887.58 933.596 1888.01 935.219 1888.06C936.765 1888.11 938.207 1887.77 939.546 1887.04C940.807 1886.3 941.848 1885.22 942.668 1883.77C943.41 1882.33 943.818 1880.48 943.889 1878.24C943.964 1875.92 943.678 1873.98 943.031 1872.41C942.308 1870.84 941.34 1869.65 940.128 1868.84C938.839 1868.02 937.421 1867.59 935.876 1867.54ZM935.792 1819.37C932.932 1819.28 930.448 1819.55 928.339 1820.18C926.154 1820.73 924.427 1821.52 923.156 1822.57C921.884 1823.61 921.226 1824.82 921.182 1826.22C921.117 1828.23 921.926 1829.57 923.606 1830.24C925.212 1830.83 927.561 1831.18 930.653 1831.28L936.913 1831.48C939.31 1831.55 941.201 1831.69 942.587 1831.89C943.976 1832.01 945.206 1832.25 946.279 1832.59C947.313 1831.69 948.116 1830.79 948.687 1829.88C949.183 1828.89 949.448 1827.86 949.482 1826.77C949.557 1824.45 948.337 1822.67 945.823 1821.43C943.31 1820.19 939.966 1819.51 935.792 1819.37Z" fill="#00896C"/>
<path d="M1013.61 1831.75C1020.87 1831.42 1026.24 1833.57 1029.7 1838.22C1033.16 1842.93 1035.09 1849.39 1035.46 1857.58L1037.32 1898.37L1016.69 1899.31L1014.95 1861.07C1014.74 1856.59 1013.99 1853.52 1012.67 1851.88C1011.36 1850.32 1009.39 1849.59 1006.77 1849.71C1004.45 1849.82 1002.5 1850.41 1000.93 1851.49C999.275 1852.65 997.655 1854.46 996.065 1856.94L998.038 1900.16L977.411 1901.1L974.402 1835.17L991.204 1834.4L993.123 1843.37L993.587 1843.35C996.142 1839.98 998.999 1837.26 1002.16 1835.18C1005.31 1833.1 1009.13 1831.95 1013.61 1831.75Z" fill="#00896C"/>
<path d="M1094.35 1825.67L1104.84 1911.45L1084.23 1913.97L1075.85 1845.46L1042.46 1849.55L1040.34 1832.28L1094.35 1825.67Z" fill="#00896C"/>
<path d="M1201.74 1835.43L1214.64 1872.58L1220 1890.24L1199.92 1895.53L1195.9 1877.51L1188.84 1838.83L1201.74 1835.43ZM1186.97 1805.25C1190.41 1804.35 1193.56 1804.8 1196.44 1806.6C1199.25 1808.5 1201.12 1811.17 1202.02 1814.61C1202.95 1818.12 1202.63 1821.32 1201.07 1824.21C1199.46 1827.2 1196.93 1829.14 1193.49 1830.05C1189.97 1830.97 1186.82 1830.52 1184.02 1828.7C1181.17 1826.97 1179.28 1824.35 1178.35 1820.84C1177.45 1817.4 1177.79 1814.15 1179.38 1811.09C1180.92 1808.12 1183.45 1806.18 1186.97 1805.25Z" fill="#00896C"/>
<path d="M1260.69 1782.04C1265.93 1780.15 1271.34 1779.64 1276.91 1780.5C1282.51 1781.44 1287.65 1783.82 1292.31 1787.64C1296.91 1791.49 1300.44 1796.84 1302.91 1803.67C1305.38 1810.51 1306.06 1816.84 1304.96 1822.67C1303.81 1828.59 1301.36 1833.67 1297.63 1837.89C1293.92 1842.19 1289.44 1845.29 1284.2 1847.18C1280.28 1848.6 1276.23 1849.23 1272.07 1849.09C1267.91 1848.95 1263.9 1847.97 1260.03 1846.16C1256.2 1844.42 1252.72 1841.85 1249.61 1838.45C1246.49 1835.06 1244 1830.78 1242.14 1825.61C1239.67 1818.77 1239.01 1812.39 1240.16 1806.47C1241.24 1800.57 1243.63 1795.47 1247.34 1791.17C1251.01 1786.97 1255.46 1783.93 1260.69 1782.04ZM1266.36 1797.75C1263.96 1798.62 1262.25 1800.02 1261.22 1801.95C1260.12 1803.91 1259.66 1806.29 1259.86 1809.1C1260.05 1811.91 1260.76 1815.02 1261.99 1818.44C1263.23 1821.86 1264.65 1824.68 1266.27 1826.89C1267.92 1829.17 1269.79 1830.71 1271.89 1831.52C1273.92 1832.35 1276.13 1832.33 1278.53 1831.47C1280.93 1830.6 1282.68 1829.19 1283.79 1827.23C1284.81 1825.29 1285.27 1822.91 1285.15 1820.07C1284.99 1817.34 1284.29 1814.26 1283.05 1810.84C1281.82 1807.42 1280.38 1804.57 1278.73 1802.29C1277.01 1800.03 1275.14 1798.49 1273.11 1797.66C1271.01 1796.85 1268.76 1796.88 1266.36 1797.75Z" fill="#00896C"/>
<path d="M1324.24 1756.19C1331.47 1752.85 1338.73 1751.33 1346.02 1751.63C1353.25 1751.95 1359.99 1754.29 1366.26 1758.64C1372.45 1763.01 1377.59 1769.63 1381.68 1778.47C1384.7 1785 1386.35 1791.26 1386.65 1797.26C1386.98 1803.32 1386.2 1808.92 1384.32 1814.05C1382.36 1819.22 1379.48 1823.78 1375.69 1827.75C1371.9 1831.71 1367.37 1834.91 1362.11 1837.35C1356.35 1840 1350.91 1841.24 1345.8 1841.05C1340.72 1840.92 1336.23 1840.14 1332.33 1838.71L1336.68 1822.13C1339.46 1822.98 1342.23 1823.44 1344.99 1823.53C1347.72 1823.72 1350.73 1823.05 1354.03 1821.53C1357.89 1819.74 1360.88 1817.17 1362.99 1813.81C1365.06 1810.55 1366.14 1806.69 1366.2 1802.23C1366.24 1797.87 1365.07 1793.13 1362.7 1788.01C1360.3 1782.81 1357.47 1778.71 1354.21 1775.7C1350.9 1772.8 1347.22 1771.09 1343.15 1770.58C1339.05 1770.18 1334.57 1771.1 1329.73 1773.34C1328.33 1773.98 1327.04 1774.79 1325.87 1775.76C1324.69 1776.73 1323.83 1777.72 1323.28 1778.74L1329.12 1791.38L1341.55 1785.64L1348.65 1801.01L1319.48 1814.49L1302.55 1777.84C1304.09 1773.98 1306.74 1770.03 1310.49 1765.99C1314.18 1761.99 1318.76 1758.72 1324.24 1756.19Z" fill="#00896C"/>
<path d="M1386.01 1695.77C1390.38 1693.29 1394.7 1691.5 1398.97 1690.4C1403.14 1689.28 1406.91 1689.18 1410.28 1690.11C1413.62 1690.97 1416.26 1693.12 1418.21 1696.54C1419.55 1698.9 1420.1 1701.43 1419.86 1704.15C1419.59 1706.79 1418.49 1709.55 1416.57 1712.43L1416.85 1712.93C1418.9 1713.1 1420.87 1713.67 1422.76 1714.64C1424.69 1715.68 1426.34 1717.41 1427.71 1719.83C1428.86 1721.85 1429.36 1724.14 1429.22 1726.71C1429.12 1729.35 1428.49 1731.84 1427.34 1734.19L1427.57 1734.59C1430.45 1734.82 1433.43 1735.75 1436.5 1737.39C1439.53 1739.13 1442.01 1741.68 1443.92 1745.04C1446.56 1749.68 1447.61 1754.2 1447.08 1758.59C1446.56 1762.98 1444.9 1766.95 1442.11 1770.49C1439.29 1774.14 1435.83 1777.13 1431.73 1779.46C1430.05 1780.42 1428.36 1781.2 1426.66 1781.81C1425 1782.49 1423.4 1782.96 1421.85 1783.21L1400.78 1795.19L1393.38 1782.19L1402.15 1777.2C1401.29 1776.62 1400.36 1775.77 1399.37 1774.65C1398.34 1773.63 1397.45 1772.44 1396.68 1771.1C1394.16 1766.66 1393.12 1762.41 1393.56 1758.33C1393.97 1754.36 1395.54 1750.71 1398.27 1747.38C1400.94 1744.08 1404.39 1741.23 1408.62 1738.82C1409.56 1738.29 1410.65 1737.76 1411.86 1737.25C1413.12 1736.8 1414.48 1736.38 1415.95 1735.99C1416.21 1735.04 1416.36 1734.2 1416.39 1733.47C1416.35 1732.78 1416.05 1731.93 1415.48 1730.93C1414.75 1729.65 1413.56 1729.04 1411.9 1729.09C1410.28 1729.21 1407.92 1730.15 1404.83 1731.91L1395.75 1737.07C1388.69 1741.08 1382.58 1743 1377.41 1742.83C1372.21 1742.76 1368.14 1740.14 1365.19 1734.96C1362.9 1730.93 1362.22 1726.6 1363.15 1721.98C1364.01 1717.4 1366.4 1712.84 1370.32 1708.3C1374.12 1703.73 1379.36 1699.55 1386.01 1695.77ZM1414.76 1749.61C1413.35 1750.42 1412.29 1751.46 1411.6 1752.74C1410.84 1754.07 1410.54 1755.57 1410.7 1757.26C1410.79 1758.99 1411.41 1760.86 1412.56 1762.88C1413.67 1764.83 1414.92 1766.25 1416.32 1767.14C1417.65 1768.08 1419.08 1768.55 1420.6 1768.58C1422.06 1768.64 1423.5 1768.27 1424.91 1767.46C1426.25 1766.7 1427.3 1765.66 1428.06 1764.33C1428.76 1763.05 1429.08 1761.58 1429.02 1759.92C1428.9 1758.3 1428.29 1756.51 1427.18 1754.56C1426.03 1752.55 1424.77 1751.04 1423.41 1750.04C1421.97 1749.07 1420.52 1748.56 1419.06 1748.5C1417.54 1748.48 1416.1 1748.85 1414.76 1749.61ZM1389.55 1708.57C1387.07 1709.98 1385.09 1711.51 1383.61 1713.15C1382.04 1714.75 1380.98 1716.33 1380.44 1717.89C1379.9 1719.44 1379.97 1720.82 1380.66 1722.03C1381.65 1723.78 1383.04 1724.5 1384.83 1724.2C1386.51 1723.87 1388.69 1722.94 1391.38 1721.41L1396.83 1718.31C1398.91 1717.13 1400.6 1716.26 1401.88 1715.7C1403.13 1715.08 1404.3 1714.64 1405.4 1714.37C1405.81 1713.07 1406.02 1711.88 1406.04 1710.81C1405.94 1709.7 1405.63 1708.68 1405.09 1707.74C1403.95 1705.72 1401.98 1704.84 1399.19 1705.09C1396.39 1705.35 1393.18 1706.5 1389.55 1708.57Z" fill="#00896C"/>
<path d="M1441.09 1661.47C1445.26 1658.66 1449.43 1656.54 1453.61 1655.13C1457.67 1653.69 1461.43 1653.3 1464.86 1653.97C1468.25 1654.58 1471.05 1656.51 1473.26 1659.78C1474.77 1662.03 1475.51 1664.51 1475.49 1667.23C1475.41 1669.89 1474.53 1672.73 1472.83 1675.74L1473.15 1676.22C1475.21 1676.23 1477.22 1676.65 1479.18 1677.48C1481.18 1678.37 1482.95 1679.97 1484.51 1682.27C1485.81 1684.2 1486.49 1686.45 1486.54 1689.02C1486.64 1691.66 1486.21 1694.19 1485.23 1696.62L1485.49 1697C1488.39 1697.01 1491.43 1697.71 1494.61 1699.11C1497.77 1700.62 1500.43 1702.97 1502.59 1706.18C1505.58 1710.6 1506.97 1715.02 1506.78 1719.44C1506.59 1723.86 1505.24 1727.94 1502.73 1731.69C1500.2 1735.54 1496.98 1738.79 1493.07 1741.43C1491.46 1742.51 1489.84 1743.42 1488.19 1744.16C1486.59 1744.96 1485.02 1745.55 1483.5 1745.92L1463.4 1759.48L1455.04 1747.07L1463.4 1741.43C1462.5 1740.92 1461.51 1740.14 1460.43 1739.09C1459.33 1738.16 1458.35 1737.05 1457.48 1735.76C1454.63 1731.53 1453.27 1727.37 1453.4 1723.27C1453.5 1719.28 1454.79 1715.52 1457.26 1711.99C1459.66 1708.5 1462.89 1705.4 1466.93 1702.67C1467.82 1702.07 1468.86 1701.46 1470.04 1700.85C1471.26 1700.31 1472.58 1699.79 1474.02 1699.29C1474.21 1698.32 1474.29 1697.47 1474.26 1696.74C1474.17 1696.06 1473.8 1695.23 1473.15 1694.27C1472.33 1693.05 1471.1 1692.54 1469.45 1692.72C1467.84 1692.96 1465.56 1694.08 1462.61 1696.07L1453.96 1701.9C1447.22 1706.45 1441.27 1708.83 1436.11 1709.05C1430.92 1709.38 1426.66 1707.07 1423.33 1702.13C1420.73 1698.29 1419.72 1694.02 1420.3 1689.35C1420.81 1684.71 1422.84 1679.98 1426.4 1675.16C1429.85 1670.31 1434.75 1665.75 1441.09 1661.47ZM1473.87 1712.96C1472.52 1713.87 1471.55 1714.99 1470.96 1716.32C1470.3 1717.7 1470.11 1719.22 1470.4 1720.89C1470.63 1722.61 1471.39 1724.43 1472.68 1726.35C1473.94 1728.21 1475.3 1729.53 1476.76 1730.32C1478.16 1731.15 1479.62 1731.52 1481.14 1731.42C1482.6 1731.37 1484 1730.89 1485.35 1729.98C1486.63 1729.12 1487.6 1728 1488.26 1726.62C1488.85 1725.29 1489.06 1723.8 1488.88 1722.15C1488.63 1720.54 1487.88 1718.81 1486.63 1716.95C1485.33 1715.02 1483.96 1713.61 1482.52 1712.72C1481.01 1711.87 1479.53 1711.47 1478.07 1711.52C1476.55 1711.62 1475.15 1712.1 1473.87 1712.96ZM1445.6 1673.96C1443.23 1675.56 1441.37 1677.23 1440.03 1678.98C1438.58 1680.7 1437.65 1682.36 1437.23 1683.95C1436.8 1685.54 1436.98 1686.91 1437.76 1688.06C1438.89 1689.73 1440.33 1690.34 1442.08 1689.9C1443.73 1689.44 1445.84 1688.35 1448.4 1686.62L1453.6 1683.12C1455.58 1681.78 1457.2 1680.78 1458.44 1680.13C1459.64 1679.42 1460.77 1678.89 1461.84 1678.54C1462.16 1677.2 1462.28 1676 1462.21 1674.93C1462.03 1673.84 1461.64 1672.84 1461.03 1671.95C1459.74 1670.02 1457.7 1669.29 1454.94 1669.76C1452.18 1670.22 1449.06 1671.62 1445.6 1673.96Z" fill="#00896C"/>
<path d="M1515.91 1638.4C1521.59 1633.87 1527.2 1632.47 1532.73 1634.2C1538.3 1635.99 1543.64 1640.1 1548.75 1646.51L1574.17 1678.46L1558.02 1691.32L1534.18 1661.36C1531.39 1657.85 1528.98 1655.82 1526.95 1655.26C1524.97 1654.76 1522.95 1655.33 1520.89 1656.96C1519.08 1658.41 1517.85 1660.03 1517.2 1661.83C1516.55 1663.73 1516.3 1666.15 1516.46 1669.09L1543.4 1702.95L1527.25 1715.8L1486.15 1664.16L1499.31 1653.68L1506.12 1659.82L1506.48 1659.53C1506.58 1655.31 1507.3 1651.43 1508.63 1647.89C1509.97 1644.36 1512.4 1641.19 1515.91 1638.4Z" fill="#00896C"/>
<path d="M1577.74 1586.14L1636.54 1649.47L1621.33 1663.6L1574.37 1613.02L1549.71 1635.9L1537.87 1623.15L1577.74 1586.14Z" fill="#00896C"/>
<path d="M1670.49 1531.15L1702.69 1553.73L1717.38 1564.91L1704.19 1580.94L1690.38 1568.69L1662.02 1541.45L1670.49 1531.15ZM1640.85 1515.33C1643.11 1512.58 1645.93 1511.1 1649.32 1510.88C1652.71 1510.77 1655.78 1511.84 1658.53 1514.1C1661.34 1516.41 1662.96 1519.19 1663.38 1522.45C1663.82 1525.81 1662.91 1528.87 1660.65 1531.62C1658.34 1534.42 1655.52 1535.91 1652.18 1536.07C1648.86 1536.34 1645.79 1535.32 1642.98 1533.01C1640.24 1530.75 1638.61 1527.91 1638.12 1524.5C1637.63 1521.19 1638.54 1518.14 1640.85 1515.33Z" fill="#00896C"/>
<path d="M1687.07 1453.38C1690.22 1448.78 1694.3 1445.21 1699.33 1442.65C1704.43 1440.14 1709.98 1439.07 1716.01 1439.44C1721.99 1439.88 1727.97 1442.15 1733.97 1446.25C1739.97 1450.36 1744.23 1455.1 1746.74 1460.47C1749.27 1465.95 1750.25 1471.49 1749.69 1477.1C1749.19 1482.76 1747.37 1487.89 1744.23 1492.48C1741.87 1495.93 1738.96 1498.81 1735.5 1501.13C1732.04 1503.45 1728.21 1505 1724.02 1505.78C1719.89 1506.61 1715.57 1506.56 1711.06 1505.63C1706.54 1504.69 1702.02 1502.68 1697.49 1499.58C1691.49 1495.47 1687.22 1490.68 1684.69 1485.2C1682.12 1479.79 1681.08 1474.25 1681.58 1468.59C1682.1 1463.04 1683.93 1457.97 1687.07 1453.38ZM1700.86 1462.81C1699.42 1464.91 1698.84 1467.05 1699.14 1469.22C1699.39 1471.46 1700.42 1473.66 1702.21 1475.82C1704.01 1477.99 1706.41 1480.1 1709.41 1482.15C1712.41 1484.21 1715.21 1485.65 1717.82 1486.5C1720.49 1487.39 1722.91 1487.55 1725.08 1486.97C1727.21 1486.46 1729 1485.16 1730.44 1483.05C1731.88 1480.94 1732.48 1478.77 1732.22 1476.54C1731.93 1474.37 1730.9 1472.17 1729.15 1469.94C1727.42 1467.82 1725.05 1465.73 1722.05 1463.68C1719.05 1461.62 1716.22 1460.15 1713.55 1459.26C1710.83 1458.44 1708.41 1458.28 1706.28 1458.79C1704.11 1459.36 1702.3 1460.7 1700.86 1462.81Z" fill="#00896C"/>
<path d="M1723.54 1395.27C1727.46 1388.34 1732.47 1382.86 1738.56 1378.84C1744.62 1374.89 1751.45 1372.85 1759.08 1372.72C1766.67 1372.65 1774.7 1375.02 1783.18 1379.81C1789.44 1383.35 1794.45 1387.47 1798.19 1392.16C1802 1396.89 1804.64 1401.89 1806.1 1407.16C1807.53 1412.5 1807.86 1417.88 1807.1 1423.31C1806.34 1428.75 1804.53 1433.99 1801.67 1439.04C1798.55 1444.56 1794.86 1448.73 1790.6 1451.56C1786.4 1454.43 1782.3 1456.42 1778.29 1457.53L1772.15 1441.53C1774.9 1440.6 1777.42 1439.36 1779.71 1437.81C1782.04 1436.37 1784.09 1434.07 1785.88 1430.91C1787.97 1427.21 1788.9 1423.37 1788.65 1419.41C1788.43 1415.56 1787.04 1411.8 1784.5 1408.14C1781.98 1404.58 1778.26 1401.41 1773.34 1398.64C1768.36 1395.82 1763.67 1394.14 1759.26 1393.61C1754.89 1393.18 1750.9 1393.95 1747.3 1395.91C1743.73 1397.98 1740.64 1401.34 1738.01 1405.98C1737.25 1407.33 1736.68 1408.74 1736.29 1410.2C1735.9 1411.67 1735.79 1412.98 1735.93 1414.13L1748.05 1420.98L1754.79 1409.07L1769.53 1417.4L1753.72 1445.37L1718.58 1425.51C1717.57 1421.48 1717.41 1416.72 1718.11 1411.25C1718.76 1405.85 1720.58 1400.52 1723.54 1395.27Z" fill="#00896C"/>
<path d="M1738.4 1310.15C1740.5 1305.58 1742.96 1301.6 1745.79 1298.22C1748.51 1294.88 1751.52 1292.6 1754.8 1291.38C1758.01 1290.13 1761.41 1290.33 1764.99 1291.97C1767.45 1293.1 1769.38 1294.84 1770.77 1297.18C1772.1 1299.49 1772.81 1302.37 1772.93 1305.82L1773.46 1306.07C1775.22 1305 1777.15 1304.32 1779.25 1304C1781.42 1303.72 1783.78 1304.16 1786.31 1305.32C1788.41 1306.29 1790.16 1307.86 1791.55 1310.03C1793.01 1312.23 1793.95 1314.62 1794.39 1317.2L1794.81 1317.39C1797.28 1315.89 1800.24 1314.91 1803.69 1314.45C1807.17 1314.09 1810.67 1314.71 1814.18 1316.33C1819.03 1318.55 1822.53 1321.6 1824.67 1325.47C1826.8 1329.35 1827.77 1333.54 1827.58 1338.04C1827.42 1342.65 1826.36 1347.1 1824.39 1351.38C1823.59 1353.14 1822.67 1354.76 1821.65 1356.25C1820.7 1357.77 1819.67 1359.09 1818.56 1360.2L1808.45 1382.23L1794.85 1375.99L1799.06 1366.82C1798.02 1366.85 1796.77 1366.71 1795.31 1366.37C1793.88 1366.15 1792.47 1365.71 1791.06 1365.06C1786.42 1362.94 1783.09 1360.09 1781.07 1356.52C1779.08 1353.06 1778.23 1349.18 1778.5 1344.88C1778.74 1340.65 1779.87 1336.32 1781.9 1331.89C1782.35 1330.91 1782.92 1329.85 1783.61 1328.72C1784.37 1327.62 1785.23 1326.49 1786.2 1325.31C1785.86 1324.39 1785.48 1323.62 1785.08 1323.01C1784.65 1322.47 1783.91 1321.96 1782.85 1321.48C1781.52 1320.87 1780.19 1321.07 1778.87 1322.08C1777.63 1323.12 1776.26 1325.26 1774.78 1328.5L1770.43 1337.99C1767.04 1345.37 1763.2 1350.5 1758.9 1353.37C1754.64 1356.35 1749.81 1356.6 1744.39 1354.12C1740.18 1352.18 1737.1 1349.07 1735.15 1344.78C1733.18 1340.55 1732.45 1335.45 1732.98 1329.48C1733.4 1323.55 1735.21 1317.11 1738.4 1310.15ZM1793.18 1337.07C1792.51 1338.54 1792.26 1340 1792.45 1341.45C1792.6 1342.97 1793.24 1344.37 1794.35 1345.64C1795.44 1346.99 1797.03 1348.15 1799.14 1349.12C1801.18 1350.05 1803.03 1350.47 1804.69 1350.38C1806.31 1350.36 1807.75 1349.92 1809 1349.05C1810.22 1348.24 1811.17 1347.1 1811.85 1345.63C1812.49 1344.22 1812.74 1342.76 1812.58 1341.24C1812.39 1339.8 1811.79 1338.42 1810.78 1337.1C1809.74 1335.85 1808.19 1334.76 1806.16 1333.83C1804.05 1332.86 1802.14 1332.37 1800.45 1332.36C1798.72 1332.42 1797.25 1332.85 1796.03 1333.65C1794.78 1334.52 1793.83 1335.66 1793.18 1337.07ZM1748.75 1318.47C1747.56 1321.07 1746.84 1323.46 1746.6 1325.65C1746.26 1327.88 1746.33 1329.78 1746.8 1331.36C1747.26 1332.93 1748.13 1334.01 1749.4 1334.59C1751.22 1335.43 1752.77 1335.2 1754.04 1333.92C1755.21 1332.67 1756.44 1330.63 1757.73 1327.82L1760.35 1322.13C1761.34 1319.95 1762.21 1318.26 1762.93 1317.06C1763.58 1315.83 1764.27 1314.78 1765 1313.93C1764.58 1312.63 1764.06 1311.54 1763.44 1310.66C1762.72 1309.82 1761.87 1309.17 1760.88 1308.72C1758.77 1307.75 1756.66 1308.19 1754.54 1310.02C1752.42 1311.86 1750.49 1314.67 1748.75 1318.47Z" fill="#00896C"/>
<path d="M1763.06 1250.14C1764.8 1245.42 1766.95 1241.27 1769.51 1237.68C1771.97 1234.14 1774.79 1231.63 1777.97 1230.17C1781.08 1228.68 1784.48 1228.61 1788.18 1229.98C1790.72 1230.91 1792.77 1232.5 1794.34 1234.72C1795.84 1236.92 1796.78 1239.74 1797.16 1243.18L1797.7 1243.38C1799.38 1242.19 1801.25 1241.35 1803.32 1240.88C1805.47 1240.43 1807.84 1240.69 1810.46 1241.66C1812.63 1242.46 1814.5 1243.89 1816.05 1245.94C1817.67 1248.02 1818.8 1250.34 1819.42 1252.88L1819.86 1253.04C1822.21 1251.35 1825.09 1250.14 1828.49 1249.42C1831.93 1248.79 1835.47 1249.15 1839.1 1250.49C1844.1 1252.33 1847.82 1255.11 1850.25 1258.8C1852.68 1262.5 1853.97 1266.6 1854.12 1271.11C1854.31 1275.72 1853.6 1280.23 1851.96 1284.66C1851.3 1286.47 1850.51 1288.16 1849.6 1289.72C1848.77 1291.31 1847.84 1292.7 1846.83 1293.89L1838.44 1316.64L1824.4 1311.46L1827.89 1301.99C1826.86 1302.11 1825.6 1302.05 1824.12 1301.84C1822.68 1301.72 1821.23 1301.39 1819.78 1300.85C1814.99 1299.09 1811.45 1296.51 1809.16 1293.11C1806.92 1289.8 1805.76 1286 1805.71 1281.69C1805.62 1277.46 1806.42 1273.05 1808.1 1268.48C1808.48 1267.47 1808.97 1266.37 1809.57 1265.19C1810.24 1264.04 1811.01 1262.84 1811.88 1261.59C1811.47 1260.7 1811.04 1259.96 1810.59 1259.39C1810.12 1258.88 1809.34 1258.43 1808.25 1258.03C1806.87 1257.52 1805.57 1257.82 1804.33 1258.93C1803.17 1260.07 1801.97 1262.31 1800.74 1265.64L1797.13 1275.44C1794.32 1283.06 1790.88 1288.47 1786.82 1291.67C1782.8 1294.96 1778 1295.58 1772.41 1293.52C1768.06 1291.92 1764.75 1289.05 1762.48 1284.91C1760.19 1280.85 1759.07 1275.83 1759.14 1269.83C1759.11 1263.89 1760.42 1257.32 1763.06 1250.14ZM1819.75 1272.78C1819.19 1274.3 1819.06 1275.78 1819.35 1277.21C1819.62 1278.71 1820.36 1280.05 1821.57 1281.24C1822.76 1282.5 1824.44 1283.53 1826.61 1284.33C1828.72 1285.11 1830.59 1285.39 1832.24 1285.17C1833.86 1285.03 1835.26 1284.47 1836.44 1283.51C1837.59 1282.61 1838.45 1281.41 1839.01 1279.88C1839.55 1278.43 1839.68 1276.95 1839.41 1275.45C1839.11 1274.03 1838.41 1272.69 1837.3 1271.46C1836.16 1270.3 1834.54 1269.33 1832.43 1268.55C1830.26 1267.75 1828.32 1267.41 1826.63 1267.53C1824.91 1267.72 1823.48 1268.26 1822.32 1269.15C1821.14 1270.12 1820.28 1271.33 1819.75 1272.78ZM1774.02 1257.64C1773.03 1260.33 1772.5 1262.77 1772.43 1264.97C1772.26 1267.22 1772.47 1269.11 1773.06 1270.64C1773.65 1272.18 1774.59 1273.19 1775.9 1273.67C1777.79 1274.36 1779.32 1274.02 1780.48 1272.64C1781.55 1271.3 1782.62 1269.18 1783.69 1266.28L1785.86 1260.4C1786.69 1258.15 1787.42 1256.4 1788.05 1255.15C1788.6 1253.87 1789.21 1252.78 1789.88 1251.87C1789.35 1250.6 1788.75 1249.56 1788.07 1248.73C1787.28 1247.95 1786.38 1247.37 1785.37 1246.99C1783.19 1246.19 1781.12 1246.78 1779.15 1248.78C1777.17 1250.77 1775.47 1253.73 1774.02 1257.64Z" fill="#00896C"/>
<path d="M1810.25 1187.7C1812.21 1180.7 1815.94 1176.28 1821.43 1174.45C1827 1172.64 1833.73 1172.84 1841.62 1175.05L1880.94 1186.08L1875.36 1205.96L1838.5 1195.62C1834.19 1194.41 1831.04 1194.17 1829.07 1194.9C1827.17 1195.65 1825.87 1197.3 1825.16 1199.83C1824.53 1202.06 1824.48 1204.1 1825.01 1205.93C1825.59 1207.86 1826.81 1209.97 1828.66 1212.26L1870.32 1223.94L1864.74 1243.82L1801.19 1226L1805.73 1209.8L1814.85 1210.79L1814.98 1210.35C1812.58 1206.86 1810.89 1203.3 1809.91 1199.65C1808.92 1196 1809.04 1192.01 1810.25 1187.7Z" fill="#00896C"/>
<path d="M1829.77 1109.12L1914.52 1126L1910.46 1146.37L1842.77 1132.88L1836.2 1165.87L1819.14 1162.47L1829.77 1109.12Z" fill="#00896C"/>
<path d="M1872.67 1010.2L1911.99 1009.62L1930.44 1010.07L1929.15 1030.79L1910.79 1028.96L1871.84 1023.52L1872.67 1010.2ZM1839.38 1014.76C1839.6 1011.21 1841.02 1008.36 1843.63 1006.19C1846.32 1004.11 1849.43 1003.18 1852.98 1003.4C1856.61 1003.63 1859.55 1004.94 1861.81 1007.32C1864.13 1009.79 1865.19 1012.8 1864.97 1016.35C1864.74 1019.98 1863.32 1022.84 1860.72 1024.92C1858.18 1027.09 1855.1 1028.06 1851.47 1027.83C1847.92 1027.61 1844.94 1026.27 1842.54 1023.79C1840.21 1021.4 1839.15 1018.39 1839.38 1014.76Z" fill="#00896C"/>
<path d="M1840.54 937.47C1840.4 931.904 1841.61 926.613 1844.19 921.596C1846.85 916.577 1850.73 912.455 1855.83 909.231C1860.93 906.084 1867.12 904.417 1874.38 904.232C1881.65 904.046 1887.87 905.396 1893.05 908.28C1898.31 911.241 1902.36 915.16 1905.19 920.039C1908.1 924.915 1909.62 930.137 1909.77 935.703C1909.87 939.878 1909.2 943.917 1907.76 947.822C1906.31 951.727 1904.12 955.226 1901.18 958.318C1898.32 961.408 1894.78 963.896 1890.58 965.782C1886.37 967.669 1881.52 968.683 1876.03 968.823C1868.77 969.008 1862.5 967.621 1857.24 964.661C1851.99 961.778 1847.91 957.898 1845 953.021C1842.17 948.22 1840.68 943.036 1840.54 937.47ZM1857.24 937.044C1857.3 939.595 1858.09 941.664 1859.6 943.25C1861.11 944.913 1863.23 946.097 1865.96 946.801C1868.68 947.505 1871.86 947.81 1875.49 947.718C1879.13 947.625 1882.25 947.158 1884.86 946.318C1887.54 945.476 1889.6 944.186 1891.03 942.447C1892.45 940.786 1893.13 938.68 1893.07 936.129C1893 933.578 1892.21 931.471 1890.7 929.807C1889.19 928.222 1887.07 927.038 1884.35 926.257C1881.7 925.551 1878.56 925.244 1874.92 925.337C1871.29 925.43 1868.13 925.897 1865.44 926.739C1862.76 927.659 1860.7 928.949 1859.28 930.61C1857.85 932.348 1857.17 934.493 1857.24 937.044Z" fill="#00896C"/>
<path d="M1836.1 869.006C1835.22 861.089 1836.08 853.719 1838.67 846.896C1841.26 840.15 1845.62 834.494 1851.72 829.926C1857.84 825.436 1865.74 822.654 1875.43 821.581C1882.57 820.788 1889.04 821.2 1894.82 822.815C1900.68 824.423 1905.74 826.935 1910.01 830.352C1914.29 833.846 1917.71 838.019 1920.27 842.87C1922.83 847.721 1924.43 853.03 1925.07 858.794C1925.77 865.097 1925.21 870.644 1923.41 875.434C1921.68 880.216 1919.52 884.229 1916.93 887.474L1902.58 878.093C1904.26 875.728 1905.58 873.247 1906.54 870.651C1907.58 868.124 1907.9 865.054 1907.5 861.441C1907.04 857.214 1905.54 853.567 1903.02 850.5C1900.59 847.502 1897.27 845.264 1893.06 843.785C1888.93 842.375 1884.07 841.981 1878.46 842.603C1872.77 843.233 1867.98 844.62 1864.09 846.762C1860.29 848.973 1857.51 851.927 1855.74 855.624C1854.06 859.39 1853.51 863.925 1854.1 869.228C1854.27 870.765 1854.63 872.243 1855.17 873.661C1855.72 875.079 1856.39 876.21 1857.18 877.056L1871.02 875.522L1869.51 861.918L1886.34 860.052L1889.88 891.988L1849.76 896.436C1846.58 893.753 1843.68 889.99 1841.04 885.148C1838.41 880.382 1836.76 875.001 1836.1 869.006Z" fill="#00896C"/>
<path d="M1798.36 791.272C1797.39 786.34 1797.06 781.676 1797.37 777.278C1797.63 772.972 1798.73 769.365 1800.68 766.459C1802.55 763.567 1805.42 761.74 1809.29 760.978C1811.95 760.454 1814.53 760.735 1817.03 761.819C1819.45 762.917 1821.72 764.835 1823.84 767.571L1824.4 767.458C1825.21 765.565 1826.38 763.877 1827.9 762.395C1829.5 760.898 1831.66 759.881 1834.39 759.342C1836.67 758.894 1839 759.143 1841.4 760.09C1843.87 761.022 1846.03 762.408 1847.89 764.249L1848.35 764.159C1849.48 761.493 1851.3 758.965 1853.83 756.576C1856.44 754.248 1859.65 752.71 1863.44 751.962C1868.68 750.93 1873.29 751.36 1877.29 753.252C1881.29 755.144 1884.53 757.974 1887 761.743C1889.57 765.572 1891.31 769.8 1892.22 774.429C1892.6 776.326 1892.81 778.176 1892.85 779.981C1892.96 781.771 1892.9 783.44 1892.65 784.986L1897.34 808.772L1882.66 811.666L1880.7 801.764C1879.88 802.399 1878.78 803.01 1877.4 803.597C1876.11 804.246 1874.71 804.72 1873.19 805.019C1868.18 806.006 1863.81 805.645 1860.09 803.935C1856.45 802.287 1853.49 799.64 1851.19 795.994C1848.91 792.423 1847.3 788.248 1846.36 783.468C1846.15 782.405 1845.99 781.214 1845.89 779.895C1845.86 778.56 1845.9 777.134 1845.99 775.618C1845.18 775.07 1844.43 774.666 1843.74 774.406C1843.08 774.222 1842.18 774.242 1841.04 774.467C1839.6 774.751 1838.64 775.688 1838.16 777.279C1837.76 778.856 1837.91 781.389 1838.6 784.879L1840.62 795.122C1842.19 803.089 1842.07 809.496 1840.27 814.344C1838.55 819.254 1834.78 822.284 1828.93 823.435C1824.38 824.332 1820.06 823.607 1815.97 821.26C1811.9 818.989 1808.33 815.278 1805.27 810.128C1802.14 805.069 1799.84 798.784 1798.36 791.272ZM1858.54 781.068C1858.85 782.661 1859.51 783.99 1860.5 785.055C1861.52 786.195 1862.85 786.957 1864.5 787.341C1866.17 787.8 1868.14 787.806 1870.42 787.357C1872.62 786.924 1874.36 786.185 1875.66 785.143C1876.96 784.176 1877.87 782.973 1878.37 781.533C1878.89 780.17 1878.99 778.691 1878.68 777.098C1878.38 775.58 1877.73 774.251 1876.71 773.111C1875.71 772.047 1874.42 771.277 1872.83 770.802C1871.25 770.404 1869.36 770.421 1867.16 770.855C1864.89 771.303 1863.06 772.019 1861.68 773.001C1860.31 774.058 1859.36 775.269 1858.84 776.633C1858.34 778.072 1858.24 779.55 1858.54 781.068ZM1811.62 791.969C1812.17 794.777 1812.99 797.137 1814.08 799.051C1815.1 801.056 1816.27 802.561 1817.57 803.565C1818.87 804.57 1820.2 804.938 1821.57 804.669C1823.54 804.28 1824.67 803.191 1824.95 801.402C1825.16 799.704 1824.97 797.338 1824.37 794.303L1823.16 788.157C1822.7 785.805 1822.41 783.931 1822.29 782.535C1822.1 781.155 1822.05 779.903 1822.14 778.781C1821.04 777.974 1819.98 777.395 1818.96 777.043C1817.89 776.783 1816.82 776.757 1815.76 776.966C1813.48 777.415 1812.02 779.003 1811.37 781.731C1810.73 784.459 1810.81 787.872 1811.62 791.969Z" fill="#00896C"/>
<path d="M1783.26 728.176C1781.92 723.333 1781.23 718.708 1781.21 714.299C1781.13 709.986 1781.95 706.305 1783.67 703.258C1785.32 700.231 1788.04 698.189 1791.84 697.131C1794.45 696.405 1797.04 696.487 1799.62 697.375C1802.12 698.285 1804.53 700.022 1806.85 702.587L1807.4 702.432C1808.07 700.482 1809.1 698.71 1810.5 697.115C1811.98 695.5 1814.06 694.319 1816.74 693.573C1818.97 692.95 1821.32 693.02 1823.78 693.78C1826.31 694.52 1828.58 695.736 1830.57 697.428L1831.02 697.303C1831.94 694.558 1833.57 691.898 1835.9 689.322C1838.33 686.799 1841.41 685.02 1845.14 683.983C1850.28 682.552 1854.91 682.627 1859.04 684.206C1863.18 685.785 1866.62 688.358 1869.38 691.925C1872.23 695.545 1874.29 699.628 1875.56 704.173C1876.08 706.035 1876.43 707.865 1876.6 709.661C1876.86 711.437 1876.92 713.105 1876.79 714.666L1883.29 738.022L1868.88 742.034L1866.17 732.312C1865.4 733.008 1864.35 733.702 1863.02 734.394C1861.78 735.139 1860.42 735.72 1858.93 736.134C1854.01 737.503 1849.63 737.478 1845.78 736.06C1842.03 734.696 1838.87 732.285 1836.3 728.825C1833.76 725.44 1831.83 721.401 1830.52 716.708C1830.23 715.665 1829.99 714.489 1829.78 713.181C1829.65 711.852 1829.58 710.428 1829.56 708.909C1828.7 708.425 1827.92 708.08 1827.22 707.873C1826.54 707.741 1825.64 707.831 1824.53 708.142C1823.11 708.536 1822.23 709.544 1821.88 711.167C1821.6 712.769 1821.94 715.284 1822.89 718.711L1825.69 728.769C1827.87 736.591 1828.25 742.989 1826.82 747.961C1825.49 752.987 1821.96 756.299 1816.22 757.895C1811.75 759.14 1807.39 758.749 1803.13 756.722C1798.89 754.771 1795.05 751.345 1791.6 746.446C1788.09 741.641 1785.32 735.552 1783.26 728.176ZM1842.48 713.38C1842.92 714.944 1843.67 716.219 1844.75 717.203C1845.85 718.262 1847.23 718.92 1848.91 719.176C1850.61 719.506 1852.57 719.36 1854.81 718.738C1856.97 718.137 1858.65 717.267 1859.86 716.128C1861.09 715.063 1861.9 713.794 1862.29 712.32C1862.71 710.921 1862.7 709.439 1862.26 707.874C1861.85 706.384 1861.09 705.109 1859.99 704.05C1858.92 703.066 1857.57 702.398 1855.94 702.047C1854.34 701.77 1852.46 701.933 1850.3 702.534C1848.06 703.156 1846.29 704.01 1844.99 705.095C1843.71 706.255 1842.86 707.534 1842.45 708.934C1842.05 710.408 1842.07 711.889 1842.48 713.38ZM1796.54 727.852C1797.31 730.609 1798.3 732.9 1799.54 734.725C1800.71 736.645 1801.99 738.056 1803.36 738.957C1804.74 739.859 1806.1 740.123 1807.44 739.75C1809.37 739.211 1810.41 738.039 1810.55 736.234C1810.64 734.524 1810.27 732.179 1809.44 729.199L1807.76 723.165C1807.11 720.855 1806.68 719.009 1806.46 717.627C1806.16 716.265 1806.01 715.021 1806.02 713.895C1804.86 713.175 1803.75 712.679 1802.72 712.407C1801.62 712.229 1800.55 712.286 1799.51 712.576C1797.28 713.198 1795.94 714.894 1795.51 717.663C1795.08 720.433 1795.42 723.829 1796.54 727.852Z" fill="#00896C"/>
<path d="M1785.02 649.924C1782.52 643.098 1782.96 637.335 1786.35 632.637C1789.8 627.911 1795.38 624.139 1803.08 621.32L1841.42 607.277L1848.52 626.666L1812.58 639.831C1808.36 641.373 1805.67 643.018 1804.5 644.765C1803.4 646.485 1803.3 648.58 1804.21 651.049C1805 653.227 1806.15 654.906 1807.66 656.085C1809.26 657.311 1811.48 658.31 1814.31 659.083L1854.94 644.203L1862.04 663.591L1800.07 686.291L1794.28 670.497L1802.26 665.969L1802.1 665.533C1798.12 664.109 1794.66 662.204 1791.73 659.819C1788.8 657.434 1786.56 654.135 1785.02 649.924Z" fill="#00896C"/>
<path d="M1754.9 574.772L1833.53 538.902L1842.15 557.793L1779.35 586.441L1793.31 617.046L1777.48 624.268L1754.9 574.772Z" fill="#00896C"/>
<path d="M1731.82 469.442L1763.35 445.951L1778.58 435.512L1789.67 453.066L1773.7 462.329L1738.94 480.72L1731.82 469.442ZM1707.5 492.627C1705.6 489.62 1705.07 486.475 1705.93 483.192C1706.89 479.933 1708.87 477.353 1711.88 475.453C1714.95 473.512 1718.1 472.849 1721.32 473.465C1724.66 474.104 1727.27 475.928 1729.17 478.935C1731.11 482.008 1731.64 485.153 1730.74 488.371C1729.95 491.613 1728.02 494.204 1724.95 496.146C1721.94 498.046 1718.74 498.696 1715.34 498.098C1712.05 497.524 1709.44 495.7 1707.5 492.627Z" fill="#00896C"/>
<path d="M1663.17 429.3C1659.79 424.873 1657.68 419.871 1656.83 414.294C1656.04 408.671 1656.77 403.058 1659.01 397.456C1661.31 391.916 1665.34 386.941 1671.12 382.533C1676.9 378.124 1682.73 375.571 1688.62 374.874C1694.62 374.191 1700.19 374.996 1705.35 377.29C1710.56 379.537 1714.86 382.874 1718.23 387.301C1720.77 390.621 1722.59 394.288 1723.71 398.3C1724.82 402.313 1725.09 406.433 1724.52 410.66C1724.02 414.84 1722.61 418.927 1720.31 422.921C1718.01 426.914 1714.67 430.576 1710.31 433.906C1704.53 438.315 1698.64 440.86 1692.64 441.543C1686.69 442.287 1681.11 441.536 1675.9 439.289C1670.79 437.057 1666.55 433.727 1663.17 429.3ZM1676.45 419.17C1678 421.199 1679.85 422.413 1682 422.814C1684.2 423.275 1686.61 422.993 1689.24 421.966C1691.86 420.94 1694.61 419.324 1697.5 417.12C1700.39 414.915 1702.65 412.709 1704.27 410.499C1705.95 408.243 1706.86 405.993 1707 403.749C1707.18 401.566 1706.5 399.461 1704.95 397.432C1703.4 395.402 1701.53 394.157 1699.33 393.695C1697.18 393.295 1694.77 393.578 1692.1 394.543C1689.54 395.523 1686.81 397.115 1683.92 399.319C1681.03 401.523 1678.75 403.754 1677.06 406.01C1675.43 408.328 1674.52 410.578 1674.34 412.76C1674.2 415.004 1674.9 417.141 1676.45 419.17Z" fill="#00896C"/>
<path d="M1619.45 376.434C1614.09 370.535 1610.47 364.063 1608.56 357.018C1606.71 350.03 1606.92 342.896 1609.19 335.615C1611.51 328.391 1616.28 321.506 1623.5 314.957C1628.82 310.124 1634.3 306.667 1639.93 304.586C1645.62 302.453 1651.19 301.519 1656.65 301.784C1662.17 302.106 1667.39 303.482 1672.3 305.91C1677.22 308.339 1681.63 311.7 1685.53 315.996C1689.79 320.692 1692.6 325.508 1693.94 330.446C1695.35 335.332 1695.95 339.851 1695.75 344.002L1678.63 344.814C1678.61 341.911 1678.22 339.128 1677.47 336.464C1676.84 333.805 1675.3 331.13 1672.85 328.438C1670 325.288 1666.65 323.21 1662.81 322.202C1659.08 321.2 1655.08 321.334 1650.8 322.605C1646.63 323.881 1642.46 326.416 1638.28 330.21C1634.04 334.056 1630.97 337.986 1629.08 342C1627.3 346.019 1626.78 350.045 1627.51 354.078C1628.36 358.115 1630.57 362.11 1634.16 366.061C1635.2 367.206 1636.35 368.193 1637.63 369.021C1638.9 369.85 1640.11 370.374 1641.25 370.593L1651.55 361.239L1642.35 351.102L1654.9 339.721L1676.49 363.516L1646.6 390.644C1642.45 390.333 1637.89 388.99 1632.91 386.613C1627.99 384.294 1623.5 380.901 1619.45 376.434Z" fill="#00896C"/>
<path d="M1543.29 335.562C1539.62 332.135 1536.62 328.547 1534.3 324.798C1531.98 321.158 1530.76 317.59 1530.64 314.092C1530.47 310.651 1531.72 307.488 1534.41 304.604C1536.26 302.624 1538.51 301.341 1541.17 300.755C1543.78 300.226 1546.74 300.45 1550.06 301.428L1550.45 301.004C1550 298.995 1549.96 296.945 1550.32 294.853C1550.74 292.705 1551.9 290.612 1553.79 288.576C1555.38 286.879 1557.41 285.713 1559.91 285.078C1562.46 284.387 1565.02 284.242 1567.61 284.644L1567.92 284.304C1567.28 281.482 1567.28 278.363 1567.92 274.948C1568.68 271.529 1570.38 268.405 1573.01 265.577C1576.65 261.674 1580.65 259.318 1584.99 258.509C1589.34 257.7 1593.62 258.096 1597.84 259.7C1602.16 261.299 1606.05 263.707 1609.5 266.923C1610.92 268.242 1612.17 269.62 1613.26 271.06C1614.4 272.442 1615.32 273.832 1616.03 275.23L1633.76 291.762L1623.56 302.707L1616.18 295.826C1615.89 296.821 1615.35 297.961 1614.57 299.247C1613.91 300.529 1613.05 301.736 1611.99 302.867C1608.51 306.6 1604.76 308.866 1600.74 309.663C1596.83 310.457 1592.88 310.049 1588.88 308.438C1584.94 306.88 1581.19 304.44 1577.62 301.118C1576.83 300.38 1576.01 299.506 1575.15 298.496C1574.35 297.43 1573.54 296.255 1572.73 294.97C1571.75 295.004 1570.9 295.116 1570.2 295.305C1569.55 295.546 1568.83 296.091 1568.04 296.94C1567.04 298.015 1566.81 299.336 1567.36 300.903C1567.96 302.414 1569.56 304.383 1572.16 306.809L1579.8 313.927C1585.74 319.464 1589.4 324.725 1590.78 329.711C1592.26 334.693 1590.98 339.361 1586.92 343.717C1583.75 347.111 1579.83 349.054 1575.14 349.547C1570.51 350.093 1565.44 349.176 1559.94 346.797C1554.44 344.528 1548.89 340.783 1543.29 335.562ZM1586.09 292.039C1587.28 293.146 1588.59 293.839 1590.02 294.117C1591.51 294.448 1593.03 294.285 1594.6 293.628C1596.22 293.024 1597.82 291.874 1599.4 290.177C1600.93 288.536 1601.91 286.915 1602.35 285.313C1602.84 283.764 1602.87 282.258 1602.44 280.796C1602.06 279.386 1601.28 278.128 1600.09 277.021C1598.96 275.966 1597.65 275.273 1596.16 274.942C1594.73 274.664 1593.23 274.799 1591.66 275.346C1590.15 275.947 1588.63 277.067 1587.1 278.707C1585.52 280.404 1584.45 282.056 1583.91 283.662C1583.42 285.32 1583.36 286.854 1583.74 288.264C1584.17 289.726 1584.96 290.984 1586.09 292.039ZM1554.45 328.359C1556.54 330.31 1558.59 331.743 1560.59 332.658C1562.6 333.682 1564.42 334.219 1566.07 334.271C1567.71 334.323 1569.01 333.84 1569.96 332.822C1571.33 331.351 1571.6 329.809 1570.78 328.197C1569.96 326.693 1568.42 324.887 1566.16 322.778L1561.57 318.506C1559.82 316.872 1558.49 315.523 1557.57 314.461C1556.61 313.455 1555.84 312.47 1555.25 311.505C1553.89 311.499 1552.69 311.65 1551.66 311.96C1550.63 312.379 1549.75 312.984 1549.01 313.776C1547.43 315.473 1547.18 317.616 1548.26 320.205C1549.33 322.793 1551.4 325.511 1554.45 328.359Z" fill="#00896C"/>
<path d="M1494.1 293.241C1490.17 290.103 1486.91 286.754 1484.31 283.192C1481.73 279.74 1480.24 276.275 1479.85 272.796C1479.41 269.379 1480.42 266.129 1482.89 263.048C1484.58 260.933 1486.72 259.483 1489.33 258.696C1491.89 257.97 1494.86 257.968 1498.25 258.691L1498.61 258.238C1498 256.269 1497.8 254.228 1498.01 252.115C1498.26 249.941 1499.25 247.766 1500.99 245.591C1502.44 243.778 1504.38 242.461 1506.82 241.638C1509.31 240.755 1511.86 240.415 1514.47 240.619L1514.76 240.256C1513.9 237.491 1513.66 234.381 1514.04 230.927C1514.54 227.46 1515.99 224.217 1518.4 221.196C1521.73 217.027 1525.54 214.374 1529.81 213.236C1534.09 212.098 1538.39 212.168 1542.71 213.445C1547.14 214.711 1551.2 216.816 1554.89 219.76C1556.4 220.967 1557.75 222.246 1558.95 223.598C1560.19 224.89 1561.22 226.206 1562.03 227.546L1580.97 242.679L1571.63 254.37L1563.75 248.07C1563.53 249.085 1563.08 250.263 1562.41 251.604C1561.84 252.933 1561.08 254.201 1560.11 255.41C1556.92 259.397 1553.36 261.942 1549.41 263.043C1545.57 264.132 1541.6 264.026 1537.49 262.724C1533.44 261.471 1529.51 259.323 1525.71 256.282C1524.86 255.607 1523.97 254.798 1523.04 253.856C1522.16 252.855 1521.27 251.744 1520.36 250.525C1519.38 250.634 1518.55 250.81 1517.86 251.052C1517.23 251.342 1516.56 251.94 1515.83 252.846C1514.92 253.994 1514.79 255.329 1515.46 256.85C1516.17 258.311 1517.92 260.152 1520.69 262.372L1528.85 268.889C1535.19 273.958 1539.24 278.925 1541 283.791C1542.86 288.645 1541.93 293.398 1538.22 298.05C1535.32 301.675 1531.55 303.912 1526.92 304.76C1522.34 305.657 1517.22 305.129 1511.55 303.176C1505.9 301.331 1500.08 298.02 1494.1 293.241ZM1533.46 246.585C1534.73 247.599 1536.08 248.19 1537.53 248.358C1539.04 248.575 1540.55 248.296 1542.06 247.522C1543.63 246.796 1545.14 245.527 1546.59 243.715C1547.99 241.963 1548.85 240.271 1549.16 238.641C1549.53 237.058 1549.45 235.555 1548.9 234.13C1548.42 232.753 1547.54 231.558 1546.27 230.545C1545.06 229.579 1543.71 228.988 1542.2 228.772C1540.75 228.604 1539.26 228.852 1537.74 229.517C1536.28 230.231 1534.85 231.464 1533.45 233.216C1532 235.028 1531.07 236.756 1530.64 238.399C1530.28 240.09 1530.34 241.623 1530.83 243C1531.37 244.425 1532.25 245.62 1533.46 246.585ZM1504.68 285.209C1506.91 286.995 1509.06 288.268 1511.13 289.027C1513.21 289.896 1515.07 290.293 1516.71 290.219C1518.35 290.146 1519.61 289.565 1520.47 288.478C1521.73 286.907 1521.89 285.349 1520.94 283.804C1520.01 282.367 1518.34 280.683 1515.92 278.752L1511.03 274.842C1509.16 273.346 1507.72 272.103 1506.73 271.113C1505.69 270.184 1504.85 269.26 1504.19 268.343C1502.83 268.44 1501.65 268.683 1500.64 269.07C1499.65 269.566 1498.82 270.236 1498.15 271.082C1496.7 272.895 1496.61 275.051 1497.88 277.55C1499.15 280.049 1501.41 282.602 1504.68 285.209Z" fill="#00896C"/>
<path d="M1449.75 228.725C1443.73 224.647 1440.72 219.712 1440.72 213.921C1440.77 208.065 1443.09 201.745 1447.69 194.959L1470.6 161.158L1487.69 172.742L1466.21 204.43C1463.7 208.143 1462.47 211.051 1462.54 213.154C1462.66 215.192 1463.8 216.949 1465.98 218.424C1467.9 219.726 1469.81 220.416 1471.72 220.495C1473.74 220.553 1476.12 220.067 1478.88 219.037L1503.15 183.22L1520.24 194.803L1483.21 249.442L1469.29 240.006L1473.12 231.67L1472.73 231.409C1468.67 232.58 1464.75 233.054 1460.98 232.832C1457.21 232.61 1453.46 231.241 1449.75 228.725Z" fill="#00896C"/>
<path d="M1381.41 185.315L1424.28 110.281L1442.31 120.583L1408.07 180.509L1437.28 197.199L1428.64 212.307L1381.41 185.315Z" fill="#00896C"/>
<path d="M1301.15 113.295L1313.02 75.8061L1319.28 58.4414L1338.53 66.2107L1330.98 83.0545L1313.52 118.286L1301.15 113.295ZM1294.95 146.319C1291.65 144.988 1289.39 142.741 1288.16 139.578C1287.04 136.373 1287.14 133.12 1288.47 129.821C1289.83 126.451 1292 124.073 1294.98 122.689C1298.06 121.263 1301.24 121.215 1304.54 122.546C1307.91 123.906 1310.18 126.153 1311.33 129.287C1312.58 132.378 1312.53 135.609 1311.17 138.98C1309.84 142.278 1307.62 144.677 1304.52 146.176C1301.51 147.632 1298.32 147.679 1294.95 146.319Z" fill="#00896C"/>
<path d="M1221.97 120.855C1216.64 119.24 1212 116.419 1208.05 112.393C1204.12 108.293 1201.43 103.315 1199.97 97.4592C1198.59 91.6258 1198.95 85.2307 1201.06 78.2739C1203.17 71.3172 1206.41 65.8341 1210.77 61.8245C1215.24 57.7634 1220.23 55.1556 1225.75 54.0011C1231.3 52.7726 1236.73 52.966 1242.06 54.5813C1246.06 55.7928 1249.68 57.6995 1252.93 60.3013C1256.18 62.9032 1258.82 66.0848 1260.83 69.846C1262.86 73.5333 1264.11 77.6701 1264.58 82.2565C1265.05 86.8429 1264.49 91.7634 1262.89 97.0179C1260.78 103.975 1257.5 109.484 1253.04 113.545C1248.65 117.628 1243.68 120.284 1238.14 121.513C1232.69 122.69 1227.3 122.47 1221.97 120.855ZM1226.82 104.87C1229.26 105.61 1231.47 105.513 1233.45 104.578C1235.5 103.665 1237.29 102.026 1238.82 99.6598C1240.35 97.2938 1241.64 94.3717 1242.69 90.8933C1243.74 87.415 1244.28 84.3055 1244.31 81.5649C1244.35 78.7503 1243.77 76.3931 1242.57 74.4934C1241.44 72.6161 1239.66 71.3073 1237.21 70.567C1234.77 69.8266 1232.52 69.9128 1230.47 70.8254C1228.49 71.7604 1226.7 73.3996 1225.1 75.7431C1223.6 78.0351 1222.32 80.9202 1221.26 84.3985C1220.21 87.8769 1219.66 91.0234 1219.62 93.838C1219.64 96.6751 1220.22 99.0322 1221.35 100.909C1222.55 102.809 1224.37 104.129 1226.82 104.87Z" fill="#00896C"/>
<path d="M1155.58 103.583C1147.78 101.937 1141.05 98.8159 1135.38 94.22C1129.79 89.6401 1125.78 83.7349 1123.36 76.5044C1121.01 69.2899 1120.84 60.9159 1122.85 51.3822C1124.34 44.3454 1126.76 38.3348 1130.1 33.3504C1133.46 28.2903 1137.43 24.2682 1142.02 21.284C1146.67 18.3158 1151.71 16.3754 1157.12 15.4628C1162.53 14.5502 1168.07 14.6932 1173.74 15.8917C1179.95 17.2021 1185.04 19.4637 1189.03 22.6764C1193.03 25.8135 1196.16 29.1233 1198.43 32.6058L1185.03 43.2912C1183.31 40.9521 1181.37 38.9216 1179.2 37.1996C1177.13 35.4179 1174.31 34.1516 1170.76 33.4005C1166.59 32.5216 1162.66 32.7979 1158.96 34.2293C1155.35 35.6011 1152.19 38.0545 1149.46 41.5895C1146.83 45.0649 1144.93 49.5643 1143.77 55.0878C1142.59 60.6869 1142.4 65.6674 1143.22 70.0291C1144.13 74.3312 1146.06 77.9011 1149.02 80.7388C1152.07 83.5169 1156.2 85.4572 1161.43 86.5598C1162.94 86.8794 1164.45 87.0019 1165.97 86.9272C1167.49 86.8525 1168.77 86.5705 1169.83 86.0813L1172.7 72.4618L1159.31 69.6333L1162.81 53.0628L1194.25 59.7026L1185.91 99.1993C1182.36 101.376 1177.88 102.958 1172.46 103.946C1167.11 104.95 1161.48 104.829 1155.58 103.583Z" fill="#00896C"/>
<path d="M1069.94 115.093C1064.95 114.473 1060.42 113.325 1056.34 111.649C1052.33 110.059 1049.25 107.884 1047.1 105.123C1044.94 102.438 1044.1 99.1394 1044.59 95.2255C1044.92 92.5395 1046 90.1792 1047.81 88.1444C1049.61 86.1864 1052.14 84.6308 1055.4 83.4776L1055.47 82.902C1053.93 81.541 1052.69 79.9064 1051.76 77.9982C1050.84 76.0133 1050.55 73.6394 1050.89 70.8767C1051.18 68.5744 1052.14 66.4348 1053.79 64.4577C1055.45 62.4039 1057.44 60.7815 1059.77 59.5905L1059.83 59.13C1057.65 57.2227 1055.82 54.6964 1054.34 51.5512C1052.95 48.3389 1052.49 44.8141 1052.97 40.977C1053.63 35.6817 1055.48 31.4312 1058.53 28.2254C1061.58 25.0196 1065.28 22.8302 1069.63 21.657C1074.07 20.4166 1078.63 20.0874 1083.32 20.6694C1085.23 20.9079 1087.06 21.2904 1088.78 21.8168C1090.52 22.2664 1092.08 22.8505 1093.47 23.5689L1117.53 26.5598L1115.69 41.4095L1105.67 40.1645C1106.02 41.1427 1106.25 42.3799 1106.38 43.8761C1106.59 45.3052 1106.6 46.7872 1106.41 48.322C1105.78 53.387 1104.07 57.4216 1101.28 60.4258C1098.58 63.3628 1095.14 65.3507 1090.96 66.3894C1086.85 67.4377 1082.38 67.6613 1077.55 67.0603C1076.47 66.9267 1075.29 66.7021 1074.01 66.3864C1072.73 65.994 1071.39 65.5153 1069.98 64.9504C1069.2 65.5552 1068.58 66.1407 1068.12 66.707C1067.74 67.2827 1067.48 68.1462 1067.33 69.2973C1067.15 70.7554 1067.74 71.9588 1069.11 72.9075C1070.48 73.7795 1072.93 74.4349 1076.46 74.8737L1086.82 76.1617C1094.88 77.1634 1100.93 79.2792 1104.97 82.509C1109.09 85.6715 1110.79 90.2074 1110.06 96.1166C1109.48 100.721 1107.44 104.598 1103.93 107.746C1100.5 110.904 1095.86 113.133 1090.01 114.432C1084.23 115.817 1077.54 116.037 1069.94 115.093ZM1079.08 54.7431C1080.69 54.9435 1082.16 54.7362 1083.48 54.1215C1084.88 53.5162 1086.02 52.4891 1086.9 51.0401C1087.86 49.6007 1088.48 47.7298 1088.77 45.4275C1089.05 43.202 1088.89 41.3125 1088.31 39.759C1087.8 38.215 1086.94 36.9782 1085.73 36.0486C1084.6 35.1285 1083.22 34.5683 1081.61 34.368C1080.08 34.1771 1078.61 34.3844 1077.21 34.9896C1075.89 35.6044 1074.75 36.5931 1073.8 37.9558C1072.93 39.3281 1072.36 41.127 1072.08 43.3525C1071.79 45.6548 1071.9 47.6163 1072.4 49.237C1072.98 50.8673 1073.83 52.1424 1074.96 53.0625C1076.17 53.9921 1077.54 54.5523 1079.08 54.7431ZM1074.75 102.716C1077.59 103.069 1080.09 103.029 1082.25 102.596C1084.47 102.249 1086.27 101.614 1087.63 100.693C1088.99 99.771 1089.76 98.6194 1089.93 97.2381C1090.18 95.2427 1089.49 93.8332 1087.88 93.0094C1086.34 92.2718 1084.03 91.7122 1080.96 91.3306L1074.74 90.5578C1072.36 90.2621 1070.49 89.9516 1069.13 89.6264C1067.76 89.3779 1066.56 89.0334 1065.52 88.5929C1064.41 89.3898 1063.53 90.2153 1062.87 91.0694C1062.29 92.0098 1061.93 93.0172 1061.8 94.0916C1061.51 96.3939 1062.56 98.278 1064.95 99.744C1067.34 101.21 1070.61 102.201 1074.75 102.716Z" fill="#00896C"/>
<path d="M1005.26 109.649C1000.24 109.409 995.637 108.608 991.444 107.247C987.324 105.966 984.088 104.03 981.734 101.44C979.377 98.9275 978.292 95.7013 978.481 91.7618C978.61 89.0582 979.5 86.6233 981.152 84.4571C982.801 82.3681 985.207 80.625 988.37 79.2278L988.398 78.6485C986.754 77.4086 985.395 75.8726 984.322 74.0406C983.251 72.1313 982.783 69.7862 982.916 67.0054C983.027 64.688 983.829 62.4812 985.323 60.3848C986.82 58.2112 988.686 56.4422 990.919 55.078L990.941 54.6145C988.624 52.8779 986.609 50.4976 984.895 47.4736C983.262 44.3761 982.538 40.8962 982.723 37.034C982.978 31.7041 984.503 27.3253 987.3 23.8976C990.096 20.4699 993.62 18.006 997.873 16.5061C1002.21 14.9326 1006.73 14.2584 1011.44 14.4837C1013.37 14.5761 1015.22 14.8192 1016.98 15.2131C1018.75 15.5298 1020.35 15.9936 1021.79 16.6045L1046.01 17.7623L1045.29 32.7092L1035.21 32.2272C1035.63 33.1763 1035.96 34.3921 1036.2 35.8745C1036.52 37.2834 1036.64 38.7603 1036.57 40.3052C1036.32 45.4034 1034.93 49.556 1032.37 52.763C1029.9 55.8965 1026.62 58.1397 1022.53 59.4926C1018.51 60.8491 1014.07 61.4111 1009.21 61.1784C1008.13 61.1267 1006.93 60.9922 1005.63 60.7749C1004.33 60.4804 1002.95 60.1049 1001.5 59.6485C1000.77 60.3105 1000.2 60.9412 999.784 61.5407C999.446 62.1439 999.249 63.0249 999.193 64.1835C999.123 65.6512 999.803 66.8063 1001.23 67.6489C1002.67 68.4143 1005.16 68.882 1008.72 69.0518L1019.14 69.5504C1027.25 69.9382 1033.45 71.5892 1037.72 74.5032C1042.08 77.3438 1044.11 81.738 1043.83 87.6859C1043.6 92.3206 1041.86 96.3407 1038.6 99.7462C1035.42 103.155 1030.96 105.729 1025.23 107.468C1019.57 109.288 1012.91 110.015 1005.26 109.649ZM1009.8 48.7805C1011.42 48.8581 1012.87 48.5402 1014.14 47.8268C1015.49 47.1172 1016.55 46.0065 1017.32 44.4949C1018.17 42.9869 1018.65 41.0742 1018.76 38.7569C1018.87 36.5168 1018.57 34.6444 1017.87 33.1398C1017.24 31.6389 1016.29 30.4709 1015.01 29.6356C1013.81 28.8041 1012.4 28.3495 1010.78 28.272C1009.24 28.1981 1007.79 28.516 1006.44 29.2257C1005.17 29.939 1004.11 31.0111 1003.27 32.4418C1002.5 33.8762 1002.06 35.7135 1001.96 37.9536C1001.85 40.271 1002.1 42.2187 1002.72 43.7968C1003.42 45.3787 1004.37 46.5854 1005.57 47.4169C1006.85 48.2521 1008.26 48.7067 1009.8 48.7805ZM1009.12 96.9432C1011.98 97.0798 1014.47 96.8504 1016.59 96.2549C1018.78 95.7404 1020.52 94.9719 1021.81 93.9496C1023.1 92.9272 1023.77 91.7209 1023.84 90.3305C1023.94 88.3221 1023.15 86.9683 1021.48 86.2691C1019.88 85.6508 1017.54 85.2678 1014.45 85.1201L1008.19 84.8209C1005.8 84.7064 1003.91 84.5387 1002.53 84.3177C1001.14 84.174 999.914 83.9218 998.848 83.5611C997.799 84.4401 996.982 85.3301 996.397 86.2312C995.886 87.2132 995.604 88.2449 995.552 89.3263C995.442 91.6437 996.633 93.4426 999.127 94.7232C1001.62 96.0038 1004.95 96.7437 1009.12 96.9432Z" fill="#00896C"/>
<path d="M931.511 83.3396C924.245 83.5565 918.917 81.3171 915.527 76.6215C912.135 71.8486 910.317 65.3653 910.072 57.1716L908.854 16.3578L929.493 15.7417L930.635 54.0046C930.769 58.488 931.479 61.5615 932.767 63.2251C934.052 64.8115 936.009 65.5654 938.637 65.487C940.956 65.4178 942.912 64.8565 944.505 63.8031C946.174 62.6702 947.822 60.8802 949.451 58.4332L948.16 15.1844L968.799 14.5684L970.769 80.543L953.956 81.0448L952.179 72.0459L951.715 72.0597C949.107 75.387 946.208 78.0654 943.019 80.0947C939.83 82.1241 935.994 83.2057 931.511 83.3396Z" fill="#00896C"/>
<path d="M850.686 88.1279L841.572 2.18979L862.22 0L869.499 68.6351L902.951 65.0874L904.786 82.3904L850.686 88.1279Z" fill="#00896C"/>
<path d="M1797 957C1797 1416.5 1424.5 1789 965 1789C505.499 1789 133 1416.5 133 957C133 497.499 505.499 125 965 125C1424.5 125 1797 497.499 1797 957Z" fill="white"/>
</svg>
