<svg width="114" height="52" viewBox="0 0 114 52" fill="none" xmlns="http://www.w3.org/2000/svg">
<ellipse cx="68.3883" cy="19.808" rx="25.2723" ry="19.808" fill="white"/>
<ellipse cx="88.4239" cy="28.9152" rx="25.2723" ry="19.808" fill="white"/>
<ellipse cx="68.3885" cy="36.884" rx="17.9866" ry="14.1161" fill="white"/>
<ellipse cx="49.0357" cy="27.0937" rx="20.0357" ry="17.9866" fill="white"/>
<mask id="mask0_373_76" style="mask-type:alpha" maskUnits="userSpaceOnUse" x="0" y="27" width="63" height="25">
<ellipse cx="29.2981" cy="36.5747" rx="18.7984" ry="9.57473" fill="white"/>
<ellipse cx="44.2017" cy="40.9769" rx="18.7984" ry="9.57473" fill="white"/>
<ellipse cx="29.2985" cy="44.8288" rx="13.379" ry="6.82337" fill="white"/>
<ellipse cx="14.9032" cy="40.0965" rx="14.9032" ry="8.69429" fill="white"/>
</mask>
<g mask="url(#mask0_373_76)">
<path d="M5.98769 28.3125C5.98769 29.0034 5.42757 29.5636 4.73664 29.5636C4.04571 29.5636 3.4856 29.0034 3.4856 28.3125C3.4856 27.6216 4.04571 27.0615 4.73664 27.0615C5.42757 27.0615 5.98769 27.6216 5.98769 28.3125Z" fill="#9DD3DB"/>
<path d="M1.81728 28.3125C1.81728 29.0034 1.25716 29.5636 0.566231 29.5636C-0.124702 29.5636 -0.684814 29.0034 -0.684814 28.3125C-0.684814 27.6216 -0.124702 27.0615 0.566231 27.0615C1.25716 27.0615 1.81728 27.6216 1.81728 28.3125Z" fill="#9DD3DB"/>
<path d="M14.3278 28.3125C14.3278 29.0034 13.7677 29.5636 13.0767 29.5636C12.3858 29.5636 11.8257 29.0034 11.8257 28.3125C11.8257 27.6216 12.3858 27.0615 13.0767 27.0615C13.7677 27.0615 14.3278 27.6216 14.3278 28.3125Z" fill="#9DD3DB"/>
<path d="M10.1576 28.3125C10.1576 29.0034 9.5975 29.5636 8.90656 29.5636C8.21563 29.5636 7.65552 29.0034 7.65552 28.3125C7.65552 27.6216 8.21563 27.0615 8.90656 27.0615C9.5975 27.0615 10.1576 27.6216 10.1576 28.3125Z" fill="#9DD3DB"/>
<path d="M1.81728 32.4827C1.81728 33.1736 1.25716 33.7337 0.566231 33.7337C-0.124702 33.7337 -0.684814 33.1736 -0.684814 32.4827C-0.684814 31.7917 -0.124702 31.2316 0.566231 31.2316C1.25716 31.2316 1.81728 31.7917 1.81728 32.4827Z" fill="#9DD3DB"/>
<path d="M5.98769 36.6528C5.98769 37.3437 5.42757 37.9038 4.73664 37.9038C4.04571 37.9038 3.4856 37.3437 3.4856 36.6528C3.4856 35.9618 4.04571 35.4017 4.73664 35.4017C5.42757 35.4017 5.98769 35.9618 5.98769 36.6528Z" fill="#9DD3DB"/>
<path d="M14.3278 36.6528C14.3278 37.3437 13.7677 37.9038 13.0767 37.9038C12.3858 37.9038 11.8257 37.3437 11.8257 36.6528C11.8257 35.9618 12.3858 35.4017 13.0767 35.4017C13.7677 35.4017 14.3278 35.9618 14.3278 36.6528Z" fill="#9DD3DB"/>
<path d="M10.1576 36.6528C10.1576 37.3437 9.5975 37.9038 8.90656 37.9038C8.21563 37.9038 7.65552 37.3437 7.65552 36.6528C7.65552 35.9618 8.21563 35.4017 8.90656 35.4017C9.5975 35.4017 10.1576 35.9618 10.1576 36.6528Z" fill="#9DD3DB"/>
<path d="M14.3278 32.4827C14.3278 33.1736 13.7677 33.7337 13.0767 33.7337C12.3858 33.7337 11.8257 33.1736 11.8257 32.4827C11.8257 31.7917 12.3858 31.2316 13.0767 31.2316C13.7677 31.2316 14.3278 31.7917 14.3278 32.4827Z" fill="#9DD3DB"/>
<path d="M31.0084 28.3125C31.0084 29.0034 30.4483 29.5636 29.7574 29.5636C29.0665 29.5636 28.5063 29.0034 28.5063 28.3125C28.5063 27.6216 29.0665 27.0615 29.7574 27.0615C30.4483 27.0615 31.0084 27.6216 31.0084 28.3125Z" fill="#9DD3DB"/>
<path d="M26.8383 28.3125C26.8383 29.0034 26.2782 29.5636 25.5872 29.5636C24.8963 29.5636 24.3362 29.0034 24.3362 28.3125C24.3362 27.6216 24.8963 27.0615 25.5872 27.0615C26.2782 27.0615 26.8383 27.6216 26.8383 28.3125Z" fill="#9DD3DB"/>
<path d="M18.4977 32.4827C18.4977 33.1736 17.9376 33.7337 17.2467 33.7337C16.5557 33.7337 15.9956 33.1736 15.9956 32.4827C15.9956 31.7917 16.5557 31.2316 17.2467 31.2316C17.9376 31.2316 18.4977 31.7917 18.4977 32.4827Z" fill="#9DD3DB"/>
<path d="M22.6681 36.6528C22.6681 37.3437 22.108 37.9038 21.4171 37.9038C20.7261 37.9038 20.166 37.3437 20.166 36.6528C20.166 35.9618 20.7261 35.4017 21.4171 35.4017C22.108 35.4017 22.6681 35.9618 22.6681 36.6528Z" fill="#9DD3DB"/>
<path d="M18.4977 36.6528C18.4977 37.3437 17.9376 37.9038 17.2467 37.9038C16.5557 37.9038 15.9956 37.3437 15.9956 36.6528C15.9956 35.9618 16.5557 35.4017 17.2467 35.4017C17.9376 35.4017 18.4977 35.9618 18.4977 36.6528Z" fill="#9DD3DB"/>
<path d="M22.6681 32.4827C22.6681 33.1736 22.108 33.7337 21.4171 33.7337C20.7261 33.7337 20.166 33.1736 20.166 32.4827C20.166 31.7917 20.7261 31.2316 21.4171 31.2316C22.108 31.2316 22.6681 31.7917 22.6681 32.4827Z" fill="#9DD3DB"/>
<path d="M26.8383 32.4827C26.8383 33.1736 26.2782 33.7337 25.5872 33.7337C24.8963 33.7337 24.3362 33.1736 24.3362 32.4827C24.3362 31.7917 24.8963 31.2316 25.5872 31.2316C26.2782 31.2316 26.8383 31.7917 26.8383 32.4827Z" fill="#9DD3DB"/>
<path d="M31.0084 36.6528C31.0084 37.3437 30.4483 37.9038 29.7574 37.9038C29.0665 37.9038 28.5063 37.3437 28.5063 36.6528C28.5063 35.9618 29.0665 35.4017 29.7574 35.4017C30.4483 35.4017 31.0084 35.9618 31.0084 36.6528Z" fill="#9DD3DB"/>
<path d="M26.8383 36.6528C26.8383 37.3437 26.2782 37.9038 25.5872 37.9038C24.8963 37.9038 24.3362 37.3437 24.3362 36.6528C24.3362 35.9618 24.8963 35.4017 25.5872 35.4017C26.2782 35.4017 26.8383 35.9618 26.8383 36.6528Z" fill="#9DD3DB"/>
<path d="M31.0084 32.4827C31.0084 33.1736 30.4483 33.7337 29.7574 33.7337C29.0665 33.7337 28.5063 33.1736 28.5063 32.4827C28.5063 31.7917 29.0665 31.2316 29.7574 31.2316C30.4483 31.2316 31.0084 31.7917 31.0084 32.4827Z" fill="#9DD3DB"/>
<path d="M1.81728 40.8229C1.81728 41.5139 1.25716 42.074 0.566231 42.074C-0.124702 42.074 -0.684814 41.5139 -0.684814 40.8229C-0.684814 40.132 -0.124702 39.5719 0.566231 39.5719C1.25716 39.5719 1.81728 40.132 1.81728 40.8229Z" fill="#9DD3DB"/>
<path d="M5.98769 44.9931C5.98769 45.684 5.42757 46.2442 4.73664 46.2442C4.04571 46.2442 3.4856 45.684 3.4856 44.9931C3.4856 44.3022 4.04571 43.7421 4.73664 43.7421C5.42757 43.7421 5.98769 44.3022 5.98769 44.9931Z" fill="#9DD3DB"/>
<path d="M1.81728 44.9931C1.81728 45.684 1.25716 46.2442 0.566231 46.2442C-0.124702 46.2442 -0.684814 45.684 -0.684814 44.9931C-0.684814 44.3022 -0.124702 43.7421 0.566231 43.7421C1.25716 43.7421 1.81728 44.3022 1.81728 44.9931Z" fill="#9DD3DB"/>
<path d="M5.98769 40.8229C5.98769 41.5139 5.42757 42.074 4.73664 42.074C4.04571 42.074 3.4856 41.5139 3.4856 40.8229C3.4856 40.132 4.04571 39.5719 4.73664 39.5719C5.42757 39.5719 5.98769 40.132 5.98769 40.8229Z" fill="#9DD3DB"/>
<path d="M10.1576 40.8229C10.1576 41.5139 9.5975 42.074 8.90656 42.074C8.21563 42.074 7.65552 41.5139 7.65552 40.8229C7.65552 40.132 8.21563 39.5719 8.90656 39.5719C9.5975 39.5719 10.1576 40.132 10.1576 40.8229Z" fill="#9DD3DB"/>
<path d="M14.3278 44.9931C14.3278 45.684 13.7677 46.2442 13.0767 46.2442C12.3858 46.2442 11.8257 45.684 11.8257 44.9931C11.8257 44.3022 12.3858 43.7421 13.0767 43.7421C13.7677 43.7421 14.3278 44.3022 14.3278 44.9931Z" fill="#9DD3DB"/>
<path d="M10.1576 44.9931C10.1576 45.684 9.5975 46.2442 8.90656 46.2442C8.21563 46.2442 7.65552 45.684 7.65552 44.9931C7.65552 44.3022 8.21563 43.7421 8.90656 43.7421C9.5975 43.7421 10.1576 44.3022 10.1576 44.9931Z" fill="#9DD3DB"/>
<path d="M14.3278 40.8229C14.3278 41.5139 13.7677 42.074 13.0767 42.074C12.3858 42.074 11.8257 41.5139 11.8257 40.8229C11.8257 40.132 12.3858 39.5719 13.0767 39.5719C13.7677 39.5719 14.3278 40.132 14.3278 40.8229Z" fill="#9DD3DB"/>
<path d="M1.81728 49.1632C1.81728 49.8541 1.25716 50.4143 0.566231 50.4143C-0.124702 50.4143 -0.684814 49.8541 -0.684814 49.1632C-0.684814 48.4723 -0.124702 47.9122 0.566231 47.9122C1.25716 47.9122 1.81728 48.4723 1.81728 49.1632Z" fill="#9DD3DB"/>
<path d="M5.98769 49.1632C5.98769 49.8541 5.42757 50.4143 4.73664 50.4143C4.04571 50.4143 3.4856 49.8541 3.4856 49.1632C3.4856 48.4723 4.04571 47.9122 4.73664 47.9122C5.42757 47.9122 5.98769 48.4723 5.98769 49.1632Z" fill="#9DD3DB"/>
<path d="M18.4977 40.8229C18.4977 41.5139 17.9376 42.074 17.2467 42.074C16.5557 42.074 15.9956 41.5139 15.9956 40.8229C15.9956 40.132 16.5557 39.5719 17.2467 39.5719C17.9376 39.5719 18.4977 40.132 18.4977 40.8229Z" fill="#9DD3DB"/>
<path d="M22.6681 44.9931C22.6681 45.684 22.108 46.2442 21.4171 46.2442C20.7261 46.2442 20.166 45.684 20.166 44.9931C20.166 44.3022 20.7261 43.7421 21.4171 43.7421C22.108 43.7421 22.6681 44.3022 22.6681 44.9931Z" fill="#9DD3DB"/>
<path d="M18.4977 44.9931C18.4977 45.684 17.9376 46.2442 17.2467 46.2442C16.5557 46.2442 15.9956 45.684 15.9956 44.9931C15.9956 44.3022 16.5557 43.7421 17.2467 43.7421C17.9376 43.7421 18.4977 44.3022 18.4977 44.9931Z" fill="#9DD3DB"/>
<path d="M22.6681 40.8229C22.6681 41.5139 22.108 42.074 21.4171 42.074C20.7261 42.074 20.166 41.5139 20.166 40.8229C20.166 40.132 20.7261 39.5719 21.4171 39.5719C22.108 39.5719 22.6681 40.132 22.6681 40.8229Z" fill="#9DD3DB"/>
<path d="M26.8383 40.8229C26.8383 41.5139 26.2782 42.074 25.5872 42.074C24.8963 42.074 24.3362 41.5139 24.3362 40.8229C24.3362 40.132 24.8963 39.5719 25.5872 39.5719C26.2782 39.5719 26.8383 40.132 26.8383 40.8229Z" fill="#9DD3DB"/>
<path d="M31.0084 44.9931C31.0084 45.684 30.4483 46.2442 29.7574 46.2442C29.0665 46.2442 28.5063 45.684 28.5063 44.9931C28.5063 44.3022 29.0665 43.7421 29.7574 43.7421C30.4483 43.7421 31.0084 44.3022 31.0084 44.9931Z" fill="#9DD3DB"/>
<path d="M26.8383 44.9931C26.8383 45.684 26.2782 46.2442 25.5872 46.2442C24.8963 46.2442 24.3362 45.684 24.3362 44.9931C24.3362 44.3022 24.8963 43.7421 25.5872 43.7421C26.2782 43.7421 26.8383 44.3022 26.8383 44.9931Z" fill="#9DD3DB"/>
<path d="M31.0084 40.8229C31.0084 41.5139 30.4483 42.074 29.7574 42.074C29.0665 42.074 28.5063 41.5139 28.5063 40.8229C28.5063 40.132 29.0665 39.5719 29.7574 39.5719C30.4483 39.5719 31.0084 40.132 31.0084 40.8229Z" fill="#9DD3DB"/>
<path d="M22.6681 49.1632C22.6681 49.8541 22.108 50.4143 21.4171 50.4143C20.7261 50.4143 20.166 49.8541 20.166 49.1632C20.166 48.4723 20.7261 47.9122 21.4171 47.9122C22.108 47.9122 22.6681 48.4723 22.6681 49.1632Z" fill="#9DD3DB"/>
<path d="M26.8383 49.1632C26.8383 49.8541 26.2782 50.4143 25.5872 50.4143C24.8963 50.4143 24.3362 49.8541 24.3362 49.1632C24.3362 48.4723 24.8963 47.9122 25.5872 47.9122C26.2782 47.9122 26.8383 48.4723 26.8383 49.1632Z" fill="#9DD3DB"/>
<path d="M31.0084 49.1632C31.0084 49.8541 30.4483 50.4143 29.7574 50.4143C29.0665 50.4143 28.5063 49.8541 28.5063 49.1632C28.5063 48.4723 29.0665 47.9122 29.7574 47.9122C30.4483 47.9122 31.0084 48.4723 31.0084 49.1632Z" fill="#9DD3DB"/>
<path d="M35.1786 28.3125C35.1786 29.0034 34.6185 29.5636 33.9276 29.5636C33.2366 29.5636 32.6765 29.0034 32.6765 28.3125C32.6765 27.6216 33.2366 27.0615 33.9276 27.0615C34.6185 27.0615 35.1786 27.6216 35.1786 28.3125Z" fill="#9DD3DB"/>
<path d="M47.6891 28.3125C47.6891 29.0034 47.129 29.5636 46.4381 29.5636C45.7471 29.5636 45.187 29.0034 45.187 28.3125C45.187 27.6216 45.7471 27.0615 46.4381 27.0615C47.129 27.0615 47.6891 27.6216 47.6891 28.3125Z" fill="#9DD3DB"/>
<path d="M43.5189 28.3125C43.5189 29.0034 42.9588 29.5636 42.2679 29.5636C41.577 29.5636 41.0168 29.0034 41.0168 28.3125C41.0168 27.6216 41.577 27.0615 42.2679 27.0615C42.9588 27.0615 43.5189 27.6216 43.5189 28.3125Z" fill="#9DD3DB"/>
<path d="M35.1786 32.4827C35.1786 33.1736 34.6185 33.7337 33.9276 33.7337C33.2366 33.7337 32.6765 33.1736 32.6765 32.4827C32.6765 31.7917 33.2366 31.2316 33.9276 31.2316C34.6185 31.2316 35.1786 31.7917 35.1786 32.4827Z" fill="#9DD3DB"/>
<path d="M39.3488 36.6528C39.3488 37.3437 38.7887 37.9038 38.0977 37.9038C37.4068 37.9038 36.8467 37.3437 36.8467 36.6528C36.8467 35.9618 37.4068 35.4017 38.0977 35.4017C38.7887 35.4017 39.3488 35.9618 39.3488 36.6528Z" fill="#9DD3DB"/>
<path d="M35.1786 36.6528C35.1786 37.3437 34.6185 37.9038 33.9276 37.9038C33.2366 37.9038 32.6765 37.3437 32.6765 36.6528C32.6765 35.9618 33.2366 35.4017 33.9276 35.4017C34.6185 35.4017 35.1786 35.9618 35.1786 36.6528Z" fill="#9DD3DB"/>
<path d="M39.3488 32.4827C39.3488 33.1736 38.7887 33.7337 38.0977 33.7337C37.4068 33.7337 36.8467 33.1736 36.8467 32.4827C36.8467 31.7917 37.4068 31.2316 38.0977 31.2316C38.7887 31.2316 39.3488 31.7917 39.3488 32.4827Z" fill="#9DD3DB"/>
<path d="M43.5189 32.4827C43.5189 33.1736 42.9588 33.7337 42.2679 33.7337C41.577 33.7337 41.0168 33.1736 41.0168 32.4827C41.0168 31.7917 41.577 31.2316 42.2679 31.2316C42.9588 31.2316 43.5189 31.7917 43.5189 32.4827Z" fill="#9DD3DB"/>
<path d="M47.6891 36.6528C47.6891 37.3437 47.129 37.9038 46.4381 37.9038C45.7471 37.9038 45.187 37.3437 45.187 36.6528C45.187 35.9618 45.7471 35.4017 46.4381 35.4017C47.129 35.4017 47.6891 35.9618 47.6891 36.6528Z" fill="#9DD3DB"/>
<path d="M43.5189 36.6528C43.5189 37.3437 42.9588 37.9038 42.2679 37.9038C41.577 37.9038 41.0168 37.3437 41.0168 36.6528C41.0168 35.9618 41.577 35.4017 42.2679 35.4017C42.9588 35.4017 43.5189 35.9618 43.5189 36.6528Z" fill="#9DD3DB"/>
<path d="M47.6891 32.4827C47.6891 33.1736 47.129 33.7337 46.4381 33.7337C45.7471 33.7337 45.187 33.1736 45.187 32.4827C45.187 31.7917 45.7471 31.2316 46.4381 31.2316C47.129 31.2316 47.6891 31.7917 47.6891 32.4827Z" fill="#9DD3DB"/>
<path d="M56.0294 28.3125C56.0294 29.0034 55.4693 29.5636 54.7784 29.5636C54.0875 29.5636 53.5273 29.0034 53.5273 28.3125C53.5273 27.6216 54.0875 27.0615 54.7784 27.0615C55.4693 27.0615 56.0294 27.6216 56.0294 28.3125Z" fill="#9DD3DB"/>
<path d="M51.8593 28.3125C51.8593 29.0034 51.2992 29.5636 50.6082 29.5636C49.9173 29.5636 49.3572 29.0034 49.3572 28.3125C49.3572 27.6216 49.9173 27.0615 50.6082 27.0615C51.2992 27.0615 51.8593 27.6216 51.8593 28.3125Z" fill="#9DD3DB"/>
<path d="M64.3695 28.3125C64.3695 29.0034 63.8094 29.5636 63.1185 29.5636C62.4275 29.5636 61.8674 29.0034 61.8674 28.3125C61.8674 27.6216 62.4275 27.0615 63.1185 27.0615C63.8094 27.0615 64.3695 27.6216 64.3695 28.3125Z" fill="#9DD3DB"/>
<path d="M60.1994 28.3125C60.1994 29.0034 59.6392 29.5636 58.9483 29.5636C58.2574 29.5636 57.6973 29.0034 57.6973 28.3125C57.6973 27.6216 58.2574 27.0615 58.9483 27.0615C59.6392 27.0615 60.1994 27.6216 60.1994 28.3125Z" fill="#9DD3DB"/>
<path d="M51.8593 32.4827C51.8593 33.1736 51.2992 33.7337 50.6082 33.7337C49.9173 33.7337 49.3572 33.1736 49.3572 32.4827C49.3572 31.7917 49.9173 31.2316 50.6082 31.2316C51.2992 31.2316 51.8593 31.7917 51.8593 32.4827Z" fill="#9DD3DB"/>
<path d="M56.0294 36.6528C56.0294 37.3437 55.4693 37.9038 54.7784 37.9038C54.0875 37.9038 53.5273 37.3437 53.5273 36.6528C53.5273 35.9618 54.0875 35.4017 54.7784 35.4017C55.4693 35.4017 56.0294 35.9618 56.0294 36.6528Z" fill="#9DD3DB"/>
<path d="M51.8593 36.6528C51.8593 37.3437 51.2992 37.9038 50.6082 37.9038C49.9173 37.9038 49.3572 37.3437 49.3572 36.6528C49.3572 35.9618 49.9173 35.4017 50.6082 35.4017C51.2992 35.4017 51.8593 35.9618 51.8593 36.6528Z" fill="#9DD3DB"/>
<path d="M60.1994 32.4827C60.1994 33.1736 59.6392 33.7337 58.9483 33.7337C58.2574 33.7337 57.6973 33.1736 57.6973 32.4827C57.6973 31.7917 58.2574 31.2316 58.9483 31.2316C59.6392 31.2316 60.1994 31.7917 60.1994 32.4827Z" fill="#9DD3DB"/>
<path d="M64.3695 36.6528C64.3695 37.3437 63.8094 37.9038 63.1185 37.9038C62.4275 37.9038 61.8674 37.3437 61.8674 36.6528C61.8674 35.9618 62.4275 35.4017 63.1185 35.4017C63.8094 35.4017 64.3695 35.9618 64.3695 36.6528Z" fill="#9DD3DB"/>
<path d="M60.1994 36.6528C60.1994 37.3437 59.6392 37.9038 58.9483 37.9038C58.2574 37.9038 57.6973 37.3437 57.6973 36.6528C57.6973 35.9618 58.2574 35.4017 58.9483 35.4017C59.6392 35.4017 60.1994 35.9618 60.1994 36.6528Z" fill="#9DD3DB"/>
<path d="M64.3695 32.4827C64.3695 33.1736 63.8094 33.7337 63.1185 33.7337C62.4275 33.7337 61.8674 33.1736 61.8674 32.4827C61.8674 31.7917 62.4275 31.2316 63.1185 31.2316C63.8094 31.2316 64.3695 31.7917 64.3695 32.4827Z" fill="#9DD3DB"/>
<path d="M35.1786 40.8229C35.1786 41.5139 34.6185 42.074 33.9276 42.074C33.2366 42.074 32.6765 41.5139 32.6765 40.8229C32.6765 40.132 33.2366 39.5719 33.9276 39.5719C34.6185 39.5719 35.1786 40.132 35.1786 40.8229Z" fill="#9DD3DB"/>
<path d="M39.3488 44.9931C39.3488 45.684 38.7887 46.2442 38.0977 46.2442C37.4068 46.2442 36.8467 45.684 36.8467 44.9931C36.8467 44.3022 37.4068 43.7421 38.0977 43.7421C38.7887 43.7421 39.3488 44.3022 39.3488 44.9931Z" fill="#9DD3DB"/>
<path d="M35.1786 44.9931C35.1786 45.684 34.6185 46.2442 33.9276 46.2442C33.2366 46.2442 32.6765 45.684 32.6765 44.9931C32.6765 44.3022 33.2366 43.7421 33.9276 43.7421C34.6185 43.7421 35.1786 44.3022 35.1786 44.9931Z" fill="#9DD3DB"/>
<path d="M39.3488 40.8229C39.3488 41.5139 38.7887 42.074 38.0977 42.074C37.4068 42.074 36.8467 41.5139 36.8467 40.8229C36.8467 40.132 37.4068 39.5719 38.0977 39.5719C38.7887 39.5719 39.3488 40.132 39.3488 40.8229Z" fill="#9DD3DB"/>
<path d="M43.5189 40.8229C43.5189 41.5139 42.9588 42.074 42.2679 42.074C41.577 42.074 41.0168 41.5139 41.0168 40.8229C41.0168 40.132 41.577 39.5719 42.2679 39.5719C42.9588 39.5719 43.5189 40.132 43.5189 40.8229Z" fill="#9DD3DB"/>
<path d="M47.6891 44.9931C47.6891 45.684 47.129 46.2442 46.4381 46.2442C45.7471 46.2442 45.187 45.684 45.187 44.9931C45.187 44.3022 45.7471 43.7421 46.4381 43.7421C47.129 43.7421 47.6891 44.3022 47.6891 44.9931Z" fill="#9DD3DB"/>
<path d="M43.5189 44.9931C43.5189 45.684 42.9588 46.2442 42.2679 46.2442C41.577 46.2442 41.0168 45.684 41.0168 44.9931C41.0168 44.3022 41.577 43.7421 42.2679 43.7421C42.9588 43.7421 43.5189 44.3022 43.5189 44.9931Z" fill="#9DD3DB"/>
<path d="M47.6891 40.8229C47.6891 41.5139 47.129 42.074 46.4381 42.074C45.7471 42.074 45.187 41.5139 45.187 40.8229C45.187 40.132 45.7471 39.5719 46.4381 39.5719C47.129 39.5719 47.6891 40.132 47.6891 40.8229Z" fill="#9DD3DB"/>
<path d="M35.1786 49.1632C35.1786 49.8541 34.6185 50.4143 33.9276 50.4143C33.2366 50.4143 32.6765 49.8541 32.6765 49.1632C32.6765 48.4723 33.2366 47.9122 33.9276 47.9122C34.6185 47.9122 35.1786 48.4723 35.1786 49.1632Z" fill="#9DD3DB"/>
<path d="M39.3488 49.1632C39.3488 49.8541 38.7887 50.4143 38.0977 50.4143C37.4068 50.4143 36.8467 49.8541 36.8467 49.1632C36.8467 48.4723 37.4068 47.9122 38.0977 47.9122C38.7887 47.9122 39.3488 48.4723 39.3488 49.1632Z" fill="#9DD3DB"/>
<path d="M43.5189 49.1632C43.5189 49.8541 42.9588 50.4143 42.2679 50.4143C41.577 50.4143 41.0168 49.8541 41.0168 49.1632C41.0168 48.4723 41.577 47.9122 42.2679 47.9122C42.9588 47.9122 43.5189 48.4723 43.5189 49.1632Z" fill="#9DD3DB"/>
<path d="M47.6891 49.1632C47.6891 49.8541 47.129 50.4143 46.4381 50.4143C45.7471 50.4143 45.187 49.8541 45.187 49.1632C45.187 48.4723 45.7471 47.9122 46.4381 47.9122C47.129 47.9122 47.6891 48.4723 47.6891 49.1632Z" fill="#9DD3DB"/>
<path d="M51.8593 40.8229C51.8593 41.5139 51.2992 42.074 50.6082 42.074C49.9173 42.074 49.3572 41.5139 49.3572 40.8229C49.3572 40.132 49.9173 39.5719 50.6082 39.5719C51.2992 39.5719 51.8593 40.132 51.8593 40.8229Z" fill="#9DD3DB"/>
<path d="M56.0294 44.9931C56.0294 45.684 55.4693 46.2442 54.7784 46.2442C54.0875 46.2442 53.5273 45.684 53.5273 44.9931C53.5273 44.3022 54.0875 43.7421 54.7784 43.7421C55.4693 43.7421 56.0294 44.3022 56.0294 44.9931Z" fill="#9DD3DB"/>
<path d="M51.8593 44.9931C51.8593 45.684 51.2992 46.2442 50.6082 46.2442C49.9173 46.2442 49.3572 45.684 49.3572 44.9931C49.3572 44.3022 49.9173 43.7421 50.6082 43.7421C51.2992 43.7421 51.8593 44.3022 51.8593 44.9931Z" fill="#9DD3DB"/>
<path d="M56.0294 40.8229C56.0294 41.5139 55.4693 42.074 54.7784 42.074C54.0875 42.074 53.5273 41.5139 53.5273 40.8229C53.5273 40.132 54.0875 39.5719 54.7784 39.5719C55.4693 39.5719 56.0294 40.132 56.0294 40.8229Z" fill="#9DD3DB"/>
<path d="M60.1994 40.8229C60.1994 41.5139 59.6392 42.074 58.9483 42.074C58.2574 42.074 57.6973 41.5139 57.6973 40.8229C57.6973 40.132 58.2574 39.5719 58.9483 39.5719C59.6392 39.5719 60.1994 40.132 60.1994 40.8229Z" fill="#9DD3DB"/>
<path d="M64.3695 44.9931C64.3695 45.684 63.8094 46.2442 63.1185 46.2442C62.4275 46.2442 61.8674 45.684 61.8674 44.9931C61.8674 44.3022 62.4275 43.7421 63.1185 43.7421C63.8094 43.7421 64.3695 44.3022 64.3695 44.9931Z" fill="#9DD3DB"/>
<path d="M60.1994 44.9931C60.1994 45.684 59.6392 46.2442 58.9483 46.2442C58.2574 46.2442 57.6973 45.684 57.6973 44.9931C57.6973 44.3022 58.2574 43.7421 58.9483 43.7421C59.6392 43.7421 60.1994 44.3022 60.1994 44.9931Z" fill="#9DD3DB"/>
<path d="M64.3695 40.8229C64.3695 41.5139 63.8094 42.074 63.1185 42.074C62.4275 42.074 61.8674 41.5139 61.8674 40.8229C61.8674 40.132 62.4275 39.5719 63.1185 39.5719C63.8094 39.5719 64.3695 40.132 64.3695 40.8229Z" fill="#9DD3DB"/>
<path d="M60.1994 49.1632C60.1994 49.8541 59.6392 50.4143 58.9483 50.4143C58.2574 50.4143 57.6973 49.8541 57.6973 49.1632C57.6973 48.4723 58.2574 47.9122 58.9483 47.9122C59.6392 47.9122 60.1994 48.4723 60.1994 49.1632Z" fill="#9DD3DB"/>
<path d="M64.3695 49.1632C64.3695 49.8541 63.8094 50.4143 63.1185 50.4143C62.4275 50.4143 61.8674 49.8541 61.8674 49.1632C61.8674 48.4723 62.4275 47.9122 63.1185 47.9122C63.8094 47.9122 64.3695 48.4723 64.3695 49.1632Z" fill="#9DD3DB"/>
</g>
</svg>
