<svg width="116" height="67" viewBox="0 0 116 67" fill="none" xmlns="http://www.w3.org/2000/svg">
<ellipse cx="42.7849" cy="21.5161" rx="27.4516" ry="21.5161" fill="white"/>
<ellipse cx="64.5483" cy="31.4086" rx="27.4516" ry="21.5161" fill="white"/>
<ellipse cx="42.785" cy="40.0645" rx="19.5376" ry="15.3333" fill="white"/>
<ellipse cx="21.7634" cy="29.4301" rx="21.7634" ry="19.5376" fill="white"/>
<mask id="mask0_373_77" style="mask-type:alpha" maskUnits="userSpaceOnUse" x="3" y="25" width="113" height="42">
<ellipse cx="55.9151" cy="41.3125" rx="32.0269" ry="16.3125" fill="white"/>
<ellipse cx="82.4995" cy="48.5" rx="33.5" ry="16.5" fill="white"/>
<ellipse cx="55.9152" cy="55.375" rx="22.7939" ry="11.625" fill="white"/>
<ellipse cx="30.4995" cy="47.5" rx="26.5" ry="14.5" fill="white"/>
</mask>
<g mask="url(#mask0_373_77)">
<path d="M16.2006 27.2361C16.2006 28.4132 15.2463 29.3675 14.0692 29.3675C12.892 29.3675 11.9377 28.4132 11.9377 27.2361C11.9377 26.0589 12.892 25.1047 14.0692 25.1047C15.2463 25.1047 16.2006 26.0589 16.2006 27.2361Z" fill="#9DD3DB"/>
<path d="M9.09558 27.2361C9.09558 28.4132 8.14132 29.3675 6.96417 29.3675C5.78703 29.3675 4.83276 28.4132 4.83276 27.2361C4.83276 26.0589 5.78703 25.1047 6.96417 25.1047C8.14132 25.1047 9.09558 26.0589 9.09558 27.2361Z" fill="#9DD3DB"/>
<path d="M30.4098 27.2361C30.4098 28.4132 29.4555 29.3675 28.2784 29.3675C27.1012 29.3675 26.147 28.4132 26.147 27.2361C26.147 26.0589 27.1012 25.1047 28.2784 25.1047C29.4555 25.1047 30.4098 26.0589 30.4098 27.2361Z" fill="#9DD3DB"/>
<path d="M23.3051 27.2361C23.3051 28.4132 22.3508 29.3675 21.1736 29.3675C19.9965 29.3675 19.0422 28.4132 19.0422 27.2361C19.0422 26.0589 19.9965 25.1047 21.1736 25.1047C22.3508 25.1047 23.3051 26.0589 23.3051 27.2361Z" fill="#9DD3DB"/>
<path d="M9.09558 34.3408C9.09558 35.518 8.14132 36.4722 6.96417 36.4722C5.78703 36.4722 4.83276 35.518 4.83276 34.3408C4.83276 33.1637 5.78703 32.2094 6.96417 32.2094C8.14132 32.2094 9.09558 33.1637 9.09558 34.3408Z" fill="#9DD3DB"/>
<path d="M16.2006 41.4455C16.2006 42.6226 15.2463 43.5769 14.0692 43.5769C12.892 43.5769 11.9377 42.6226 11.9377 41.4455C11.9377 40.2684 12.892 39.3141 14.0692 39.3141C15.2463 39.3141 16.2006 40.2684 16.2006 41.4455Z" fill="#9DD3DB"/>
<path d="M30.4098 41.4455C30.4098 42.6226 29.4555 43.5769 28.2784 43.5769C27.1012 43.5769 26.147 42.6226 26.147 41.4455C26.147 40.2684 27.1012 39.3141 28.2784 39.3141C29.4555 39.3141 30.4098 40.2684 30.4098 41.4455Z" fill="#9DD3DB"/>
<path d="M23.3051 41.4455C23.3051 42.6226 22.3508 43.5769 21.1736 43.5769C19.9965 43.5769 19.0422 42.6226 19.0422 41.4455C19.0422 40.2684 19.9965 39.3141 21.1736 39.3141C22.3508 39.3141 23.3051 40.2684 23.3051 41.4455Z" fill="#9DD3DB"/>
<path d="M30.4098 34.3408C30.4098 35.518 29.4555 36.4722 28.2784 36.4722C27.1012 36.4722 26.147 35.518 26.147 34.3408C26.147 33.1637 27.1012 32.2094 28.2784 32.2094C29.4555 32.2094 30.4098 33.1637 30.4098 34.3408Z" fill="#9DD3DB"/>
<path d="M58.8285 27.2361C58.8285 28.4132 57.8742 29.3675 56.6971 29.3675C55.5199 29.3675 54.5657 28.4132 54.5657 27.2361C54.5657 26.0589 55.5199 25.1047 56.6971 25.1047C57.8742 25.1047 58.8285 26.0589 58.8285 27.2361Z" fill="#9DD3DB"/>
<path d="M51.724 27.2361C51.724 28.4132 50.7697 29.3675 49.5926 29.3675C48.4154 29.3675 47.4612 28.4132 47.4612 27.2361C47.4612 26.0589 48.4154 25.1047 49.5926 25.1047C50.7697 25.1047 51.724 26.0589 51.724 27.2361Z" fill="#9DD3DB"/>
<path d="M37.5143 34.3408C37.5143 35.518 36.56 36.4722 35.3829 36.4722C34.2057 36.4722 33.2515 35.518 33.2515 34.3408C33.2515 33.1637 34.2057 32.2094 35.3829 32.2094C36.56 32.2094 37.5143 33.1637 37.5143 34.3408Z" fill="#9DD3DB"/>
<path d="M44.6193 41.4455C44.6193 42.6226 43.665 43.5769 42.4879 43.5769C41.3107 43.5769 40.3564 42.6226 40.3564 41.4455C40.3564 40.2684 41.3107 39.3141 42.4879 39.3141C43.665 39.3141 44.6193 40.2684 44.6193 41.4455Z" fill="#9DD3DB"/>
<path d="M37.5143 41.4455C37.5143 42.6226 36.56 43.5769 35.3829 43.5769C34.2057 43.5769 33.2515 42.6226 33.2515 41.4455C33.2515 40.2684 34.2057 39.3141 35.3829 39.3141C36.56 39.3141 37.5143 40.2684 37.5143 41.4455Z" fill="#9DD3DB"/>
<path d="M44.6193 34.3408C44.6193 35.518 43.665 36.4722 42.4879 36.4722C41.3107 36.4722 40.3564 35.518 40.3564 34.3408C40.3564 33.1637 41.3107 32.2094 42.4879 32.2094C43.665 32.2094 44.6193 33.1637 44.6193 34.3408Z" fill="#9DD3DB"/>
<path d="M51.724 34.3408C51.724 35.518 50.7697 36.4722 49.5926 36.4722C48.4154 36.4722 47.4612 35.518 47.4612 34.3408C47.4612 33.1637 48.4154 32.2094 49.5926 32.2094C50.7697 32.2094 51.724 33.1637 51.724 34.3408Z" fill="#9DD3DB"/>
<path d="M58.8285 41.4455C58.8285 42.6226 57.8742 43.5769 56.6971 43.5769C55.5199 43.5769 54.5657 42.6226 54.5657 41.4455C54.5657 40.2684 55.5199 39.3141 56.6971 39.3141C57.8742 39.3141 58.8285 40.2684 58.8285 41.4455Z" fill="#9DD3DB"/>
<path d="M51.724 41.4455C51.724 42.6226 50.7697 43.5769 49.5926 43.5769C48.4154 43.5769 47.4612 42.6226 47.4612 41.4455C47.4612 40.2684 48.4154 39.3141 49.5926 39.3141C50.7697 39.3141 51.724 40.2684 51.724 41.4455Z" fill="#9DD3DB"/>
<path d="M58.8285 34.3408C58.8285 35.518 57.8742 36.4722 56.6971 36.4722C55.5199 36.4722 54.5657 35.518 54.5657 34.3408C54.5657 33.1637 55.5199 32.2094 56.6971 32.2094C57.8742 32.2094 58.8285 33.1637 58.8285 34.3408Z" fill="#9DD3DB"/>
<path d="M9.09558 48.5502C9.09558 49.7273 8.14132 50.6816 6.96417 50.6816C5.78703 50.6816 4.83276 49.7273 4.83276 48.5502C4.83276 47.373 5.78703 46.4188 6.96417 46.4188C8.14132 46.4188 9.09558 47.373 9.09558 48.5502Z" fill="#9DD3DB"/>
<path d="M16.2006 55.6549C16.2006 56.8321 15.2463 57.7863 14.0692 57.7863C12.892 57.7863 11.9377 56.8321 11.9377 55.6549C11.9377 54.4778 12.892 53.5235 14.0692 53.5235C15.2463 53.5235 16.2006 54.4778 16.2006 55.6549Z" fill="#9DD3DB"/>
<path d="M16.2006 48.5502C16.2006 49.7273 15.2463 50.6816 14.0692 50.6816C12.892 50.6816 11.9377 49.7273 11.9377 48.5502C11.9377 47.373 12.892 46.4188 14.0692 46.4188C15.2463 46.4188 16.2006 47.373 16.2006 48.5502Z" fill="#9DD3DB"/>
<path d="M23.3051 48.5502C23.3051 49.7273 22.3508 50.6816 21.1736 50.6816C19.9965 50.6816 19.0422 49.7273 19.0422 48.5502C19.0422 47.373 19.9965 46.4188 21.1736 46.4188C22.3508 46.4188 23.3051 47.373 23.3051 48.5502Z" fill="#9DD3DB"/>
<path d="M30.4098 55.6549C30.4098 56.8321 29.4555 57.7863 28.2784 57.7863C27.1012 57.7863 26.147 56.8321 26.147 55.6549C26.147 54.4778 27.1012 53.5235 28.2784 53.5235C29.4555 53.5235 30.4098 54.4778 30.4098 55.6549Z" fill="#9DD3DB"/>
<path d="M23.3051 55.6549C23.3051 56.8321 22.3508 57.7863 21.1736 57.7863C19.9965 57.7863 19.0422 56.8321 19.0422 55.6549C19.0422 54.4778 19.9965 53.5235 21.1736 53.5235C22.3508 53.5235 23.3051 54.4778 23.3051 55.6549Z" fill="#9DD3DB"/>
<path d="M30.4098 48.5502C30.4098 49.7273 29.4555 50.6816 28.2784 50.6816C27.1012 50.6816 26.147 49.7273 26.147 48.5502C26.147 47.373 27.1012 46.4188 28.2784 46.4188C29.4555 46.4188 30.4098 47.373 30.4098 48.5502Z" fill="#9DD3DB"/>
<path d="M9.09558 62.7596C9.09558 63.9367 8.14132 64.891 6.96417 64.891C5.78703 64.891 4.83276 63.9367 4.83276 62.7596C4.83276 61.5824 5.78703 60.6282 6.96417 60.6282C8.14132 60.6282 9.09558 61.5824 9.09558 62.7596Z" fill="#9DD3DB"/>
<path d="M16.2006 62.7596C16.2006 63.9367 15.2463 64.891 14.0692 64.891C12.892 64.891 11.9377 63.9367 11.9377 62.7596C11.9377 61.5824 12.892 60.6282 14.0692 60.6282C15.2463 60.6282 16.2006 61.5824 16.2006 62.7596Z" fill="#9DD3DB"/>
<path d="M37.5143 48.5502C37.5143 49.7273 36.56 50.6816 35.3829 50.6816C34.2057 50.6816 33.2515 49.7273 33.2515 48.5502C33.2515 47.373 34.2057 46.4188 35.3829 46.4188C36.56 46.4188 37.5143 47.373 37.5143 48.5502Z" fill="#9DD3DB"/>
<path d="M44.6193 55.6549C44.6193 56.8321 43.665 57.7863 42.4879 57.7863C41.3107 57.7863 40.3564 56.8321 40.3564 55.6549C40.3564 54.4778 41.3107 53.5235 42.4879 53.5235C43.665 53.5235 44.6193 54.4778 44.6193 55.6549Z" fill="#9DD3DB"/>
<path d="M37.5143 55.6549C37.5143 56.8321 36.56 57.7863 35.3829 57.7863C34.2057 57.7863 33.2515 56.8321 33.2515 55.6549C33.2515 54.4778 34.2057 53.5235 35.3829 53.5235C36.56 53.5235 37.5143 54.4778 37.5143 55.6549Z" fill="#9DD3DB"/>
<path d="M44.6193 48.5502C44.6193 49.7273 43.665 50.6816 42.4879 50.6816C41.3107 50.6816 40.3564 49.7273 40.3564 48.5502C40.3564 47.373 41.3107 46.4188 42.4879 46.4188C43.665 46.4188 44.6193 47.373 44.6193 48.5502Z" fill="#9DD3DB"/>
<path d="M51.724 48.5502C51.724 49.7273 50.7697 50.6816 49.5926 50.6816C48.4154 50.6816 47.4612 49.7273 47.4612 48.5502C47.4612 47.373 48.4154 46.4188 49.5926 46.4188C50.7697 46.4188 51.724 47.373 51.724 48.5502Z" fill="#9DD3DB"/>
<path d="M58.8285 55.6549C58.8285 56.8321 57.8742 57.7863 56.6971 57.7863C55.5199 57.7863 54.5657 56.8321 54.5657 55.6549C54.5657 54.4778 55.5199 53.5235 56.6971 53.5235C57.8742 53.5235 58.8285 54.4778 58.8285 55.6549Z" fill="#9DD3DB"/>
<path d="M51.724 55.6549C51.724 56.8321 50.7697 57.7863 49.5926 57.7863C48.4154 57.7863 47.4612 56.8321 47.4612 55.6549C47.4612 54.4778 48.4154 53.5235 49.5926 53.5235C50.7697 53.5235 51.724 54.4778 51.724 55.6549Z" fill="#9DD3DB"/>
<path d="M58.8285 48.5502C58.8285 49.7273 57.8742 50.6816 56.6971 50.6816C55.5199 50.6816 54.5657 49.7273 54.5657 48.5502C54.5657 47.373 55.5199 46.4188 56.6971 46.4188C57.8742 46.4188 58.8285 47.373 58.8285 48.5502Z" fill="#9DD3DB"/>
<path d="M44.6193 62.7596C44.6193 63.9367 43.665 64.891 42.4879 64.891C41.3107 64.891 40.3564 63.9367 40.3564 62.7596C40.3564 61.5824 41.3107 60.6282 42.4879 60.6282C43.665 60.6282 44.6193 61.5824 44.6193 62.7596Z" fill="#9DD3DB"/>
<path d="M51.724 62.7596C51.724 63.9367 50.7697 64.891 49.5926 64.891C48.4154 64.891 47.4612 63.9367 47.4612 62.7596C47.4612 61.5824 48.4154 60.6282 49.5926 60.6282C50.7697 60.6282 51.724 61.5824 51.724 62.7596Z" fill="#9DD3DB"/>
<path d="M58.8285 62.7596C58.8285 63.9367 57.8742 64.891 56.6971 64.891C55.5199 64.891 54.5657 63.9367 54.5657 62.7596C54.5657 61.5824 55.5199 60.6282 56.6971 60.6282C57.8742 60.6282 58.8285 61.5824 58.8285 62.7596Z" fill="#9DD3DB"/>
<path d="M65.9332 27.2361C65.9332 28.4132 64.979 29.3675 63.8018 29.3675C62.6247 29.3675 61.6704 28.4132 61.6704 27.2361C61.6704 26.0589 62.6247 25.1047 63.8018 25.1047C64.979 25.1047 65.9332 26.0589 65.9332 27.2361Z" fill="#9DD3DB"/>
<path d="M87.2474 27.2361C87.2474 28.4132 86.2932 29.3675 85.116 29.3675C83.9389 29.3675 82.9846 28.4132 82.9846 27.2361C82.9846 26.0589 83.9389 25.1047 85.116 25.1047C86.2932 25.1047 87.2474 26.0589 87.2474 27.2361Z" fill="#9DD3DB"/>
<path d="M80.1427 27.2361C80.1427 28.4132 79.1884 29.3675 78.0113 29.3675C76.8341 29.3675 75.8799 28.4132 75.8799 27.2361C75.8799 26.0589 76.8341 25.1047 78.0113 25.1047C79.1884 25.1047 80.1427 26.0589 80.1427 27.2361Z" fill="#9DD3DB"/>
<path d="M65.9332 34.3408C65.9332 35.518 64.979 36.4722 63.8018 36.4722C62.6247 36.4722 61.6704 35.518 61.6704 34.3408C61.6704 33.1637 62.6247 32.2094 63.8018 32.2094C64.979 32.2094 65.9332 33.1637 65.9332 34.3408Z" fill="#9DD3DB"/>
<path d="M73.038 41.4455C73.038 42.6226 72.0837 43.5769 70.9066 43.5769C69.7294 43.5769 68.7751 42.6226 68.7751 41.4455C68.7751 40.2684 69.7294 39.3141 70.9066 39.3141C72.0837 39.3141 73.038 40.2684 73.038 41.4455Z" fill="#9DD3DB"/>
<path d="M65.9332 41.4455C65.9332 42.6226 64.979 43.5769 63.8018 43.5769C62.6247 43.5769 61.6704 42.6226 61.6704 41.4455C61.6704 40.2684 62.6247 39.3141 63.8018 39.3141C64.979 39.3141 65.9332 40.2684 65.9332 41.4455Z" fill="#9DD3DB"/>
<path d="M73.038 34.3408C73.038 35.518 72.0837 36.4722 70.9066 36.4722C69.7294 36.4722 68.7751 35.518 68.7751 34.3408C68.7751 33.1637 69.7294 32.2094 70.9066 32.2094C72.0837 32.2094 73.038 33.1637 73.038 34.3408Z" fill="#9DD3DB"/>
<path d="M80.1427 34.3408C80.1427 35.518 79.1884 36.4722 78.0113 36.4722C76.8341 36.4722 75.8799 35.518 75.8799 34.3408C75.8799 33.1637 76.8341 32.2094 78.0113 32.2094C79.1884 32.2094 80.1427 33.1637 80.1427 34.3408Z" fill="#9DD3DB"/>
<path d="M87.2474 41.4455C87.2474 42.6226 86.2932 43.5769 85.116 43.5769C83.9389 43.5769 82.9846 42.6226 82.9846 41.4455C82.9846 40.2684 83.9389 39.3141 85.116 39.3141C86.2932 39.3141 87.2474 40.2684 87.2474 41.4455Z" fill="#9DD3DB"/>
<path d="M80.1427 41.4455C80.1427 42.6226 79.1884 43.5769 78.0113 43.5769C76.8341 43.5769 75.8799 42.6226 75.8799 41.4455C75.8799 40.2684 76.8341 39.3141 78.0113 39.3141C79.1884 39.3141 80.1427 40.2684 80.1427 41.4455Z" fill="#9DD3DB"/>
<path d="M87.2474 34.3408C87.2474 35.518 86.2932 36.4722 85.116 36.4722C83.9389 36.4722 82.9846 35.518 82.9846 34.3408C82.9846 33.1637 83.9389 32.2094 85.116 32.2094C86.2932 32.2094 87.2474 33.1637 87.2474 34.3408Z" fill="#9DD3DB"/>
<path d="M101.457 27.2361C101.457 28.4132 100.503 29.3675 99.3255 29.3675C98.1484 29.3675 97.1941 28.4132 97.1941 27.2361C97.1941 26.0589 98.1484 25.1047 99.3255 25.1047C100.503 25.1047 101.457 26.0589 101.457 27.2361Z" fill="#9DD3DB"/>
<path d="M94.3522 27.2361C94.3522 28.4132 93.3979 29.3675 92.2208 29.3675C91.0436 29.3675 90.0894 28.4132 90.0894 27.2361C90.0894 26.0589 91.0436 25.1047 92.2208 25.1047C93.3979 25.1047 94.3522 26.0589 94.3522 27.2361Z" fill="#9DD3DB"/>
<path d="M115.666 27.2361C115.666 28.4132 114.712 29.3675 113.535 29.3675C112.358 29.3675 111.403 28.4132 111.403 27.2361C111.403 26.0589 112.358 25.1047 113.535 25.1047C114.712 25.1047 115.666 26.0589 115.666 27.2361Z" fill="#9DD3DB"/>
<path d="M108.561 27.2361C108.561 28.4132 107.607 29.3675 106.43 29.3675C105.253 29.3675 104.299 28.4132 104.299 27.2361C104.299 26.0589 105.253 25.1047 106.43 25.1047C107.607 25.1047 108.561 26.0589 108.561 27.2361Z" fill="#9DD3DB"/>
<path d="M94.3522 34.3408C94.3522 35.518 93.3979 36.4722 92.2208 36.4722C91.0436 36.4722 90.0894 35.518 90.0894 34.3408C90.0894 33.1637 91.0436 32.2094 92.2208 32.2094C93.3979 32.2094 94.3522 33.1637 94.3522 34.3408Z" fill="#9DD3DB"/>
<path d="M101.457 41.4455C101.457 42.6226 100.503 43.5769 99.3255 43.5769C98.1484 43.5769 97.1941 42.6226 97.1941 41.4455C97.1941 40.2684 98.1484 39.3141 99.3255 39.3141C100.503 39.3141 101.457 40.2684 101.457 41.4455Z" fill="#9DD3DB"/>
<path d="M94.3522 41.4455C94.3522 42.6226 93.3979 43.5769 92.2208 43.5769C91.0436 43.5769 90.0894 42.6226 90.0894 41.4455C90.0894 40.2684 91.0436 39.3141 92.2208 39.3141C93.3979 39.3141 94.3522 40.2684 94.3522 41.4455Z" fill="#9DD3DB"/>
<path d="M108.561 34.3408C108.561 35.518 107.607 36.4722 106.43 36.4722C105.253 36.4722 104.299 35.518 104.299 34.3408C104.299 33.1637 105.253 32.2094 106.43 32.2094C107.607 32.2094 108.561 33.1637 108.561 34.3408Z" fill="#9DD3DB"/>
<path d="M108.561 41.4455C108.561 42.6226 107.607 43.5769 106.43 43.5769C105.253 43.5769 104.299 42.6226 104.299 41.4455C104.299 40.2684 105.253 39.3141 106.43 39.3141C107.607 39.3141 108.561 40.2684 108.561 41.4455Z" fill="#9DD3DB"/>
<path d="M115.666 34.3408C115.666 35.518 114.712 36.4722 113.535 36.4722C112.358 36.4722 111.403 35.518 111.403 34.3408C111.403 33.1637 112.358 32.2094 113.535 32.2094C114.712 32.2094 115.666 33.1637 115.666 34.3408Z" fill="#9DD3DB"/>
<path d="M65.9332 48.5502C65.9332 49.7273 64.979 50.6816 63.8018 50.6816C62.6247 50.6816 61.6704 49.7273 61.6704 48.5502C61.6704 47.373 62.6247 46.4188 63.8018 46.4188C64.979 46.4188 65.9332 47.373 65.9332 48.5502Z" fill="#9DD3DB"/>
<path d="M73.038 55.6549C73.038 56.8321 72.0837 57.7863 70.9066 57.7863C69.7294 57.7863 68.7751 56.8321 68.7751 55.6549C68.7751 54.4778 69.7294 53.5235 70.9066 53.5235C72.0837 53.5235 73.038 54.4778 73.038 55.6549Z" fill="#9DD3DB"/>
<path d="M65.9332 55.6549C65.9332 56.8321 64.979 57.7863 63.8018 57.7863C62.6247 57.7863 61.6704 56.8321 61.6704 55.6549C61.6704 54.4778 62.6247 53.5235 63.8018 53.5235C64.979 53.5235 65.9332 54.4778 65.9332 55.6549Z" fill="#9DD3DB"/>
<path d="M73.038 48.5502C73.038 49.7273 72.0837 50.6816 70.9066 50.6816C69.7294 50.6816 68.7751 49.7273 68.7751 48.5502C68.7751 47.373 69.7294 46.4188 70.9066 46.4188C72.0837 46.4188 73.038 47.373 73.038 48.5502Z" fill="#9DD3DB"/>
<path d="M80.1427 48.5502C80.1427 49.7273 79.1884 50.6816 78.0113 50.6816C76.8341 50.6816 75.8799 49.7273 75.8799 48.5502C75.8799 47.373 76.8341 46.4188 78.0113 46.4188C79.1884 46.4188 80.1427 47.373 80.1427 48.5502Z" fill="#9DD3DB"/>
<path d="M87.2474 55.6549C87.2474 56.8321 86.2932 57.7863 85.116 57.7863C83.9389 57.7863 82.9846 56.8321 82.9846 55.6549C82.9846 54.4778 83.9389 53.5235 85.116 53.5235C86.2932 53.5235 87.2474 54.4778 87.2474 55.6549Z" fill="#9DD3DB"/>
<path d="M80.1427 55.6549C80.1427 56.8321 79.1884 57.7863 78.0113 57.7863C76.8341 57.7863 75.8799 56.8321 75.8799 55.6549C75.8799 54.4778 76.8341 53.5235 78.0113 53.5235C79.1884 53.5235 80.1427 54.4778 80.1427 55.6549Z" fill="#9DD3DB"/>
<path d="M87.2474 48.5502C87.2474 49.7273 86.2932 50.6816 85.116 50.6816C83.9389 50.6816 82.9846 49.7273 82.9846 48.5502C82.9846 47.373 83.9389 46.4188 85.116 46.4188C86.2932 46.4188 87.2474 47.373 87.2474 48.5502Z" fill="#9DD3DB"/>
<path d="M65.9332 62.7596C65.9332 63.9367 64.979 64.891 63.8018 64.891C62.6247 64.891 61.6704 63.9367 61.6704 62.7596C61.6704 61.5824 62.6247 60.6282 63.8018 60.6282C64.979 60.6282 65.9332 61.5824 65.9332 62.7596Z" fill="#9DD3DB"/>
<path d="M73.038 62.7596C73.038 63.9367 72.0837 64.891 70.9066 64.891C69.7294 64.891 68.7751 63.9367 68.7751 62.7596C68.7751 61.5824 69.7294 60.6282 70.9066 60.6282C72.0837 60.6282 73.038 61.5824 73.038 62.7596Z" fill="#9DD3DB"/>
<path d="M80.1427 62.7596C80.1427 63.9367 79.1884 64.891 78.0113 64.891C76.8341 64.891 75.8799 63.9367 75.8799 62.7596C75.8799 61.5824 76.8341 60.6282 78.0113 60.6282C79.1884 60.6282 80.1427 61.5824 80.1427 62.7596Z" fill="#9DD3DB"/>
<path d="M87.2474 62.7596C87.2474 63.9367 86.2932 64.891 85.116 64.891C83.9389 64.891 82.9846 63.9367 82.9846 62.7596C82.9846 61.5824 83.9389 60.6282 85.116 60.6282C86.2932 60.6282 87.2474 61.5824 87.2474 62.7596Z" fill="#9DD3DB"/>
<path d="M94.3522 48.5502C94.3522 49.7273 93.3979 50.6816 92.2208 50.6816C91.0436 50.6816 90.0894 49.7273 90.0894 48.5502C90.0894 47.373 91.0436 46.4188 92.2208 46.4188C93.3979 46.4188 94.3522 47.373 94.3522 48.5502Z" fill="#9DD3DB"/>
<path d="M101.457 55.6549C101.457 56.8321 100.503 57.7863 99.3255 57.7863C98.1484 57.7863 97.1941 56.8321 97.1941 55.6549C97.1941 54.4778 98.1484 53.5235 99.3255 53.5235C100.503 53.5235 101.457 54.4778 101.457 55.6549Z" fill="#9DD3DB"/>
<path d="M94.3522 55.6549C94.3522 56.8321 93.3979 57.7863 92.2208 57.7863C91.0436 57.7863 90.0894 56.8321 90.0894 55.6549C90.0894 54.4778 91.0436 53.5235 92.2208 53.5235C93.3979 53.5235 94.3522 54.4778 94.3522 55.6549Z" fill="#9DD3DB"/>
<path d="M101.457 48.5502C101.457 49.7273 100.503 50.6816 99.3255 50.6816C98.1484 50.6816 97.1941 49.7273 97.1941 48.5502C97.1941 47.373 98.1484 46.4188 99.3255 46.4188C100.503 46.4188 101.457 47.373 101.457 48.5502Z" fill="#9DD3DB"/>
<path d="M108.561 48.5502C108.561 49.7273 107.607 50.6816 106.43 50.6816C105.253 50.6816 104.299 49.7273 104.299 48.5502C104.299 47.373 105.253 46.4188 106.43 46.4188C107.607 46.4188 108.561 47.373 108.561 48.5502Z" fill="#9DD3DB"/>
<path d="M108.561 55.6549C108.561 56.8321 107.607 57.7863 106.43 57.7863C105.253 57.7863 104.299 56.8321 104.299 55.6549C104.299 54.4778 105.253 53.5235 106.43 53.5235C107.607 53.5235 108.561 54.4778 108.561 55.6549Z" fill="#9DD3DB"/>
<path d="M115.666 48.5502C115.666 49.7273 114.712 50.6816 113.535 50.6816C112.358 50.6816 111.403 49.7273 111.403 48.5502C111.403 47.373 112.358 46.4188 113.535 46.4188C114.712 46.4188 115.666 47.373 115.666 48.5502Z" fill="#9DD3DB"/>
<path d="M108.561 62.7596C108.561 63.9367 107.607 64.891 106.43 64.891C105.253 64.891 104.299 63.9367 104.299 62.7596C104.299 61.5824 105.253 60.6282 106.43 60.6282C107.607 60.6282 108.561 61.5824 108.561 62.7596Z" fill="#9DD3DB"/>
<path d="M115.666 62.7596C115.666 63.9367 114.712 64.891 113.535 64.891C112.358 64.891 111.403 63.9367 111.403 62.7596C111.403 61.5824 112.358 60.6282 113.535 60.6282C114.712 60.6282 115.666 61.5824 115.666 62.7596Z" fill="#9DD3DB"/>
</g>
</svg>
