<svg width="80" height="80" viewBox="0 0 80 80" fill="none" xmlns="http://www.w3.org/2000/svg">
<rect width="80" height="80" rx="40" fill="#D0E6F9"/>
<path d="M50.555 21.5594C50.723 21.1766 51.6749 21.1377 53.7249 21.4295C55.7759 21.7222 57.6033 21.2805 58.5881 19.8082C59.5175 18.418 59.5045 16.413 56.4661 15.3165C53.2442 14.1532 50.9827 16.4615 50.3271 17.952C50.0084 18.6762 48.7725 21.4858 48.7725 21.4858L50.2925 22.1563C50.2925 22.1563 50.3861 21.9431 50.555 21.5594Z" fill="#036FC8"/>
<path d="M50.124 22.5407L48.6031 21.8711L48.0635 23.4891L49.296 24.0304L50.124 22.5407Z" fill="#036FC8"/>
<path d="M56.8941 23.9811C53.6695 22.8161 51.409 25.1245 50.7524 26.6158C50.4345 27.339 49.1978 30.1505 49.1978 30.1505L50.7178 30.8199C50.7178 30.8199 50.8122 30.6068 50.9803 30.224C51.15 29.8403 52.101 29.8005 54.1511 30.0933C56.2003 30.3851 58.0295 29.9451 59.0152 28.471C59.9438 27.0827 59.929 25.0776 56.8941 23.9811Z" fill="#036FC8"/>
<path d="M50.3186 31.9503L50.8811 30.937L49.3611 30.2674L48.9938 31.3682L46.7216 30.3679L49.4407 24.1898L48.2083 23.6484L45.49 29.8264L43.762 29.0659L45.9165 24.1681L44.6624 23.6172L42.5079 28.5143L36.6448 25.9341L34.3383 31.1768L50.7867 38.4149C50.7508 38.7466 50.7136 39.0904 50.6745 39.4551L33.9363 32.0905L30.3558 40.2269C29.8604 41.3519 28.9371 42.2354 27.7903 42.6806L26.3431 43.2435C25.1972 43.6905 24.2747 44.5731 23.7793 45.6991L20.9704 52.0788C19.5951 55.2065 21.0146 58.8571 24.1405 60.2326L33.7856 64.4766C36.209 65.5418 38.9411 64.9243 40.6908 63.1401C40.9891 63.3506 41.3 63.5377 41.6276 63.6806C42.4253 64.0331 43.2853 64.1864 44.1444 64.1691C45.4333 64.1413 46.7238 63.7343 47.8542 62.9929C48.9826 62.2507 49.9518 61.162 50.5591 59.7805C50.8942 59.021 51.1177 58.1747 51.2017 57.2609C51.4797 54.2685 52.0626 48.7132 52.5744 43.9122C52.8309 41.5114 53.0682 39.2985 53.2423 37.6849C53.3288 36.8785 53.4007 36.2229 53.451 35.7681C53.5004 35.3134 53.5272 35.0613 53.5272 35.0606L53.4901 35.0562L54.1205 33.6237L50.3186 31.9503ZM48.8475 57.041C48.786 57.7106 48.6259 58.3047 48.3954 58.8286C48.1157 59.4634 47.7312 59.9987 47.279 60.437C46.6 61.0926 45.7641 61.5248 44.9257 61.7058C44.5083 61.7977 44.0908 61.8272 43.6941 61.7934C43.2966 61.7613 42.9215 61.6678 42.5794 61.5179C42.3715 61.4261 42.1806 61.3057 41.9978 61.1706L50.391 42.0961C50.3364 42.6062 50.2805 43.1284 50.2238 43.662C49.7119 48.4673 49.1298 54.0217 48.8475 57.041Z" fill="#036FC8"/>
<path d="M40.297 19.6759L44.6336 22.5333L44.2378 23.4332L45.9727 24.1972L47.0995 21.6368C47.3792 21.002 47.2666 20.2623 46.8119 19.7392L43.7276 16.1872C43.3449 15.7471 42.7724 15.5204 42.1912 15.5793C41.6117 15.639 41.0964 15.9777 40.8106 16.4869L39.9116 18.0954C39.605 18.6417 39.7731 19.3311 40.297 19.6759Z" fill="#036FC8"/>
<path d="M35.024 23.1584L39.3614 26.0166L38.9647 26.9157L40.7013 27.6805L41.8273 25.1193C42.1061 24.4845 41.9953 23.7457 41.5396 23.2218L38.4554 19.6698C38.0734 19.2298 37.5001 19.0029 36.9198 19.0627C36.3386 19.1225 35.825 19.4602 35.5391 19.9695L34.6383 21.5779C34.3319 22.1242 34.5008 22.8154 35.024 23.1584Z" fill="#036FC8"/>
</svg>
