<svg width="24" height="24" viewBox="0 0 24 24" fill="none" xmlns="http://www.w3.org/2000/svg">
<g clip-path="url(#clip0_409_2586)">
<path d="M24 24H0V3C0 2.20435 0.31607 1.44129 0.87868 0.87868C1.44129 0.31607 2.20435 0 3 0L21 0C21.7956 0 22.5587 0.31607 23.1213 0.87868C23.6839 1.44129 24 2.20435 24 3V24ZM2 22H22V3C22 2.73478 21.8946 2.48043 21.7071 2.29289C21.5196 2.10536 21.2652 2 21 2H3C2.73478 2 2.48043 2.10536 2.29289 2.29289C2.10536 2.48043 2 2.73478 2 3V22Z" fill="#00896C"/>
<path d="M9.33297 17.9189C9.07022 17.9197 8.80994 17.8683 8.56721 17.7677C8.32449 17.6671 8.10415 17.5193 7.91897 17.3329L3.29297 12.707L4.70697 11.293L9.33297 15.9189L19.293 5.95996L20.707 7.37396L10.748 17.3329C10.5626 17.5194 10.3421 17.6672 10.0992 17.7678C9.8563 17.8683 9.59586 17.9197 9.33297 17.9189Z" fill="#00896C"/>
</g>
<defs>
<clipPath id="clip0_409_2586">
<rect width="24" height="24" fill="white"/>
</clipPath>
</defs>
</svg>
