<svg width="18" height="17" viewBox="0 0 18 17" fill="none" xmlns="http://www.w3.org/2000/svg">
<path d="M11.9927 8.46795L17.3887 3.37128C17.739 2.99557 17.9246 2.50809 17.9076 2.00792C17.8907 1.50774 17.6726 1.03242 17.2975 0.678566C16.9225 0.32471 16.4188 0.118878 15.8887 0.102909C15.3586 0.08694 14.842 0.262032 14.4438 0.592595L9.04232 5.68401L3.6311 0.576844C3.43729 0.393962 3.20719 0.248892 2.95395 0.149917C2.70071 0.0509418 2.4293 1.92698e-09 2.15519 0C1.88109 -1.92698e-09 1.60967 0.0509418 1.35644 0.149917C1.1032 0.248892 0.873102 0.393962 0.679282 0.576844C0.485463 0.759726 0.331717 0.976839 0.226823 1.21579C0.121929 1.45473 0.0679401 1.71083 0.0679401 1.96947C0.0679401 2.2281 0.121929 2.4842 0.226823 2.72315C0.331717 2.9621 0.485463 3.17921 0.679282 3.36209L6.09188 8.46795L0.695975 13.5633C0.484357 13.7418 0.313559 13.9591 0.194031 14.2021C0.0745025 14.445 0.00875726 14.7084 0.000816712 14.9761C-0.00712383 15.2438 0.0429075 15.5102 0.14785 15.7591C0.252793 16.0079 0.41044 16.234 0.611147 16.4233C0.811853 16.6127 1.0514 16.7615 1.31513 16.8605C1.57886 16.9595 1.86123 17.0067 2.14496 16.9992C2.42869 16.9917 2.70782 16.9297 2.96526 16.8169C3.22271 16.7041 3.45307 16.543 3.64223 16.3433L9.04232 11.2519L14.4368 16.3433C14.8283 16.7126 15.3592 16.9201 15.9127 16.9201C16.4663 16.9201 16.9972 16.7126 17.3887 16.3433C17.7801 15.974 18 15.473 18 14.9507C18 14.4283 17.7801 13.9274 17.3887 13.5581L11.9927 8.46795Z" fill="#005CAF"/>
</svg>
