<svg width="50" height="50" viewBox="0 0 50 50" fill="none" xmlns="http://www.w3.org/2000/svg">
<path d="M39.7881 22.5108C39.7876 12.9693 32.0525 5.2335 22.5108 5.2335C12.9696 5.23406 5.23406 12.9696 5.2335 22.5108C5.2335 32.0525 12.9693 39.7876 22.5108 39.7881C32.0528 39.7881 39.7881 32.0528 39.7881 22.5108ZM45.0247 22.5108C45.0247 27.7845 43.2026 32.6287 40.1655 36.4658L49.2336 45.5309C50.2553 46.5532 50.2557 48.2115 49.2336 49.2336C48.2115 50.2557 46.5532 50.2553 45.5309 49.2336L36.4658 40.1655C32.6287 43.2026 27.7845 45.0247 22.5108 45.0247C10.0778 45.0241 0 34.944 0 22.5108C0.000552099 10.0781 10.0781 0.000552088 22.5108 0C34.944 0 45.0241 10.0778 45.0247 22.5108Z" fill="white"/>
</svg>
