<svg width="30" height="30" viewBox="0 0 30 30" fill="none" xmlns="http://www.w3.org/2000/svg">
<path d="M23.8887 12.5003C23.8887 10.1428 22.9531 7.88151 21.2861 6.21452C19.6191 4.54753 17.3578 3.61198 15.0003 3.61198C12.6428 3.61198 10.3815 4.54753 8.71452 6.21452C7.04753 7.88151 6.11198 10.1428 6.11198 12.5003C6.11198 15.2463 7.65602 18.1864 9.63737 20.7897C11.5675 23.3256 13.7839 25.3728 14.932 26.3675C14.9531 26.3798 14.9757 26.3887 15.0003 26.3887C15.0245 26.3887 15.0462 26.3793 15.0671 26.3675C16.2148 25.3731 18.4327 23.3262 20.3633 20.7897C22.3446 18.1864 23.8887 15.2463 23.8887 12.5003ZM26.112 12.5003C26.112 15.9956 24.1943 19.4268 22.1325 22.1357C20.0453 24.8781 17.6688 27.0614 16.4782 28.0895C16.4594 28.1058 16.4395 28.1218 16.4196 28.1367C16.0105 28.4444 15.5122 28.6104 15.0003 28.6104C14.4884 28.6104 13.9902 28.4444 13.5811 28.1367C13.5612 28.1218 13.5413 28.1058 13.5225 28.0895C12.3318 27.0614 9.95536 24.8781 7.86816 22.1357C5.80639 19.4268 3.88867 15.9956 3.88867 12.5003C3.88867 9.55348 5.06014 6.72762 7.14388 4.64388C9.22762 2.56014 12.0535 1.38867 15.0003 1.38867C17.9472 1.38867 20.773 2.56014 22.8568 4.64388C24.9405 6.72762 26.112 9.55348 26.112 12.5003Z" fill="#00896C"/>
<path d="M17.6387 12.5003C17.6387 11.0429 16.4577 9.86198 15.0003 9.86198C13.5429 9.86198 12.362 11.0429 12.362 12.5003C12.362 13.9577 13.5429 15.1387 15.0003 15.1387C16.4577 15.1387 17.6387 13.9577 17.6387 12.5003ZM19.862 12.5003C19.862 15.185 17.685 17.362 15.0003 17.362C12.3156 17.362 10.1387 15.185 10.1387 12.5003C10.1387 9.81561 12.3156 7.63867 15.0003 7.63867C17.685 7.63867 19.862 9.81561 19.862 12.5003Z" fill="#00896C"/>
</svg>
