<svg width="80" height="80" viewBox="0 0 80 80" fill="none" xmlns="http://www.w3.org/2000/svg">
<rect width="80" height="80" rx="40" fill="#D0E6F9"/>
<path d="M61.0527 27.74H18.9474C16.7671 27.74 15 29.5071 15 31.6874V59.0549C15 61.2352 16.7671 63.0022 18.9474 63.0022H61.0527C63.233 63.0022 65 61.2351 65 59.0549V31.6874C65 29.5071 63.2329 27.74 61.0527 27.74ZM62.6316 59.055C62.6316 59.9262 61.9235 60.6339 61.0527 60.6339H18.9474C18.0766 60.6339 17.3685 59.9262 17.3685 59.055V31.6874C17.3685 30.8162 18.0767 30.1084 18.9474 30.1084H61.0527C61.9235 30.1084 62.6316 30.8163 62.6316 31.6874V59.055Z" fill="#036FC8"/>
<path d="M33.6311 23.3555C33.6318 22.5105 33.9695 21.7611 34.5223 21.2045C35.0781 20.6524 35.8275 20.3147 36.6732 20.314H43.3266C44.1724 20.3147 44.9217 20.6524 45.4775 21.2045C46.0304 21.7611 46.3673 22.5105 46.3688 23.3555V25.8148H49.684V23.3555C49.6832 19.8438 46.8384 16.9996 43.3266 16.998H36.6732C33.1615 16.9996 30.3166 19.8437 30.3159 23.3555V25.8148H33.6311V23.3555Z" fill="#036FC8"/>
<path d="M53.8136 42.6194C53.5091 42.3897 53.0882 42.3897 52.7836 42.6194L51.2479 43.7851H51.2463L49.7117 42.6209C49.4068 42.3896 48.9855 42.3904 48.6806 42.6209L47.6675 43.3887C47.3607 43.6216 46.9355 43.6185 46.6297 43.3841L44.0749 41.4058C43.9252 41.2894 43.741 41.2254 43.5517 41.2254H40.483C38.8979 37.9581 35.5484 35.7053 31.672 35.7053C26.2657 35.7053 21.8835 40.086 21.8835 45.4935C21.8835 50.898 26.2657 55.2808 31.672 55.2808C36.0731 55.2808 39.7949 52.3766 41.0265 48.3792H56.3759C56.6497 48.3792 56.9076 48.2481 57.0679 48.0261L57.9548 46.7971C58.2263 46.4209 58.1476 45.8958 57.7775 45.6168L53.8136 42.6194ZM26.7463 47.4765C25.6154 47.4765 24.6979 46.5591 24.6979 45.4296C24.6979 44.2978 25.6153 43.3804 26.7463 43.3804C27.8758 43.3804 28.7933 44.2978 28.7933 45.4296C28.7933 46.559 27.8765 47.4765 26.7463 47.4765ZM55.0129 46.522H41.4058C41.4417 46.1828 41.4606 45.8405 41.4606 45.4936H55.0129V46.522Z" fill="#036FC8"/>
</svg>
