<svg width="21" height="18" viewBox="0 0 21 18" fill="none" xmlns="http://www.w3.org/2000/svg">
<path d="M0.291204 0.294744C0.57892 0.00543201 1.01395 -0.0798917 1.38984 0.0789235L20.3234 8.07892C20.6936 8.23534 20.9348 8.59793 20.9348 8.99982C20.9348 9.40172 20.6936 9.7643 20.3234 9.92072L1.38984 17.9207C1.01395 18.0795 0.57892 17.9942 0.291204 17.7049C0.00349167 17.4153 -0.0801262 16.9793 0.0812434 16.6043L3.3537 8.99982L0.0812434 1.39533C-0.0801262 1.02034 0.00349167 0.584366 0.291204 0.294744ZM2.90156 15.1102L14.9982 9.99982H5.10175L2.90156 15.1102ZM5.10175 7.99982H14.9982L2.90156 2.88849L5.10175 7.99982Z" fill="white"/>
</svg>
