<svg width="30" height="30" viewBox="0 0 30 30" fill="none" xmlns="http://www.w3.org/2000/svg">
<g clip-path="url(#clip0_448_101)">
<path d="M23.75 0H6.25C4.59301 0.00198482 3.00445 0.661102 1.83277 1.83277C0.661102 3.00445 0.00198482 4.59301 0 6.25L0 23.75C0.00198482 25.407 0.661102 26.9956 1.83277 28.1672C3.00445 29.3389 4.59301 29.998 6.25 30H23.75C25.407 29.998 26.9956 29.3389 28.1672 28.1672C29.3389 26.9956 29.998 25.407 30 23.75V6.25C29.998 4.59301 29.3389 3.00445 28.1672 1.83277C26.9956 0.661102 25.407 0.00198482 23.75 0V0ZM8.75 27.5V26.25C8.75 24.5924 9.40848 23.0027 10.5806 21.8306C11.7527 20.6585 13.3424 20 15 20C16.6576 20 18.2473 20.6585 19.4194 21.8306C20.5915 23.0027 21.25 24.5924 21.25 26.25V27.5H8.75ZM27.5 23.75C27.5 24.7446 27.1049 25.6984 26.4017 26.4017C25.6984 27.1049 24.7446 27.5 23.75 27.5V26.25C23.75 23.9294 22.8281 21.7038 21.1872 20.0628C19.5462 18.4219 17.3206 17.5 15 17.5C12.6794 17.5 10.4538 18.4219 8.81282 20.0628C7.17187 21.7038 6.25 23.9294 6.25 26.25V27.5C5.25544 27.5 4.30161 27.1049 3.59835 26.4017C2.89509 25.6984 2.5 24.7446 2.5 23.75V6.25C2.5 5.25544 2.89509 4.30161 3.59835 3.59835C4.30161 2.89509 5.25544 2.5 6.25 2.5H23.75C24.7446 2.5 25.6984 2.89509 26.4017 3.59835C27.1049 4.30161 27.5 5.25544 27.5 6.25V23.75Z" fill="#00896C"/>
<path d="M15 5C14.0111 5 13.0444 5.29324 12.2222 5.84265C11.3999 6.39206 10.759 7.17295 10.3806 8.08658C10.0022 9.00021 9.90315 10.0055 10.0961 10.9755C10.289 11.9454 10.7652 12.8363 11.4645 13.5355C12.1637 14.2348 13.0546 14.711 14.0246 14.9039C14.9945 15.0969 15.9998 14.9978 16.9134 14.6194C17.8271 14.241 18.6079 13.6001 19.1574 12.7779C19.7068 11.9556 20 10.9889 20 10C20 8.67392 19.4732 7.40215 18.5355 6.46447C17.5979 5.52678 16.3261 5 15 5ZM15 12.5C14.5055 12.5 14.0222 12.3534 13.6111 12.0787C13.2 11.804 12.8795 11.4135 12.6903 10.9567C12.5011 10.4999 12.4516 9.99723 12.548 9.51227C12.6445 9.02732 12.8826 8.58186 13.2322 8.23223C13.5819 7.8826 14.0273 7.6445 14.5123 7.54804C14.9972 7.45157 15.4999 7.50108 15.9567 7.6903C16.4135 7.87952 16.804 8.19995 17.0787 8.61107C17.3534 9.0222 17.5 9.50555 17.5 10C17.5 10.663 17.2366 11.2989 16.7678 11.7678C16.2989 12.2366 15.663 12.5 15 12.5Z" fill="#00896C"/>
</g>
<defs>
<clipPath id="clip0_448_101">
<rect width="30" height="30" fill="white"/>
</clipPath>
</defs>
</svg>
