<svg width="55" height="45" viewBox="0 0 55 45" fill="none" xmlns="http://www.w3.org/2000/svg">
<path d="M16.58 4.75026H19.316C19.5306 5.53999 19.9992 6.23715 20.6493 6.73419C21.2995 7.23123 22.0951 7.50052 22.9135 7.50052C23.7319 7.50052 24.5275 7.23123 25.1777 6.73419C25.8278 6.23715 26.2964 5.53999 26.511 4.75026H38.58C38.8452 4.75026 39.0996 4.6449 39.2871 4.45737C39.4746 4.26983 39.58 4.01548 39.58 3.75026C39.58 3.48504 39.4746 3.23069 39.2871 3.04315C39.0996 2.85562 38.8452 2.75026 38.58 2.75026H26.511C26.2964 1.96053 25.8278 1.26336 25.1777 0.766328C24.5275 0.269291 23.7319 0 22.9135 0C22.0951 0 21.2995 0.269291 20.6493 0.766328C19.9992 1.26336 19.5306 1.96053 19.316 2.75026H16.58C16.3148 2.75026 16.0604 2.85562 15.8729 3.04315C15.6854 3.23069 15.58 3.48504 15.58 3.75026C15.58 4.01548 15.6854 4.26983 15.8729 4.45737C16.0604 4.6449 16.3148 4.75026 16.58 4.75026ZM22.913 2.00026C23.2591 2.00026 23.5975 2.10289 23.8852 2.29519C24.173 2.48748 24.3973 2.76079 24.5298 3.08056C24.6622 3.40033 24.6969 3.7522 24.6294 4.09167C24.5619 4.43113 24.3952 4.74295 24.1504 4.9877C23.9057 5.23244 23.5939 5.39911 23.2544 5.46663C22.9149 5.53416 22.5631 5.4995 22.2433 5.36705C21.9235 5.23459 21.6502 5.01029 21.4579 4.72251C21.2656 4.43472 21.163 4.09638 21.163 3.75026C21.1635 3.28629 21.3481 2.84148 21.6761 2.51341C22.0042 2.18533 22.449 2.00079 22.913 2.00026Z" fill="#1B1A19"/>
<path d="M38.58 10.999H35.844C35.6297 10.2091 35.1614 9.5117 34.5113 9.01446C33.8612 8.51722 33.0655 8.2478 32.247 8.2478C31.4285 8.2478 30.6328 8.51722 29.9827 9.01446C29.3326 9.5117 28.8643 10.2091 28.65 10.999H16.58C16.3148 10.999 16.0604 11.1044 15.8729 11.2919C15.6854 11.4795 15.58 11.7338 15.58 11.999C15.58 12.2642 15.6854 12.5186 15.8729 12.7061C16.0604 12.8937 16.3148 12.999 16.58 12.999H28.65C28.8643 13.7889 29.3326 14.4864 29.9827 14.9836C30.6328 15.4808 31.4285 15.7503 32.247 15.7503C33.0655 15.7503 33.8612 15.4808 34.5113 14.9836C35.1614 14.4864 35.6297 13.7889 35.844 12.999H38.58C38.8452 12.999 39.0996 12.8937 39.2871 12.7061C39.4746 12.5186 39.58 12.2642 39.58 11.999C39.58 11.7338 39.4746 11.4795 39.2871 11.2919C39.0996 11.1044 38.8452 10.999 38.58 10.999ZM32.247 13.749C31.9009 13.749 31.5625 13.6464 31.2748 13.4541C30.987 13.2618 30.7627 12.9885 30.6302 12.6687C30.4978 12.349 30.4631 11.9971 30.5306 11.6576C30.5982 11.3182 30.7648 11.0063 31.0096 10.7616C31.2543 10.5169 31.5661 10.3502 31.9056 10.2827C32.2451 10.2151 32.5969 10.2498 32.9167 10.3822C33.2365 10.5147 33.5098 10.739 33.7021 11.0268C33.8944 11.3146 33.997 11.6529 33.997 11.999C33.9965 12.463 33.8119 12.9078 33.4839 13.2359C33.1558 13.564 32.711 13.7485 32.247 13.749Z" fill="#1B1A19"/>
<path d="M38.58 19.2502H26.511C26.2964 18.4605 25.8278 17.7634 25.1777 17.2663C24.5275 16.7693 23.7319 16.5 22.9135 16.5C22.0951 16.5 21.2995 16.7693 20.6493 17.2663C19.9992 17.7634 19.5306 18.4605 19.316 19.2502H16.58C16.3148 19.2502 16.0604 19.3556 15.8729 19.5431C15.6854 19.7307 15.58 19.985 15.58 20.2502C15.58 20.5155 15.6854 20.7698 15.8729 20.9573C16.0604 21.1449 16.3148 21.2502 16.58 21.2502H19.316C19.5306 22.04 19.9992 22.7371 20.6493 23.2342C21.2995 23.7312 22.0951 24.0005 22.9135 24.0005C23.7319 24.0005 24.5275 23.7312 25.1777 23.2342C25.8278 22.7371 26.2964 22.04 26.511 21.2502H38.58C38.8452 21.2502 39.0996 21.1449 39.2871 20.9573C39.4746 20.7698 39.58 20.5155 39.58 20.2502C39.58 19.985 39.4746 19.7307 39.2871 19.5431C39.0996 19.3556 38.8452 19.2502 38.58 19.2502ZM22.913 22.0002C22.5669 22.0002 22.2285 21.8976 21.9408 21.7053C21.653 21.513 21.4287 21.2397 21.2962 20.9199C21.1638 20.6002 21.1291 20.2483 21.1966 19.9088C21.2642 19.5694 21.4308 19.2576 21.6756 19.0128C21.9203 18.7681 22.2321 18.6014 22.5716 18.5339C22.9111 18.4664 23.2629 18.501 23.5827 18.6335C23.9025 18.7659 24.1758 18.9902 24.3681 19.278C24.5604 19.5658 24.663 19.9041 24.663 20.2502C24.6622 20.7141 24.4776 21.1588 24.1496 21.4868C23.8215 21.8148 23.3769 21.9994 22.913 22.0002Z" fill="#1B1A19"/>
<path d="M48.02 43.6159C47.2173 43.6159 46.536 43.5693 45.976 43.4759C45.4253 43.3826 45.0053 43.2053 44.716 42.9439C44.436 42.6733 44.296 42.2813 44.296 41.7679C44.296 41.4693 44.3753 41.1613 44.534 40.8439C44.6927 40.5266 44.8607 40.1999 45.038 39.8639C44.646 39.9106 44.296 39.8313 43.988 39.6259C43.68 39.4113 43.4653 39.1079 43.344 38.7159C43.232 38.3239 43.2227 37.9179 43.316 37.4979C43.4467 36.9659 43.6893 36.5553 44.044 36.2659C44.408 35.9673 44.7907 35.7853 45.192 35.7199C45.332 35.6919 45.472 35.6779 45.612 35.6779V34.8659C45.1267 34.8939 44.6507 34.9173 44.184 34.9359C43.7173 34.9453 43.2927 34.9499 42.91 34.9499L42.798 33.4379C43.0967 33.4659 43.498 33.4799 44.002 33.4799C44.506 33.4706 45.0427 33.4473 45.612 33.4099V31.7299H47.166V33.2839C47.6047 33.2373 48.006 33.1906 48.37 33.1439C48.7433 33.0879 49.0467 33.0273 49.28 32.9619L49.322 34.4879C49.042 34.5346 48.7153 34.5813 48.342 34.6279C47.978 34.6653 47.586 34.7073 47.166 34.7539V36.2239C47.4087 36.4573 47.5627 36.7466 47.628 37.0919C47.7027 37.4373 47.6747 37.8013 47.544 38.1839C47.4413 38.4919 47.306 38.7766 47.138 39.0379C46.97 39.2899 46.7973 39.5326 46.62 39.7659C46.452 39.9899 46.3073 40.2139 46.186 40.4379C46.074 40.6526 46.018 40.8766 46.018 41.1099C46.018 41.3619 46.0647 41.5533 46.158 41.6839C46.2607 41.8053 46.452 41.8893 46.732 41.9359C47.0213 41.9733 47.4507 41.9919 48.02 41.9919C48.748 41.9919 49.3313 41.9359 49.77 41.8239C50.2087 41.7119 50.5353 41.5299 50.75 41.2779C50.9647 41.0259 51.1047 40.6946 51.17 40.2839C51.2353 39.8639 51.2633 39.3506 51.254 38.7439C51.366 38.8093 51.5293 38.8793 51.744 38.9539C51.9587 39.0286 52.178 39.0939 52.402 39.1499C52.6353 39.1966 52.8173 39.2246 52.948 39.2339C52.948 40.2606 52.794 41.1006 52.486 41.7539C52.178 42.3979 51.6647 42.8693 50.946 43.1679C50.2367 43.4666 49.2613 43.6159 48.02 43.6159ZM53.396 38.0019C53.1907 37.7686 52.9153 37.5026 52.57 37.2039C52.2247 36.8959 51.8607 36.6066 51.478 36.3359C51.0953 36.0559 50.7407 35.8366 50.414 35.6779L51.464 34.4599C51.7627 34.5999 52.0987 34.8006 52.472 35.0619C52.8453 35.3139 53.2093 35.5846 53.564 35.8739C53.928 36.1539 54.2313 36.4153 54.474 36.6579L53.396 38.0019ZM44.828 38.5619C44.9867 38.6739 45.178 38.6739 45.402 38.5619C45.626 38.4499 45.7847 38.2259 45.878 37.8899C45.9433 37.6473 45.934 37.4466 45.85 37.2879C45.766 37.1199 45.6587 37.0173 45.528 36.9799C45.36 36.9239 45.1827 36.9613 44.996 37.0919C44.8187 37.2133 44.6927 37.4513 44.618 37.8059C44.5807 37.9833 44.5807 38.1373 44.618 38.2679C44.6647 38.3986 44.7347 38.4966 44.828 38.5619Z" fill="#1B1A19"/>
<path d="M33.082 41.6419C32.9233 41.4459 32.732 41.2453 32.508 41.0399C32.2933 40.8253 32.0787 40.6573 31.864 40.5359C32.508 40.0879 33.054 39.5419 33.502 38.8979C33.9593 38.2539 34.3233 37.5633 34.594 36.8259C34.874 36.0886 35.056 35.3606 35.14 34.6419L35.98 34.7679C35.9613 34.5626 35.9473 34.3573 35.938 34.1519C35.9287 33.9373 35.924 33.7179 35.924 33.4939H33.376V31.8839H37.52C37.436 33.1439 37.4827 34.2919 37.66 35.3279C37.8373 36.3546 38.192 37.2786 38.724 38.0999C39.256 38.9213 40.0027 39.6586 40.964 40.3119C40.7493 40.4893 40.5253 40.7086 40.292 40.9699C40.0587 41.2313 39.8767 41.4413 39.746 41.5999C38.9247 41.0026 38.2153 40.2979 37.618 39.4859C37.0207 38.6646 36.5773 37.6986 36.288 36.5879C35.9987 37.6146 35.5833 38.5573 35.042 39.4159C34.51 40.2653 33.8567 41.0073 33.082 41.6419ZM35.952 43.8399C34.9627 43.8399 34.1413 43.7886 33.488 43.6859C32.8347 43.5926 32.298 43.4433 31.878 43.2379C31.458 43.0419 31.0987 42.7946 30.8 42.4959C30.632 42.6173 30.4127 42.7619 30.142 42.9299C29.8807 43.0886 29.61 43.2473 29.33 43.4059C29.0593 43.5739 28.8213 43.7139 28.616 43.8259L27.93 42.1879C28.1167 42.1133 28.3407 42.0246 28.602 41.9219C28.8727 41.8099 29.134 41.6979 29.386 41.5859C29.638 41.4646 29.8247 41.3713 29.946 41.3059V37.8199H28.28V36.3639H31.542V41.0959C31.7193 41.5439 32.144 41.8613 32.816 42.0479C33.4973 42.2346 34.5427 42.3279 35.952 42.3279C37.1467 42.3279 38.1733 42.3093 39.032 42.2719C39.8907 42.2253 40.586 42.1646 41.118 42.0899C41.0713 42.1926 41.02 42.3559 40.964 42.5799C40.908 42.7946 40.8613 43.0186 40.824 43.2519C40.7867 43.4853 40.7633 43.6719 40.754 43.8119C40.4927 43.8119 40.152 43.8119 39.732 43.8119C39.312 43.8213 38.864 43.8259 38.388 43.8259C37.9213 43.8353 37.4733 43.8399 37.044 43.8399C36.6147 43.8399 36.2507 43.8399 35.952 43.8399ZM30.982 34.6979C30.814 34.4926 30.59 34.2593 30.31 33.9979C30.03 33.7366 29.736 33.4799 29.428 33.2279C29.12 32.9666 28.8353 32.7566 28.574 32.5979L29.624 31.5199C29.8573 31.6506 30.1327 31.8419 30.45 32.0939C30.7767 32.3366 31.0893 32.5933 31.388 32.8639C31.696 33.1253 31.934 33.3539 32.102 33.5499C32.018 33.6246 31.9013 33.7366 31.752 33.8859C31.6027 34.0259 31.4533 34.1706 31.304 34.3199C31.164 34.4693 31.0567 34.5953 30.982 34.6979Z" fill="#1B1A19"/>
<path d="M19.558 43.9659C19.4273 43.7419 19.2407 43.4946 18.998 43.2239C18.7553 42.9626 18.522 42.7526 18.298 42.5939C19.5767 42.0899 20.5613 41.3339 21.252 40.3259C21.952 39.3179 22.302 38.0859 22.302 36.6299C22.302 35.7433 22.1433 35.1273 21.826 34.7819C21.518 34.4273 21.1447 34.2639 20.706 34.2919C20.3607 34.3106 20.0387 34.5066 19.74 34.8799C19.4413 35.2439 19.222 35.7713 19.082 36.4619C18.9513 37.1526 18.956 37.9973 19.096 38.9959C18.9653 39.0053 18.7927 39.0286 18.578 39.0659C18.3727 39.1033 18.172 39.1453 17.976 39.1919C17.7893 39.2386 17.6493 39.2806 17.556 39.3179C17.4907 38.9726 17.4347 38.5386 17.388 38.0159C17.3507 37.4933 17.318 36.9286 17.29 36.3219C17.2713 35.7153 17.2573 35.1086 17.248 34.5019C17.248 33.8953 17.2573 33.3353 17.276 32.8219C17.2947 32.3086 17.3227 31.8933 17.36 31.5759L19.068 31.7299C19.0213 31.9539 18.9747 32.2433 18.928 32.5979C18.8907 32.9433 18.858 33.3119 18.83 33.7039C18.802 34.0959 18.7833 34.4739 18.774 34.8379C18.9887 34.2499 19.2967 33.7646 19.698 33.3819C20.1087 32.9899 20.5613 32.7893 21.056 32.7799C21.6253 32.7706 22.134 32.9106 22.582 33.1999C23.03 33.4799 23.3847 33.9093 23.646 34.4879C23.9073 35.0573 24.038 35.7713 24.038 36.6299C24.038 38.4313 23.6413 39.9246 22.848 41.1099C22.064 42.2859 20.9673 43.2379 19.558 43.9659Z" fill="#1B1A19"/>
<path d="M2.408 44.0219V38.2959C2.044 38.3333 1.694 38.3706 1.358 38.4079C1.022 38.4359 0.728 38.4593 0.476 38.4779L0.28 37.0499C0.410667 37.0499 0.56 37.0499 0.728 37.0499C0.905333 37.0406 1.08733 37.0313 1.274 37.0219C1.43267 36.8353 1.60067 36.6159 1.778 36.3639C1.95533 36.1119 2.13267 35.8506 2.31 35.5799C1.99267 35.3466 1.63333 35.0993 1.232 34.8379C0.84 34.5673 0.471333 34.3433 0.126 34.1659L0.854 32.9899C0.938 33.0366 1.02667 33.0879 1.12 33.1439C1.22267 33.1999 1.32533 33.2606 1.428 33.3259C1.55867 33.1113 1.68933 32.8733 1.82 32.6119C1.96 32.3413 2.09067 32.0799 2.212 31.8279C2.33333 31.5666 2.42667 31.3519 2.492 31.1839L3.85 31.6879C3.66333 32.0519 3.444 32.4486 3.192 32.8779C2.94933 33.3073 2.72067 33.6899 2.506 34.0259C2.60867 34.0913 2.70667 34.1566 2.8 34.2219C2.89333 34.2873 2.982 34.3479 3.066 34.4039C3.29 34.0399 3.49067 33.6946 3.668 33.3679C3.85467 33.0319 3.99933 32.7519 4.102 32.5279L5.404 33.1439C5.22667 33.4799 5.00267 33.8673 4.732 34.3059C4.46133 34.7446 4.172 35.1926 3.864 35.6499C3.56533 36.0979 3.27133 36.5179 2.982 36.9099C3.206 36.8913 3.42067 36.8726 3.626 36.8539C3.84067 36.8259 4.04133 36.8073 4.228 36.7979C4.172 36.6579 4.11133 36.5273 4.046 36.4059C3.99 36.2753 3.934 36.1586 3.878 36.0559L5.096 35.4959C5.19867 35.6639 5.30133 35.8553 5.404 36.0699C5.516 36.2846 5.62333 36.5039 5.726 36.7279C6.05267 36.4479 6.37467 36.1073 6.692 35.7059C7.01867 35.2953 7.28467 34.9173 7.49 34.5719H5.488V33.1859H8.344V31.3239H9.954V33.1859H12.894V34.5719H10.962C11.2327 34.9639 11.564 35.3559 11.956 35.7479C12.3573 36.1399 12.74 36.4526 13.104 36.6859C12.9267 36.8073 12.7353 36.9799 12.53 37.2039C12.3247 37.4279 12.1567 37.6239 12.026 37.7919C11.9327 37.7266 11.8393 37.6566 11.746 37.5819C11.662 37.5073 11.5687 37.4326 11.466 37.3579C11.186 38.5246 10.752 39.5513 10.164 40.4379C10.612 40.9326 11.1067 41.3619 11.648 41.7259C12.1987 42.0899 12.7633 42.4026 13.342 42.6639C13.23 42.7479 13.104 42.8693 12.964 43.0279C12.824 43.1866 12.6887 43.3546 12.558 43.5319C12.4367 43.7093 12.3387 43.8633 12.264 43.9939C11.088 43.4153 10.066 42.6406 9.198 41.6699C8.722 42.1739 8.19467 42.6219 7.616 43.0139C7.04667 43.4153 6.426 43.7513 5.754 44.0219C5.698 43.9099 5.61867 43.7653 5.516 43.5879C5.41333 43.4199 5.306 43.2519 5.194 43.0839C5.082 42.9253 4.97467 42.7993 4.872 42.7059C6.28133 42.2113 7.41533 41.4693 8.274 40.4799C7.994 40.0506 7.742 39.5979 7.518 39.1219C7.30333 38.6366 7.12133 38.1233 6.972 37.5819C6.90667 37.6473 6.83667 37.7126 6.762 37.7779C6.69667 37.8339 6.63133 37.8899 6.566 37.9459C6.50067 37.8526 6.412 37.7546 6.3 37.6519C6.19733 37.5493 6.09467 37.4513 5.992 37.3579C6.048 37.4979 6.09933 37.6333 6.146 37.7639C6.19267 37.8853 6.23467 38.0019 6.272 38.1139C6.08533 38.1793 5.85667 38.2679 5.586 38.3799C5.32467 38.4826 5.10533 38.5806 4.928 38.6739C4.9 38.5713 4.86733 38.4639 4.83 38.3519C4.79267 38.2306 4.75067 38.1093 4.704 37.9879C4.58267 38.0066 4.45667 38.0253 4.326 38.0439C4.19533 38.0626 4.05533 38.0813 3.906 38.0999V44.0219H2.408ZM9.198 39.1219C9.57133 38.4406 9.85133 37.6613 10.038 36.7839L11.186 37.0919C10.8687 36.7933 10.5653 36.4759 10.276 36.1399C9.98667 35.7946 9.73467 35.4539 9.52 35.1179L10.36 34.5719H7.938L8.89 35.1039C8.73133 35.4213 8.53533 35.7433 8.302 36.0699C8.06867 36.3966 7.81667 36.7046 7.546 36.9939L8.302 36.7979C8.40467 37.2366 8.53067 37.6519 8.68 38.0439C8.82933 38.4266 9.002 38.7859 9.198 39.1219ZM1.302 42.5939C1.134 42.5193 0.914667 42.4493 0.644 42.3839C0.382667 42.3093 0.168 42.2579 0 42.2299C0.14 41.9779 0.275333 41.6653 0.406 41.2919C0.546 40.9186 0.667333 40.5313 0.77 40.1299C0.882 39.7286 0.961333 39.3599 1.008 39.0239L2.268 39.2619C2.22133 39.5979 2.14667 39.9759 2.044 40.3959C1.94133 40.8159 1.82467 41.2219 1.694 41.6139C1.56333 42.0059 1.43267 42.3326 1.302 42.5939ZM5.18 41.8799C5.07733 41.6653 4.956 41.3946 4.816 41.0679C4.68533 40.7413 4.55933 40.4006 4.438 40.0459C4.31667 39.6913 4.214 39.3739 4.13 39.0939L5.376 38.6879C5.45067 38.9306 5.54867 39.2106 5.67 39.5279C5.79133 39.8453 5.922 40.1579 6.062 40.4659C6.202 40.7646 6.33267 41.0213 6.454 41.2359C6.26733 41.3013 6.048 41.3993 5.796 41.5299C5.544 41.6513 5.33867 41.7679 5.18 41.8799Z" fill="#1B1A19"/>
</svg>
