<svg width="24" height="24" viewBox="0 0 24 24" fill="none" xmlns="http://www.w3.org/2000/svg">
<path d="M19 0H5C3.67441 0.00158786 2.40356 0.528882 1.46622 1.46622C0.528882 2.40356 0.00158786 3.67441 0 5L0 19C0.00158786 20.3256 0.528882 21.5964 1.46622 22.5338C2.40356 23.4711 3.67441 23.9984 5 24H19C20.3256 23.9984 21.5964 23.4711 22.5338 22.5338C23.4711 21.5964 23.9984 20.3256 24 19V5C23.9984 3.67441 23.4711 2.40356 22.5338 1.46622C21.5964 0.528882 20.3256 0.00158786 19 0V0ZM22 19C22 19.7956 21.6839 20.5587 21.1213 21.1213C20.5587 21.6839 19.7956 22 19 22H5C4.20435 22 3.44129 21.6839 2.87868 21.1213C2.31607 20.5587 2 19.7956 2 19V5C2 4.20435 2.31607 3.44129 2.87868 2.87868C3.44129 2.31607 4.20435 2 5 2H19C19.7956 2 20.5587 2.31607 21.1213 2.87868C21.6839 3.44129 22 4.20435 22 5V19Z" fill="#99A1AF"/>
<path d="M15.4078 6.28432L11.0323 6.28432C10.8232 6.28795 10.6239 6.37357 10.4773 6.52273C10.3307 6.6719 10.2486 6.87267 10.2486 7.08181C10.2486 7.29095 10.3307 7.49173 10.4773 7.64089C10.6239 7.79005 10.8232 7.87567 11.0323 7.87931L15.4078 7.87931C15.5391 7.8806 15.6698 7.89764 15.797 7.93007C15.7885 7.93853 15.7773 7.94078 15.7688 7.94924L6.94107 16.8131C6.79149 16.9627 6.70745 17.1655 6.70745 17.3771C6.70745 17.5886 6.79149 17.7915 6.94107 17.9411C7.09065 18.0907 7.29353 18.1747 7.50507 18.1747C7.71661 18.1747 7.91949 18.0907 8.06907 17.9411L16.8934 9.08063C16.9092 9.06484 16.9143 9.04397 16.9284 9.02761C16.9738 9.17304 16.9981 9.32423 17.0006 9.47656L17.0006 13.8521C16.9987 13.958 17.018 14.0632 17.0573 14.1615C17.0965 14.2599 17.155 14.3495 17.2292 14.425C17.3034 14.5005 17.392 14.5605 17.4896 14.6015C17.5873 14.6425 17.6922 14.6635 17.7981 14.6635C17.904 14.6635 18.0088 14.6425 18.1065 14.6015C18.2042 14.5605 18.2927 14.5005 18.367 14.425C18.4412 14.3495 18.4996 14.2599 18.5389 14.1615C18.5781 14.0632 18.5974 13.958 18.5956 13.8521L18.5956 9.47656C18.5954 8.63056 18.2593 7.81925 17.6611 7.22104C17.0629 6.62283 16.2516 6.2867 15.4056 6.28657L15.4078 6.28432Z" fill="#99A1AF"/>
</svg>
