<svg width="62" height="62" viewBox="0 0 62 62" fill="none" xmlns="http://www.w3.org/2000/svg">
<circle cx="31" cy="31" r="30.5" stroke="black"/>
<path d="M42.2272 24.2705H40.0117V41.9908H42.2272C43.2063 41.9908 43.9997 41.1966 43.9997 40.2183V26.043C43.9997 25.0632 43.2063 24.2705 42.2272 24.2705Z" fill="#005CAF"/>
<path d="M18 26.043V40.2183C18 41.1966 18.7934 41.9908 19.7741 41.9908H21.9896V24.2705H19.7741C18.7934 24.2705 18 25.0632 18 26.043Z" fill="#005CAF"/>
<path d="M27.1127 27.6935C26.939 27.8671 26.939 28.1488 27.1127 28.3221C27.2864 28.4958 27.5676 28.4958 27.7413 28.3221C27.915 28.1488 27.915 27.8672 27.7413 27.6935C27.5676 27.5201 27.2863 27.5201 27.1127 27.6935Z" fill="#005CAF"/>
<path d="M36 21.456C36 20.6575 35.3493 20.0088 34.5528 20.0088H27.448C26.6499 20.0088 26.0008 20.6575 26.0008 21.456V24.2703H23.7617V41.9906H38.2391V24.2703H36V21.456ZM32.4987 30.8858L30.3041 33.0803C30.0724 33.3117 29.6971 33.3117 29.4654 33.0803L26.0646 29.6796C25.9536 29.5682 25.8909 29.4172 25.8909 29.2602V27.0652C25.8909 26.738 26.1567 26.4725 26.484 26.4725H28.6786C28.836 26.4725 28.9869 26.5348 29.0983 26.6463L32.4987 30.047C32.7299 30.2784 32.7299 30.654 32.4987 30.8858ZM34.2271 24.2703H27.7737V21.7821H34.2271V24.2703Z" fill="#005CAF"/>
</svg>
