<svg width="62" height="62" viewBox="0 0 62 62" fill="none" xmlns="http://www.w3.org/2000/svg">
<circle cx="31" cy="31" r="30.5" stroke="black"/>
<g clip-path="url(#clip0_657_100)">
<path d="M28.4323 38.3342H17.9536V22.9696H28.4323V29.1074L29.385 29.585V21.8844C29.385 21.0445 28.698 20.3574 27.8589 20.3574H18.5261C17.6853 20.3574 17 21.0444 17 21.8844V40.1159C17 40.955 17.6853 41.6428 18.5261 41.6428H27.8589C28.698 41.6428 29.385 40.955 29.385 40.1159V34.5565C29.0637 34.3958 28.7424 34.2352 28.4322 34.0788L28.4323 38.3342ZM23.1925 40.2047C22.9404 40.2047 22.7354 39.9996 22.7354 39.7467C22.7354 39.4938 22.9404 39.2887 23.1925 39.2887C23.4445 39.2887 23.6514 39.4938 23.6514 39.7467C23.6514 39.9996 23.4446 40.2047 23.1925 40.2047Z" fill="#005CAF"/>
<path d="M42.0831 29.0676L36.763 26.3974C36.5032 26.2675 36.223 26.2043 35.9495 26.2051C35.2865 26.2034 34.6456 26.5708 34.3277 27.2048C34.2474 27.3638 34.1961 27.5296 34.1671 27.697C34.1337 27.6953 34.1004 27.6919 34.0679 27.6919C33.4048 27.6902 32.7639 28.0576 32.4452 28.6916C32.3187 28.942 32.2581 29.212 32.2564 29.4752C32.0641 29.5393 31.8889 29.6367 31.7496 29.7597C31.5078 29.9682 31.336 30.2263 31.1985 30.498C31.1361 30.6245 31.0977 30.7544 31.0738 30.8893L27.5806 29.1359C27.3208 29.006 27.0406 28.9428 26.7671 28.9428C26.1032 28.9419 25.4632 29.3102 25.1436 29.9434V29.9443C25.0137 30.2032 24.9522 30.4826 24.9522 30.7561C24.9505 31.4192 25.3179 32.0609 25.9536 32.3796L32.6059 35.7173C32.7042 35.7668 33.8175 36.3248 33.921 36.377L33.9193 36.3761C33.9876 36.4094 34.0611 36.4539 34.1226 36.4974L31.748 37.0657C30.8354 37.2861 30.2219 38.0979 30.2219 38.9986C30.2219 39.1507 30.2398 39.3071 30.2775 39.4617C30.4962 40.3752 31.3097 40.9887 32.2103 40.9887C32.3642 40.9887 32.518 40.9708 32.6718 40.934H32.6727L37.7099 39.7292C38.7626 39.4993 39.4172 39.2806 40.3041 39.0242C41.1228 38.7875 41.9132 38.5389 42.6335 38.1108C43.353 37.6861 43.9896 37.064 44.4382 36.1625C44.8192 35.4037 45.0003 34.5928 45.0003 33.7955C45.0012 31.8602 43.9313 29.9939 42.0831 29.0676ZM43.4195 35.6515C43.0589 36.3616 42.6146 36.7923 42.0489 37.1315C41.4849 37.4691 40.7876 37.6998 39.9878 37.9288C39.0709 38.1937 38.4625 38.3979 37.4611 38.6158L37.45 38.6193L32.4068 39.8258H32.4085C32.3418 39.8412 32.2751 39.848 32.2102 39.8489C31.8283 39.848 31.4771 39.5866 31.3848 39.1969C31.3694 39.1286 31.3617 39.0636 31.3617 38.9987C31.3617 38.6176 31.6232 38.2664 32.0137 38.1732L34.5165 37.5751C34.5635 37.5648 34.6062 37.5477 34.649 37.5255C34.8489 37.4195 35.0181 37.3008 35.1539 37.1376C35.2898 36.9778 35.3838 36.753 35.3821 36.5325C35.3821 36.3369 35.3171 36.1685 35.2411 36.0404C35.124 35.8455 34.9805 35.7174 34.8404 35.6097C34.7002 35.5037 34.5584 35.4217 34.4311 35.3576L34.4302 35.3568C34.3294 35.3072 33.2151 34.7484 33.1168 34.6988L26.4638 31.3603C26.2271 31.2424 26.0921 31.0048 26.0921 30.7562C26.0921 30.6536 26.1143 30.5528 26.1639 30.4545C26.2818 30.2187 26.5185 30.0837 26.7671 30.0828C26.8688 30.0828 26.9705 30.105 27.0696 30.1546L31.8565 32.5575C31.8906 32.5746 31.9265 32.5883 31.9641 32.5976C31.971 32.5993 31.9778 32.6002 31.9846 32.6019C32.0137 32.6078 32.0445 32.6139 32.0735 32.6164C32.0838 32.6164 32.0923 32.6156 32.1008 32.6156C32.1291 32.6156 32.1564 32.6164 32.1846 32.6121C32.2102 32.6087 32.2367 32.6018 32.2623 32.595C32.2717 32.5924 32.282 32.5915 32.2914 32.5882C32.2914 32.5882 32.2914 32.5882 32.2923 32.5882C32.3606 32.5651 32.4264 32.5283 32.4837 32.4805C32.4854 32.4779 32.4871 32.4753 32.4888 32.4736C32.5418 32.4275 32.588 32.3702 32.6221 32.3027C32.6392 32.2686 32.6529 32.2327 32.6631 32.1959C32.6648 32.1874 32.6648 32.1788 32.6666 32.1703C32.6734 32.1421 32.6794 32.1139 32.6811 32.0857C32.682 32.0754 32.6803 32.0661 32.6803 32.0566C32.6803 32.0293 32.6811 32.002 32.6768 31.9746C32.6751 31.9593 32.67 31.9438 32.6665 31.9285C32.6631 31.908 32.6597 31.8874 32.6529 31.8678C32.6529 31.8669 32.6529 31.8669 32.6529 31.8661C32.6289 31.7969 32.593 31.732 32.5444 31.6756C32.5435 31.6739 32.5409 31.673 32.5392 31.6704C32.4922 31.6175 32.435 31.5713 32.3675 31.538C32.3068 31.5064 32.2734 31.4696 32.2393 31.4072C32.2068 31.3466 32.1863 31.2585 32.1871 31.1748C32.1863 31.0962 32.2077 31.0253 32.2171 31.0091C32.3076 30.8279 32.4102 30.6929 32.4922 30.6245C32.5777 30.5545 32.6187 30.5434 32.6853 30.5408C32.7109 30.5408 32.7434 30.5443 32.7853 30.5554C32.9981 30.6126 33.2219 30.5426 33.3654 30.3759C33.509 30.2093 33.5432 29.9769 33.4543 29.7753C33.415 29.6847 33.3945 29.589 33.3945 29.495C33.3945 29.3958 33.4159 29.2984 33.4637 29.2027C33.5825 28.9669 33.8192 28.8319 34.0678 28.8319C34.1687 28.8319 34.2712 28.8541 34.3703 28.9037L34.5438 28.9909C34.7566 29.0969 35.0112 29.0609 35.1855 28.8994C35.3598 28.7379 35.4162 28.4876 35.3274 28.268C35.2932 28.1842 35.2761 28.0954 35.2761 28.0082C35.2761 27.909 35.2983 27.8125 35.3461 27.7168C35.464 27.4801 35.7016 27.3451 35.9494 27.3451C36.0502 27.3451 36.1528 27.3673 36.251 27.4169L41.572 30.0864C43.0229 30.8127 43.8594 32.2756 43.8603 33.7957C43.8604 34.4211 43.7186 35.0525 43.4195 35.6515Z" fill="#005CAF"/>
</g>
<defs>
<clipPath id="clip0_657_100">
<rect width="28" height="28" fill="white" transform="translate(17 17)"/>
</clipPath>
</defs>
</svg>
