<svg width="30" height="45" viewBox="0 0 30 45" fill="none" xmlns="http://www.w3.org/2000/svg">
<path d="M23.878 10.667C23.878 8.19164 22.8949 5.81772 21.1446 4.06738C19.3943 2.31704 17.0204 1.33398 14.545 1.33398C12.0696 1.33398 9.69573 2.31704 7.94539 4.06738C6.19505 5.81772 5.21199 8.19164 5.21199 10.667C5.21199 13.5628 6.83076 16.6012 8.8282 19.2256C10.7955 21.8103 13.0505 23.8906 14.2042 24.8887C14.3035 24.9604 14.4223 25 14.545 25C14.6674 25 14.7857 24.9601 14.8848 24.8887C16.0383 23.8908 18.2942 21.8107 20.2618 19.2256C22.2592 16.6012 23.878 13.5628 23.878 10.667ZM25.212 10.667C25.212 14.0124 23.369 17.3454 21.3233 20.0332C19.2622 22.7412 16.9108 24.9017 15.7315 25.9199C15.7203 25.9296 15.7092 25.9393 15.6973 25.9482C15.3652 26.198 14.9605 26.333 14.545 26.333C14.1295 26.333 13.7248 26.198 13.3927 25.9482C13.3808 25.9393 13.3697 25.9296 13.3585 25.9199C12.1792 24.9017 9.8278 22.7412 7.76668 20.0332C5.72099 17.3454 3.87801 14.0124 3.87801 10.667C3.87801 7.83802 5.00262 5.12539 7.00301 3.125C9.0034 1.12461 11.716 2.52556e-07 14.545 0C17.374 0 20.0866 1.12461 22.087 3.125C24.0874 5.12539 25.212 7.83802 25.212 10.667Z" fill="#F3F3F3"/>
<path d="M17.628 10.667C17.628 8.96411 16.2479 7.58398 14.545 7.58398C12.8421 7.58398 11.462 8.96411 11.462 10.667C11.462 12.3699 12.8421 13.75 14.545 13.75C16.2479 13.75 17.628 12.3699 17.628 10.667ZM18.962 10.667C18.962 13.1062 16.9843 15.084 14.545 15.084C12.1057 15.084 10.128 13.1062 10.128 10.667C10.128 8.22773 12.1057 6.25 14.545 6.25C16.9843 6.25 18.962 8.22773 18.962 10.667Z" fill="#F3F3F3"/>
<path d="M0 44.167V33.112H2.01L4.02 38.707C4.15 39.067 4.275 39.437 4.395 39.817C4.515 40.187 4.635 40.557 4.755 40.927H4.83C4.96 40.557 5.08 40.187 5.19 39.817C5.31 39.437 5.43 39.067 5.55 38.707L7.53 33.112H9.555V44.167H7.935V38.707C7.935 38.377 7.945 38.012 7.965 37.612C7.995 37.212 8.025 36.807 8.055 36.397C8.095 35.987 8.135 35.617 8.175 35.287H8.1L7.215 37.837L5.295 43.102H4.215L2.28 37.837L1.395 35.287H1.335C1.375 35.617 1.41 35.987 1.44 36.397C1.48 36.807 1.51 37.212 1.53 37.612C1.56 38.012 1.575 38.377 1.575 38.707V44.167H0Z" fill="#F3F3F3"/>
<path d="M10.9962 44.167L14.6562 33.112H16.6662L20.3262 44.167H18.4812L16.6962 38.167C16.5162 37.567 16.3412 36.962 16.1712 36.352C16.0012 35.732 15.8312 35.112 15.6612 34.492H15.6012C15.4412 35.122 15.2712 35.742 15.0912 36.352C14.9212 36.962 14.7462 37.567 14.5662 38.167L12.7812 44.167H10.9962ZM13.0662 41.032V39.652H18.2262V41.032H13.0662Z" fill="#F3F3F3"/>
<path d="M21.7822 44.167V33.112H25.1272C25.9572 33.112 26.6872 33.222 27.3172 33.442C27.9472 33.652 28.4422 34.002 28.8022 34.492C29.1722 34.972 29.3572 35.632 29.3572 36.472C29.3572 37.272 29.1772 37.932 28.8172 38.452C28.4572 38.962 27.9622 39.347 27.3322 39.607C26.7122 39.857 25.9972 39.982 25.1872 39.982H23.5222V44.167H21.7822ZM23.5222 38.572H25.0372C25.9072 38.572 26.5572 38.402 26.9872 38.062C27.4172 37.722 27.6322 37.192 27.6322 36.472C27.6322 35.732 27.4072 35.222 26.9572 34.942C26.5072 34.662 25.8422 34.522 24.9622 34.522H23.5222V38.572Z" fill="#F3F3F3"/>
</svg>
