<svg width="62" height="62" viewBox="0 0 62 62" fill="none" xmlns="http://www.w3.org/2000/svg">
<circle cx="31" cy="31" r="30.5" stroke="black"/>
<g clip-path="url(#clip0_657_101)">
<path d="M40.1159 25.6624H36.6649L40.038 23.1347L36.2205 20.2734L32.4027 23.1347L35.7762 25.6624H26.2241L29.5973 23.1347L25.7798 20.2734L21.9623 23.1347L25.3358 25.6624H21.8841C19.7389 25.6624 18 27.4014 18 29.5466V38.9843C18 39.3693 18.3122 39.6815 18.6972 39.6815H20.7837C20.7689 39.7731 20.7555 39.8651 20.7555 39.9605C20.7555 40.9356 21.5458 41.7258 22.5209 41.7258C23.4957 41.7258 24.2862 40.9356 24.2862 39.9605C24.2862 39.8651 24.2728 39.7731 24.2581 39.6815H25.3279C25.3132 39.7731 25.2998 39.8651 25.2998 39.9605C25.2998 40.9356 26.09 41.7258 27.0652 41.7258C28.04 41.7258 28.8305 40.9356 28.8305 39.9605C28.8305 39.8651 28.8171 39.7731 28.8024 39.6815H33.1981C33.1833 39.7731 33.1699 39.8651 33.1699 39.9605C33.1699 40.9356 33.9601 41.7258 34.9352 41.7258C35.91 41.7258 36.7006 40.9356 36.7006 39.9605C36.7006 39.8651 36.6872 39.7731 36.6725 39.6815H37.7423C37.7276 39.7731 37.7142 39.8651 37.7142 39.9605C37.7142 40.9356 38.5045 41.7258 39.4796 41.7258C40.4544 41.7258 41.2449 40.9356 41.2449 39.9605C41.2449 39.8651 41.2315 39.7731 41.2167 39.6815H43.3029C43.6878 39.6815 44.0001 39.3693 44.0001 38.9843V29.5466C44 27.4014 42.2611 25.6624 40.1159 25.6624ZM25.598 36.8707H22.4358V30.5464H25.598V36.8707ZM25.7798 24.6784L23.7197 23.1348L25.7798 21.5907L27.8399 23.1348L25.7798 24.6784ZM32.625 33.7085H28.9358V30.5464H32.625V33.7085ZM34.1604 23.1348L36.2205 21.5907L38.2806 23.1348L36.2205 24.6784L34.1604 23.1348ZM39.5642 33.7085H35.875V30.5464H39.5642V33.7085Z" fill="#005CAF"/>
</g>
<defs>
<clipPath id="clip0_657_101">
<rect width="26" height="26" fill="white" transform="translate(18 18)"/>
</clipPath>
</defs>
</svg>
