<svg width="18" height="25" viewBox="0 0 18 25" fill="none" xmlns="http://www.w3.org/2000/svg">
<path d="M12.0037 5C12.0037 5.26522 11.8983 5.51957 11.7108 5.70711C11.5233 5.89464 11.2689 6 11.0037 6H7.00368C6.73847 6 6.48411 5.89464 6.29658 5.70711C6.10904 5.51957 6.00368 5.26522 6.00368 5C6.00368 4.73478 6.10904 4.48043 6.29658 4.29289C6.48411 4.10536 6.73847 4 7.00368 4H11.0037C11.2689 4 11.5233 4.10536 11.7108 4.29289C11.8983 4.48043 12.0037 4.73478 12.0037 5ZM18.0037 5.72V16.177C18.0033 17.4335 17.5299 18.6437 16.6777 19.567L17.9277 22.621C17.9774 22.7426 18.0027 22.8728 18.002 23.0042C18.0014 23.1355 17.9749 23.2655 17.9241 23.3866C17.8733 23.5078 17.7991 23.6177 17.7057 23.7102C17.6124 23.8026 17.5018 23.8758 17.3802 23.9255C17.2586 23.9752 17.1284 24.0005 16.997 23.9999C16.8656 23.9992 16.7357 23.9728 16.6145 23.9219C16.4934 23.8711 16.3835 23.7969 16.291 23.7036C16.1986 23.6102 16.1254 23.4996 16.0757 23.378L15.0037 20.745C13.1255 21.6154 11.0732 22.0447 9.00368 22C6.93418 22.0443 4.88193 21.6151 3.00368 20.745L1.93068 23.378C1.88222 23.5013 1.80974 23.6137 1.71746 23.7088C1.62518 23.8038 1.51494 23.8796 1.39313 23.9317C1.27132 23.9837 1.14038 24.0111 1.00791 24.0121C0.875439 24.0132 0.744081 23.9879 0.621465 23.9378C0.498848 23.8876 0.387418 23.8136 0.293645 23.72C0.199872 23.6265 0.125626 23.5152 0.0752194 23.3927C0.0248129 23.2702 -0.00074957 23.1389 1.67321e-05 23.0064C0.000783034 22.8739 0.0278629 22.7429 0.0796833 22.621L1.32868 19.567C0.476804 18.6436 0.00376768 17.4333 0.00368337 16.177V5.72C0.00040827 4.65944 0.335667 3.62551 0.960669 2.76867C1.58567 1.91183 2.4678 1.2768 3.47868 0.956C5.26057 0.356442 7.12394 0.0340187 9.00368 0C10.8835 0.0337401 12.747 0.356516 14.5287 0.957C15.5397 1.27734 16.4219 1.91211 17.047 2.76884C17.672 3.62557 18.0072 4.6595 18.0037 5.72ZM16.0037 11.737C14.4507 14.065 12.0537 16 9.00368 16C5.95368 16 3.55668 14.065 2.00368 11.737V16.177C1.99894 16.7072 2.13678 17.2289 2.40278 17.6875C2.66877 18.1461 3.05315 18.5248 3.51568 18.784C5.21384 19.6439 7.10125 20.0621 9.00368 20C10.9058 20.0623 12.793 19.6441 14.4907 18.784C14.9535 18.5251 15.3381 18.1464 15.6043 17.6878C15.8705 17.2291 16.0084 16.7073 16.0037 16.177V11.737ZM16.0037 6V5.72C16.0059 5.08394 15.8051 4.46377 15.4304 3.94974C15.0558 3.43571 14.5269 3.05465 13.9207 2.862C12.3354 2.32489 10.6771 2.03418 9.00368 2C7.33035 2.03442 5.67215 2.32478 4.08668 2.861C3.4805 3.05397 2.95166 3.43526 2.57705 3.94943C2.20244 4.46359 2.00158 5.08384 2.00368 5.72V6C2.00368 8.443 4.64868 14 9.00368 14C13.3587 14 16.0037 8.443 16.0037 6ZM9.00368 17C8.8059 17 8.61256 17.0586 8.44811 17.1685C8.28366 17.2784 8.15549 17.4346 8.0798 17.6173C8.00412 17.8 7.98431 18.0011 8.0229 18.1951C8.06148 18.3891 8.15672 18.5673 8.29658 18.7071C8.43643 18.847 8.61461 18.9422 8.80859 18.9808C9.00257 19.0194 9.20364 18.9996 9.38637 18.9239C9.56909 18.8482 9.72527 18.72 9.83515 18.5556C9.94503 18.3911 10.0037 18.1978 10.0037 18C10.0037 17.7348 9.89833 17.4804 9.71079 17.2929C9.52325 17.1054 9.2689 17 9.00368 17Z" fill="#99A1AF"/>
</svg>
