<svg width="80" height="80" viewBox="0 0 80 80" fill="none" xmlns="http://www.w3.org/2000/svg">
<rect width="80" height="80" rx="40" fill="#D0E6F9"/>
<path d="M56.86 39.1628L53.7329 34.7946C52.9733 33.7634 51.9864 32.9215 50.8479 32.3356L44.4606 28.9821C42.9848 28.3805 41.9193 27.8861 40.3761 27.8141L38.5926 27.7631C37.4874 27.7447 36.3645 28.0922 35.593 28.885L29.5143 34.3408L24.2489 35.7852C23.2518 36.0587 22.6437 37.0649 22.8646 38.075L22.8831 38.1535C23.1003 39.1469 24.0474 39.804 25.0547 39.6598L29.2962 39.0554C30.3544 38.9039 31.3756 38.5601 32.3088 38.0417L34.8722 36.3117L35.0035 44.8198C34.9775 45.5045 34.9628 45.9721 34.6754 46.472L25.9825 61.5717C25.3615 62.6483 25.7284 64.0233 26.8012 64.6488L26.876 64.6923C27.8916 65.2847 29.1909 64.9983 29.8635 64.0353L39.7938 49.992L43.5974 58.316C43.8912 58.7032 44.247 59.0377 44.6509 59.3086L52.2414 64.391C53.1968 65.0323 54.4869 64.8289 55.2003 63.9243L55.2852 63.8161C55.6503 63.3532 55.8138 62.7628 55.7418 62.1777C55.6687 61.5928 55.3647 61.0605 54.8971 60.702L48.3508 55.6721L44.5602 44.9601L44.8985 35.3569L49.4431 36.7228L54.2224 41.4153C54.8231 42.0057 55.7657 42.0713 56.4421 41.5687L56.4883 41.5354C57.2389 40.9787 57.4053 39.9225 56.86 39.1628Z" fill="#036FC8"/>
<path d="M44.838 21.6494C44.3816 24.9901 47.4929 25.3541 48.381 24.4217C47.4551 24.2368 47.1529 22.2667 47.6158 20.9701C48.0797 19.6736 48.4808 17.1416 47.2694 15.9939C45.7188 14.5228 43.2939 14.6725 42.2441 16.5244C42.5527 16.895 43.2403 17.2859 43.6025 17.6979C44.5903 17.3274 45.1337 19.4816 44.838 21.6494Z" fill="#036FC8"/>
<path d="M38.4605 25.9281C41.0378 26.3217 43.4479 24.5521 43.8434 21.974C44.237 19.3957 42.4664 16.9857 39.8883 16.5911C37.3101 16.1966 34.9001 17.9671 34.5064 20.5453C34.1108 23.1234 35.8824 25.5334 38.4605 25.9281Z" fill="#036FC8"/>
</svg>
