<svg width="87" height="71" viewBox="0 0 87 71" fill="none" xmlns="http://www.w3.org/2000/svg">
<path d="M43.8725 0C36.1508 0 29.8912 6.25967 29.8912 13.9814H33.266C34.7123 0 53.0327 0 54.4791 13.9814H57.8539C57.8539 6.25967 51.5942 0 43.8725 0Z" fill="#423535"/>
<rect y="13.4992" width="86.7808" height="56.8897" rx="5" fill="#735454"/>
<path d="M0 51.1042H1.28463C11.2258 51.1042 19.2846 59.1631 19.2846 69.1042V70.3889H5C2.23858 70.3889 0 68.1503 0 65.3889V51.1042Z" fill="#423535"/>
<path d="M67.4962 69.1042C67.4962 59.1631 75.5551 51.1042 85.4962 51.1042H86.7808V65.3889C86.7808 68.1503 84.5423 70.3889 81.7808 70.3889H67.4962V69.1042Z" fill="#423535"/>
<path d="M10.6066 13.535C10.6066 12.9827 11.0543 12.535 11.6066 12.535H18.2846C18.8369 12.535 19.2847 12.9827 19.2847 13.535V32.3821H10.6066V13.535Z" fill="#423535"/>
<path d="M14.9456 37.6049L19.2847 32.3819H10.6066L14.9456 37.6049Z" fill="#423535"/>
<path d="M67.4962 13.535C67.4962 12.9827 67.9439 12.535 68.4962 12.535H75.1743C75.7266 12.535 76.1743 12.9827 76.1743 13.535V32.3821H67.4962V13.535Z" fill="#423535"/>
<path d="M71.8353 37.6049L76.1743 32.3819H67.4962L71.8353 37.6049Z" fill="#423535"/>
<rect x="9.64233" y="26.9985" width="10.6065" height="2.89269" fill="#F0D089"/>
<rect x="66.532" y="26.9985" width="10.6065" height="2.89269" fill="#F0D089"/>
</svg>
