<svg width="109" height="143" viewBox="0 0 109 143" fill="none" xmlns="http://www.w3.org/2000/svg">
<path d="M41.1953 93.9922H53.6695V135.041C53.6695 138.486 50.8771 141.278 47.4324 141.278V141.278C43.9878 141.278 41.1953 138.486 41.1953 135.041V93.9922Z" fill="#EDDFC3"/>
<path d="M41.7734 0C49.3632 0 56.1881 3.58803 60.9121 9.2998C74.7727 9.79732 85.8699 22.2621 85.8701 37.5674C85.8701 44.9817 83.2638 51.7285 79.0029 56.7725C81.8595 61.4646 83.5497 67.263 83.5498 73.54C83.5498 89.1612 73.0938 101.825 60.1963 101.825C55.3338 101.825 50.8189 100.024 47.0801 96.9443C43.3373 106.517 35.2897 113.139 25.9639 113.139C13.0666 113.138 2.61133 100.475 2.61133 84.8535C2.61141 78.3863 4.4044 72.4267 7.41992 67.6621C2.83202 62.7923 8.59225e-05 56.1108 0 48.7373C0 37.3491 6.75233 27.6083 16.3018 23.6494C18.3207 10.2336 28.9554 0.000214204 41.7734 0Z" fill="#096148"/>
<path d="M84.6328 101.102H91.4369V123.492C91.4369 125.371 89.9138 126.894 88.0349 126.894V126.894C86.156 126.894 84.6328 125.371 84.6328 123.492V101.102Z" fill="#EDDFC3"/>
<path d="M84.9482 49.833C89.0881 49.833 92.811 51.7898 95.3877 54.9053C102.947 55.1773 109 61.9763 109 70.3242C109 74.3685 107.578 78.0485 105.254 80.7998C106.812 83.3591 107.733 86.5216 107.733 89.9453C107.733 98.4658 102.031 105.373 94.9961 105.373C92.3435 105.373 89.8803 104.391 87.8408 102.711C85.7993 107.932 81.4109 111.544 76.3242 111.544C69.2892 111.544 63.5859 104.637 63.5859 96.1162C63.586 92.5884 64.5639 89.3372 66.209 86.7383C63.7067 84.082 62.1621 80.4377 62.1621 76.416C62.1621 70.2043 65.845 64.8908 71.0537 62.7314C72.1554 55.4142 77.9568 49.833 84.9482 49.833Z" fill="#00896C"/>
<path d="M26.7129 133.058L26.7129 141.277" stroke="#096148"/>
<path d="M27.3742 139.084C28.32 137.663 29.4388 136.821 29.8723 137.205C30.3054 137.589 29.8901 139.053 28.9445 140.474C28.0917 141.755 27.0987 142.564 26.5939 142.43C25.9721 142.574 25.0003 142.278 24.0637 141.591C22.7533 140.629 22.0093 139.273 22.4016 138.562C22.7939 137.85 24.174 138.053 25.4846 139.015C25.992 139.387 26.4144 139.819 26.7189 140.249C26.8926 139.873 27.1128 139.477 27.3742 139.084Z" fill="#00896C"/>
<path d="M25.8242 123.811C27.3638 123.811 28.6118 125.048 28.6338 126.582C28.8964 126.501 29.1756 126.458 29.4648 126.458C31.0181 126.458 32.2773 127.717 32.2773 129.271C32.2773 130.177 31.8459 130.981 31.1797 131.495C31.2463 131.735 31.2852 131.987 31.2852 132.248C31.2852 133.801 30.026 135.061 28.4727 135.061C27.8499 135.061 27.2766 134.855 26.8105 134.513C26.3026 135.243 25.4591 135.723 24.502 135.723C22.9487 135.723 21.6895 134.463 21.6895 132.91C21.6895 132.773 21.7028 132.639 21.7217 132.508C20.7292 132.073 20.0352 131.084 20.0352 129.932C20.0352 128.378 21.2944 127.119 22.8477 127.119C22.919 127.119 22.9895 127.125 23.0596 127.13C23.0296 126.965 23.0117 126.796 23.0117 126.623C23.0117 125.07 24.2709 123.811 25.8242 123.811ZM26.6543 129.311C26.3919 129.392 26.1132 129.436 25.8242 129.436C25.7525 129.436 25.6817 129.429 25.6113 129.424C25.6414 129.589 25.6602 129.758 25.6602 129.932C25.6602 130.068 25.6457 130.202 25.627 130.333C25.8182 130.417 25.9969 130.522 26.1631 130.645C26.3279 130.408 26.5287 130.199 26.7568 130.022C26.6939 129.795 26.6577 129.557 26.6543 129.311Z" fill="#FAD689"/>
<circle cx="26.1558" cy="130.263" r="1.81985" fill="white"/>
</svg>
