<svg width="55" height="93" viewBox="0 0 55 93" fill="none" xmlns="http://www.w3.org/2000/svg">
<rect x="6.55292" y="80" width="3" height="6" transform="rotate(15 6.55292 80)" fill="#565656"/>
<rect width="3" height="6" transform="matrix(-0.965926 0.258819 0.258819 0.965926 48.8978 80)" fill="#565656"/>
<rect y="13" width="55" height="69" rx="10" fill="#FAD689"/>
<rect x="18" y="7" width="3" height="6" fill="#D9D9D9"/>
<rect x="33" y="7" width="3" height="6" fill="#D9D9D9"/>
<path d="M17 4C17 1.79086 18.7909 0 21 0H22V8H17V4Z" fill="#808080"/>
<path d="M32 0H33C35.2091 0 37 1.79086 37 4V8H32V0Z" fill="#808080"/>
<rect x="21" width="12" height="4" fill="#808080"/>
<path d="M0 71H6C8.76142 71 11 73.2386 11 76V82H10C4.47715 82 0 77.5228 0 72V71Z" fill="#808080"/>
<path d="M44 76C44 73.2386 46.2386 71 49 71H55V72C55 77.5228 50.5228 82 45 82H44V76Z" fill="#808080"/>
<circle cx="49" cy="88" r="5" fill="#808080"/>
<circle cx="49" cy="88" r="3" fill="#565656"/>
<path d="M10.5 13C11.5 13 33.5 13 45 13" stroke="#808080"/>
<path d="M15 24C15 25.3333 15 54.6667 15 70" stroke="#C2B798"/>
<path d="M28 24C28 25.3333 28 54.6667 28 70" stroke="#C2B798"/>
<path d="M41 24C41 25.3333 41 54.6667 41 70" stroke="#C2B798"/>
<circle cx="6" cy="88" r="5" fill="#808080"/>
<circle cx="6" cy="88" r="3" fill="#565656"/>
</svg>
