<svg width="53" height="42" viewBox="0 0 53 42" fill="none" xmlns="http://www.w3.org/2000/svg">
<g clip-path="url(#clip0_715_100)">
<path d="M42.75 21.0498H51.748V36.7907H42.75V21.0498Z" fill="white"/>
<path d="M46.2817 14.0289C44.8769 12.6322 43.2254 11.5564 41.3271 10.8015C39.4667 10.0088 37.6064 9.61236 35.7461 9.61236C34.1135 9.61236 32.6139 9.91434 31.2471 10.5184C29.8803 11.1223 28.6844 11.9528 27.6593 13.0097C26.6342 14.0667 25.8369 15.3123 25.2674 16.7468C24.7359 18.1812 24.4701 19.7288 24.4701 21.3897C24.4701 23.0884 24.7549 24.6549 25.3244 26.0894C25.8939 27.5238 26.6912 28.7883 27.7162 29.883C28.7413 30.94 29.9373 31.7704 31.304 32.3744C32.7088 32.9784 34.2274 33.2803 35.86 33.2803C37.3027 33.2803 38.9352 32.9406 40.7576 32.2611C42.6179 31.5439 44.3074 30.6191 45.8261 29.4867L51.7488 36.7909C50.344 37.7723 48.6925 38.6594 46.7942 39.4521C44.9339 40.2448 42.9786 40.8677 40.9284 41.3206C38.9162 41.7736 36.98 42.0001 35.1196 42.0001C32.0823 42.0001 29.2539 41.4905 26.6342 40.4713C24.0525 39.4144 21.7935 37.9611 19.8573 36.1114C17.921 34.2618 16.4213 32.0724 15.3583 29.5433C14.2952 27.0142 13.7637 24.2963 13.7637 21.3897C13.7637 18.4832 14.3142 15.7842 15.4152 13.2928C16.5162 10.8015 18.0539 8.63092 20.0281 6.78127C22.0403 4.93162 24.3752 3.4972 27.0329 2.47801C29.7284 1.45881 32.6518 0.949219 35.803 0.949219C37.7773 0.949219 39.7515 1.19458 41.7257 1.6853C43.7379 2.17602 45.6362 2.85548 47.4207 3.72369C49.243 4.59189 50.8376 5.64883 52.2044 6.89451L46.2817 14.0289Z" fill="white"/>
<path d="M5.22036 0H5.22034C2.33723 0 0 2.33723 0 5.22034V35.356C0 38.2391 2.33723 40.5763 5.22036 40.5763C8.10347 40.5763 10.4407 38.2391 10.4407 35.356V5.22034C10.4407 2.33723 8.10347 0 5.22036 0Z" fill="white"/>
<path d="M27.5254 31.7969H0V40.5765H27.5254V31.7969Z" fill="white"/>
</g>
<defs>
<clipPath id="clip0_715_100">
<rect width="53" height="42" fill="white"/>
</clipPath>
</defs>
</svg>
