<svg width="53" height="42" viewBox="0 0 53 42" fill="none" xmlns="http://www.w3.org/2000/svg">
<path d="M42.75 21.0499H51.748V36.7908H42.75V21.0499Z" fill="#E4A51D"/>
<path d="M46.2807 14.0288C44.8759 12.6321 43.2244 11.5563 41.3261 10.8014C39.4657 10.0087 37.6054 9.6123 35.7451 9.6123C34.1125 9.6123 32.6129 9.91428 31.2461 10.5183C29.8793 11.1222 28.6834 11.9527 27.6583 13.0096C26.6332 14.0666 25.8359 15.3122 25.2664 16.7467C24.7349 18.1811 24.4691 19.7287 24.4691 21.3896C24.4691 23.0883 24.7539 24.6548 25.3234 26.0893C25.8929 27.5237 26.6902 28.7882 27.7152 29.8829C28.7403 30.9399 29.9363 31.7703 31.303 32.3743C32.7078 32.9783 34.2264 33.2802 35.859 33.2802C37.3017 33.2802 38.9342 32.9405 40.7566 32.261C42.6169 31.5438 44.3064 30.619 45.8251 29.4866L51.7478 36.7908C50.343 37.7722 48.6915 38.6593 46.7932 39.452C44.9329 40.2447 42.9776 40.8676 40.9274 41.3205C38.9152 41.7735 36.979 42 35.1186 42C32.0813 42 29.2529 41.4904 26.6332 40.4712C24.0515 39.4143 21.7925 37.961 19.8563 36.1113C17.92 34.2617 16.4203 32.0723 15.3573 29.5432C14.2942 27.0141 13.7627 24.2962 13.7627 21.3896C13.7627 18.4831 14.3132 15.7841 15.4142 13.2927C16.5152 10.8014 18.0529 8.63086 20.0271 6.78121C22.0393 4.93156 24.3742 3.49714 27.0319 2.47795C29.7274 1.45875 32.6508 0.949158 35.802 0.949158C37.7763 0.949158 39.7505 1.19452 41.7247 1.68524C43.7369 2.17596 45.6352 2.85542 47.4197 3.72363C49.242 4.59183 50.8366 5.64877 52.2034 6.89445L46.2807 14.0288Z" fill="#005CAF"/>
<rect width="10.4407" height="40.5763" rx="5.22034" fill="#00896C"/>
<rect y="31.7966" width="27.5254" height="8.77966" fill="#005CAF"/>
</svg>
