<svg width="979" height="235" viewBox="0 0 979 235" fill="none" xmlns="http://www.w3.org/2000/svg">
<path d="M932.972 4H974.001V46.9092L966.475 113.071H940.498L932.972 46.9092V4Z" fill="#005CAF"/>
<path d="M952.879 132.009C958.868 132.009 963.804 133.926 967.689 137.762C971.573 141.437 973.515 146.312 973.515 152.384C973.515 158.457 971.573 163.411 967.689 167.247C963.804 171.082 958.868 173 952.879 173C946.729 173 941.712 171.082 937.827 167.247C933.943 163.411 932.001 158.457 932.001 152.384C932.001 146.312 933.943 141.437 937.827 137.762C941.712 133.926 946.729 132.009 952.879 132.009Z" fill="#E4A51D"/>
<path d="M850.38 40C864.536 40 876.862 42.7101 887.36 48.1304C898.016 53.5507 906.287 61.2029 912.172 71.087C918.057 80.971 921 92.529 921 105.761C921 118.993 918.057 130.63 912.172 140.674C906.287 150.558 898.016 158.29 887.36 163.87C876.862 169.29 864.536 172 850.38 172C836.225 172 823.818 169.29 813.162 163.87C802.665 158.29 794.473 150.558 788.588 140.674C782.862 130.63 780 118.993 780 105.761C780 92.529 782.862 80.971 788.588 71.087C794.473 61.2029 802.665 53.5507 813.162 48.1304C823.818 42.7101 836.225 40 850.38 40ZM850.38 73.7174C844.813 73.7174 839.962 75.0725 835.827 77.7826C831.692 80.4927 828.431 84.3188 826.045 89.2609C823.818 94.2029 822.705 99.942 822.705 106.478C822.705 113.014 823.818 118.754 826.045 123.696C828.431 128.478 831.692 132.225 835.827 134.935C839.962 137.645 844.813 139 850.38 139C855.947 139 860.798 137.645 864.934 134.935C869.228 132.225 872.489 128.478 874.715 123.696C877.101 118.754 878.294 113.014 878.294 106.478C878.294 99.942 877.101 94.2029 874.715 89.2609C872.489 84.3188 869.228 80.4927 864.934 77.7826C860.798 75.0725 855.947 73.7174 850.38 73.7174Z" fill="#00896C"/>
<path d="M729.119 118.047H767.119V151.047H729.119V118.047Z" fill="#E4A51D"/>
<path d="M729.159 103.67C729.159 93.199 737.648 84.7103 748.119 84.7103C758.591 84.7103 767.079 93.199 767.079 103.67V132.087C767.079 142.558 758.591 151.047 748.119 151.047C737.648 151.047 729.159 142.558 729.159 132.087V103.67Z" fill="#E4A51D"/>
<path d="M744.04 55.1214C738.12 49.2354 731.16 44.7016 723.16 41.52C715.32 38.1793 707.479 36.509 699.639 36.509C692.759 36.509 686.439 37.7816 680.679 40.3269C674.919 42.8722 669.88 46.372 665.56 50.8262C661.24 55.2805 657.879 60.5301 655.479 66.5752C653.239 72.6202 652.12 79.1425 652.12 86.1421C652.12 93.3007 653.32 99.9025 655.72 105.948C658.12 111.993 661.48 117.322 665.8 121.935C670.12 126.389 675.16 129.889 680.92 132.434C686.84 134.98 693.24 136.252 700.12 136.252C706.2 136.252 713.08 134.821 720.76 131.957C728.6 128.935 735.719 125.037 742.12 120.265L767.08 151.047C761.16 155.183 754.2 158.921 746.2 162.262C738.36 165.603 730.12 168.228 721.48 170.137C713 172.046 704.84 173 697 173C684.2 173 672.28 170.852 661.24 166.557C650.36 162.103 640.84 155.978 632.68 148.183C624.52 140.389 618.2 131.162 613.72 120.503C609.24 109.845 607 98.3913 607 86.1421C607 73.8929 609.32 62.5186 613.96 52.0193C618.6 41.52 625.079 32.3729 633.399 24.5779C641.879 16.783 651.72 10.7379 662.92 6.44275C674.28 2.14758 686.6 0 699.88 0C708.2 0 716.52 1.03402 724.84 3.10206C733.32 5.1701 741.32 8.03355 748.84 11.6924C756.52 15.3513 763.24 19.8055 769 25.0552L744.04 55.1214Z" fill="#005CAF"/>
<path d="M515.528 40.0073C526.258 39.8475 535.386 42.3235 542.913 47.4353C550.599 52.3874 556.365 59.496 560.208 68.7611C564.212 77.8665 566.213 88.7291 566.213 101.349C566.213 114.128 564.292 125.23 560.448 134.655C556.605 143.92 550.92 151.109 543.393 156.221C536.026 161.173 527.059 163.649 516.489 163.649C505.76 163.649 496.151 161.093 487.663 155.981C479.336 150.71 472.77 143.441 467.966 134.176C463.322 124.751 461 113.729 461 101.109C461 88.8089 463.242 78.1061 467.726 69.0007C472.37 59.8953 478.776 52.7868 486.943 47.675C495.27 42.5632 504.799 40.0073 515.528 40.0073ZM527.299 71.6365C522.014 71.6365 517.37 72.9145 513.366 75.4704C509.523 78.0263 506.48 81.6205 504.238 86.253C501.996 90.8856 500.875 96.237 500.875 102.307C500.875 108.378 501.996 113.729 504.238 118.362C506.48 122.994 509.523 126.588 513.366 129.144C517.37 131.7 522.014 132.978 527.299 132.978C532.423 132.978 536.907 131.7 540.751 129.144C544.754 126.588 547.877 122.994 550.119 118.362C552.361 113.729 553.482 108.378 553.482 102.307C553.482 96.237 552.361 90.8856 550.119 86.253C547.877 81.6205 544.754 78.0263 540.751 75.4704C536.907 72.9145 532.423 71.6365 527.299 71.6365Z" fill="#E4A51D"/>
<path d="M596 159.336C596 171.476 593.037 182.019 587.112 190.965C581.187 199.911 572.939 206.78 562.37 211.572C551.801 216.524 539.47 219 525.377 219C514.007 219 503.277 217.403 493.188 214.208C483.26 211.013 474.612 206.939 467.245 201.987L482.139 173.233C488.064 177.227 494.47 180.342 501.356 182.578C508.242 184.815 515.208 185.933 522.254 185.933C528.82 185.933 534.425 184.895 539.069 182.818C543.713 180.741 547.237 177.786 549.639 173.952C552.201 170.118 553.482 165.566 553.482 160.294V41.4449H596V159.336Z" fill="#00896C"/>
<path d="M369.529 40.0073C380.259 39.8475 389.387 42.3235 396.913 47.4353C404.6 52.3874 410.365 59.496 414.209 68.7611C418.212 77.8665 420.214 88.7291 420.214 101.349C420.214 114.128 418.292 125.23 414.449 134.655C410.605 143.92 404.92 151.109 397.394 156.221C390.027 161.173 381.059 163.649 370.49 163.649C359.76 163.649 350.152 161.093 341.664 155.981C333.337 150.71 326.771 143.441 321.967 134.176C317.323 124.751 315 113.729 315 101.109C315 88.8089 317.242 78.1061 321.726 69.0007C326.371 59.8953 332.776 52.7868 340.944 47.675C349.271 42.5632 358.799 40.0073 369.529 40.0073ZM381.299 71.6365C376.015 71.6365 371.371 72.9145 367.367 75.4704C363.524 78.0263 360.481 81.6205 358.239 86.253C355.997 90.8856 354.876 96.237 354.876 102.307C354.876 108.378 355.997 113.729 358.239 118.362C360.481 122.994 363.524 126.588 367.367 129.144C371.371 131.7 376.015 132.978 381.299 132.978C386.424 132.978 390.908 131.7 394.751 129.144C398.755 126.588 401.878 122.994 404.12 118.362C406.362 113.729 407.483 108.378 407.483 102.307C407.483 96.237 406.362 90.8856 404.12 86.253C401.878 81.6205 398.755 78.0263 394.751 75.4704C390.908 72.9145 386.424 71.6365 381.299 71.6365Z" fill="#00896C"/>
<path d="M450.001 159.336C450.001 171.476 447.038 182.019 441.113 190.965C435.187 199.911 426.94 206.78 416.371 211.572C405.801 216.524 393.47 219 379.378 219C368.008 219 357.278 217.403 347.189 214.208C342.411 212.67 337.93 210.929 333.746 208.985C326.336 205.542 324.084 196.509 327.842 189.254C332.261 180.72 343.145 178.102 352.149 181.46C353.206 181.855 354.275 182.227 355.356 182.578C362.243 184.815 369.209 185.933 376.255 185.933C382.821 185.933 388.426 184.895 393.07 182.818C397.714 180.741 401.237 177.786 403.639 173.952C406.202 170.118 407.483 165.566 407.483 160.294V62.7038C407.483 50.9629 417.001 41.4449 428.742 41.4449C440.483 41.4449 450.001 50.9629 450.001 62.7038V159.336Z" fill="#005CAF"/>
<rect x="47" width="60" height="171" rx="30" fill="#00896C"/>
<rect x="47" y="134" width="92" height="37" fill="#005CAF"/>
<rect x="47" y="134" width="116" height="37" rx="18.5" fill="#005CAF"/>
<path d="M216.537 111.159C216.537 118.447 218.369 124.23 222.033 128.508C225.857 132.786 230.955 134.925 237.327 134.925C244.975 134.767 250.869 131.915 255.011 126.369C259.313 120.824 261.463 113.853 261.463 105.455H271.5C271.5 119.873 269.429 132.073 265.287 142.055C261.145 151.878 255.25 159.325 247.603 164.395C239.956 169.465 230.796 172 220.122 172C210.881 172 202.756 170.02 195.747 166.059C188.896 161.939 183.559 156.235 179.736 148.947C175.912 141.659 174 133.024 174 123.042V42H216.537V111.159Z" fill="#005CAF"/>
<rect x="253" y="77" width="51" height="94" fill="#E4A51D"/>
<rect x="253" y="42" width="51" height="129" rx="25.5" fill="#E4A51D"/>
<rect x="569.552" y="222" width="3" height="6" transform="rotate(15 569.552 222)" fill="#565656"/>
<rect width="3" height="6" transform="matrix(-0.965926 0.258819 0.258819 0.965926 611.897 222)" fill="#565656"/>
<rect x="563" y="155" width="55" height="69" rx="10" fill="#FAD689"/>
<rect x="581" y="149" width="3" height="6" fill="#D9D9D9"/>
<rect x="596" y="149" width="3" height="6" fill="#D9D9D9"/>
<path d="M580 146C580 143.791 581.79 142 584 142H585V150H580V146Z" fill="#6E6448"/>
<path d="M595 142H596C598.209 142 600 143.791 600 146V150H595V142Z" fill="#6E6448"/>
<rect x="584" y="142" width="12" height="4" fill="#6E6448"/>
<path d="M563 213H569C571.761 213 574 215.239 574 218V224H573C567.477 224 563 219.523 563 214V213Z" fill="#808080"/>
<path d="M607 218C607 215.239 609.238 213 612 213H618V214C618 219.523 613.522 224 608 224H607V218Z" fill="#808080"/>
<circle cx="612" cy="230" r="5" fill="#808080"/>
<circle cx="612" cy="230" r="3" fill="#565656"/>
<path d="M573.5 155C574.5 155 596.5 155 608 155" stroke="#808080"/>
<path d="M578 166C578 167.333 578 196.667 578 212" stroke="#6E6448"/>
<path d="M591 166C591 167.333 591 196.667 591 212" stroke="#6E6448"/>
<path d="M604 166C604 167.333 604 196.667 604 212" stroke="#6E6448"/>
<circle cx="569" cy="230" r="5" fill="#808080"/>
<circle cx="569" cy="230" r="3" fill="#565656"/>
<path d="M39.4334 127C32.493 127 26.8667 132.626 26.8667 139.567H29.9C31.2 127 47.6667 127 48.9667 139.567H52C52 132.626 46.3737 127 39.4334 127Z" fill="#423535"/>
<rect y="139.133" width="78" height="51.1333" rx="5" fill="#735454"/>
<path d="M0 172.933C9.57293 172.933 17.3333 180.694 17.3333 190.267H5C2.23858 190.267 0 188.028 0 185.267V172.933Z" fill="#423535"/>
<path d="M60.6667 190.267C60.6667 180.694 68.4271 172.933 78.0001 172.933V185.267C78.0001 188.028 75.7615 190.267 73.0001 190.267H60.6667Z" fill="#423535"/>
<path d="M9.53345 139.267C9.53345 138.714 9.98116 138.267 10.5334 138.267H16.3334C16.8857 138.267 17.3334 138.714 17.3334 139.267V156.106H9.53345V139.267Z" fill="#423535"/>
<path d="M13.4334 160.8L17.3334 156.106H9.53345L13.4334 160.8Z" fill="#423535"/>
<path d="M60.6667 139.267C60.6667 138.714 61.1145 138.267 61.6667 138.267H67.4667C68.019 138.267 68.4667 138.714 68.4667 139.267V156.106H60.6667V139.267Z" fill="#423535"/>
<path d="M64.5667 160.8L68.4667 156.106H60.6667L64.5667 160.8Z" fill="#423535"/>
<rect x="8.66675" y="151.267" width="9.53333" height="2.6" fill="#F0D089"/>
<rect x="59.7998" y="151.267" width="9.53333" height="2.6" fill="#F0D089"/>
<rect x="133" y="56" width="52" height="30" rx="4" fill="#5D5D5D"/>
<path d="M133 60C133 57.7909 134.791 56 137 56H181C183.209 56 185 57.7909 185 60H133Z" fill="#EBEBEB"/>
<path d="M133 82H185C185 84.2091 183.209 86 181 86H137C134.791 86 133 84.2091 133 82Z" fill="#EBEBEB"/>
<path d="M139 53C139 52.4477 139.448 52 140 52H146C146.552 52 147 52.4477 147 53V56H139V53Z" fill="#898989"/>
<path d="M151 56C151 53.7909 152.791 52 155 52H163C165.209 52 167 53.7909 167 56H151Z" fill="#EBEBEB"/>
<circle cx="159" cy="71" r="12" fill="#B9B9B9"/>
<circle cx="159" cy="71" r="9" fill="#898989"/>
<circle cx="159" cy="71" r="7" fill="#EBEBEB"/>
<circle cx="159" cy="71" r="5" fill="#898989"/>
<path d="M845.084 218.982C845.084 221.203 843.283 223.003 841.06 223.003C838.838 223.003 837.036 221.203 837.036 218.982C837.036 216.761 838.838 214.961 841.06 214.961C843.283 214.961 845.084 216.761 845.084 218.982Z" fill="#515151"/>
<path d="M843.575 218.982C843.575 220.419 842.449 221.584 841.06 221.584C839.671 221.584 838.545 220.419 838.545 218.982C838.545 217.545 839.671 216.38 841.06 216.38C842.449 216.38 843.575 217.545 843.575 218.982Z" fill="#5F5F5F"/>
<path d="M905.446 217.563C905.446 219.783 903.644 221.584 901.422 221.584C899.199 221.584 897.397 219.783 897.397 217.563C897.397 215.342 899.199 213.542 901.422 213.542C903.644 213.542 905.446 215.342 905.446 217.563Z" fill="#515151"/>
<path d="M903.937 217.563C903.937 219 902.811 220.165 901.422 220.165C900.033 220.165 898.906 219 898.906 217.563C898.906 216.126 900.033 214.961 901.422 214.961C902.811 214.961 903.937 216.126 903.937 217.563Z" fill="#5F5F5F"/>
<path d="M918.11 212.595C918.11 214.424 916.626 215.907 914.796 215.907C912.966 215.907 911.482 214.424 911.482 212.595C911.482 210.767 912.966 209.284 914.796 209.284C916.626 209.284 918.11 210.767 918.11 212.595Z" fill="#515151"/>
<path d="M916.867 212.595C916.867 213.779 915.94 214.738 914.796 214.738C913.652 214.738 912.725 213.779 912.725 212.595C912.725 211.412 913.652 210.453 914.796 210.453C915.94 210.453 916.867 211.412 916.867 212.595Z" fill="#5F5F5F"/>
<path d="M930.182 207.865C930.182 209.694 928.698 211.176 926.868 211.176C925.038 211.176 923.554 209.694 923.554 207.865C923.554 206.036 925.038 204.553 926.868 204.553C928.698 204.553 930.182 206.036 930.182 207.865Z" fill="#515151"/>
<path d="M928.939 207.865C928.939 209.048 928.012 210.007 926.868 210.007C925.724 210.007 924.797 209.048 924.797 207.865C924.797 206.681 925.724 205.722 926.868 205.722C928.012 205.722 928.939 206.681 928.939 207.865Z" fill="#5F5F5F"/>
<path d="M941.81 202.661C941.81 204.229 940.539 205.499 938.97 205.499C937.401 205.499 936.129 204.229 936.129 202.661C936.129 201.093 937.401 199.823 938.97 199.823C940.539 199.823 941.81 201.093 941.81 202.661Z" fill="#515151"/>
<path d="M940.745 202.661C940.745 203.675 939.951 204.498 938.97 204.498C937.99 204.498 937.195 203.675 937.195 202.661C937.195 201.647 937.99 200.824 938.97 200.824C939.951 200.824 940.745 201.647 940.745 202.661Z" fill="#5F5F5F"/>
<path d="M950.391 199.113C950.391 200.55 949.225 201.715 947.787 201.715C946.349 201.715 945.184 200.55 945.184 199.113C945.184 197.676 946.349 196.511 947.787 196.511C949.225 196.511 950.391 197.676 950.391 199.113Z" fill="#515151"/>
<path d="M949.415 199.113C949.415 200.043 948.686 200.796 947.788 200.796C946.889 200.796 946.16 200.043 946.16 199.113C946.16 198.183 946.889 197.429 947.788 197.429C948.686 197.429 949.415 198.183 949.415 199.113Z" fill="#5F5F5F"/>
<path d="M957.463 196.038C957.463 197.344 956.403 198.403 955.096 198.403C953.789 198.403 952.729 197.344 952.729 196.038C952.729 194.731 953.789 193.672 955.096 193.672C956.403 193.672 957.463 194.731 957.463 196.038Z" fill="#515151"/>
<path d="M956.575 196.038C956.575 196.883 955.913 197.568 955.096 197.568C954.279 197.568 953.616 196.883 953.616 196.038C953.616 195.193 954.279 194.507 955.096 194.507C955.913 194.507 956.575 195.193 956.575 196.038Z" fill="#5F5F5F"/>
<path d="M964.535 192.963C964.535 194.139 963.581 195.092 962.405 195.092C961.228 195.092 960.274 194.139 960.274 192.963C960.274 191.787 961.228 190.834 962.405 190.834C963.581 190.834 964.535 191.787 964.535 192.963Z" fill="#515151"/>
<path d="M963.736 192.963C963.736 193.724 963.14 194.34 962.405 194.34C961.669 194.34 961.073 193.724 961.073 192.963C961.073 192.202 961.669 191.586 962.405 191.586C963.14 191.586 963.736 192.202 963.736 192.963Z" fill="#5F5F5F"/>
<path d="M971.074 190.124C971.074 191.3 970.12 192.253 968.944 192.253C967.767 192.253 966.813 191.3 966.813 190.124C966.813 188.949 967.767 187.996 968.944 187.996C970.12 187.996 971.074 188.949 971.074 190.124Z" fill="#515151"/>
<path d="M970.275 190.125C970.275 190.885 969.679 191.502 968.944 191.502C968.208 191.502 967.612 190.885 967.612 190.125C967.612 189.364 968.208 188.747 968.944 188.747C969.679 188.747 970.275 189.364 970.275 190.125Z" fill="#5F5F5F"/>
<path d="M976.37 187.863C976.37 188.834 975.582 189.622 974.61 189.622C973.638 189.622 972.849 188.834 972.849 187.863C972.849 186.891 973.638 186.103 974.61 186.103C975.582 186.103 976.37 186.891 976.37 187.863Z" fill="#515151"/>
<path d="M975.71 187.863C975.71 188.491 975.218 189.001 974.61 189.001C974.002 189.001 973.51 188.491 973.51 187.863C973.51 187.234 974.002 186.724 974.61 186.724C975.218 186.724 975.71 187.234 975.71 187.863Z" fill="#5F5F5F"/>
<path d="M895.721 210.92L978.215 183.532C978.542 183.424 978.885 183.652 978.885 183.978V186.135C978.885 186.323 978.768 186.492 978.586 186.568L896.092 220.862C895.759 221 895.385 220.771 895.385 220.429V211.366C895.385 211.165 895.52 210.986 895.721 210.92Z" fill="#515151"/>
<path d="M978.885 166.885V181.269C978.885 181.493 978.718 181.687 978.485 181.732L895.991 197.857C895.679 197.918 895.385 197.693 895.385 197.393V156.818C894.296 155.32 892.015 152.276 891.613 152.087C891.214 151.899 874.28 148.282 865.662 146.454C865.528 146.425 865.416 146.347 865.346 146.237L864.345 144.668C864.157 144.374 864.353 144.008 864.717 144.002C869.48 143.923 886.81 145.847 895.385 146.883L978.504 166.426C978.728 166.479 978.885 166.668 978.885 166.885Z" fill="#E5E5E5"/>
<path d="M831 155.176H895.386V197.752H831V155.176Z" fill="#E5E5E5"/>
<path d="M895.385 155.176H831.251C830.665 151.628 835.929 144.437 861.684 144.058C887.438 143.68 894.882 151.312 895.385 155.176Z" fill="#E5E5E5"/>
<path d="M891.361 158.665H835.061C834.546 155.8 839.168 149.993 861.776 149.688C884.385 149.382 890.92 155.545 891.361 158.665Z" fill="#515151"/>
<path d="M895.386 211.221H831.031C830.649 213.466 833.752 217.07 842.345 219.519C846.984 220.841 857.26 221.003 866.32 221.132C868.476 221.163 870.38 221.163 872.08 221.132H895.386V211.221Z" fill="#515151"/>
<path d="M835.024 158.487H891.361V186.398H835.024V158.487Z" fill="#9DD3DB"/>
<path d="M835.024 186.398H891.361V193.494H835.024V186.398Z" fill="#515151"/>
<path d="M831 197.502H895.386V211.221H831V197.502Z" fill="#005CAF"/>
<path d="M978.885 181.417L895.385 197.502V211.221L978.885 184.019V181.417Z" fill="#005CAF"/>
<path d="M943.803 163.697L934.629 162.74C934.331 162.709 934.07 162.928 934.07 163.21V180.464C934.07 180.73 934.302 180.943 934.584 180.937L943.759 180.746C944.032 180.74 944.251 180.53 944.251 180.273V164.167C944.251 163.926 944.058 163.723 943.803 163.697Z" fill="#9DD3DB"/>
<path d="M930.888 162.41L917.861 160.636C917.558 160.595 917.286 160.816 917.286 161.104V180.884C917.286 181.151 917.521 181.366 917.805 181.357L930.832 180.963C931.103 180.954 931.319 180.745 931.319 180.49V162.879C931.319 162.643 931.135 162.444 930.888 162.41Z" fill="#9DD3DB"/>
<path d="M902.428 178.061V161.552C902.428 161.272 902.684 161.054 902.979 161.081L913.543 162.044C913.8 162.067 913.997 162.271 913.997 162.514V178.061C913.997 178.322 913.772 178.534 913.494 178.534H902.931C902.653 178.534 902.428 178.322 902.428 178.061Z" fill="#9DD3DB"/>
<path d="M952.852 180.249L947.254 180.499C946.967 180.512 946.727 180.297 946.727 180.027V164.71C946.727 164.423 946.996 164.202 947.297 164.241L952.895 164.952C953.145 164.983 953.331 165.184 953.331 165.421V179.776C953.331 180.029 953.12 180.237 952.852 180.249Z" fill="#9DD3DB"/>
<path d="M960.285 179.65L956.338 179.858C956.05 179.873 955.807 179.657 955.807 179.386V165.997C955.807 165.706 956.084 165.484 956.389 165.53L960.336 166.12C960.58 166.157 960.76 166.355 960.76 166.587V179.178C960.76 179.428 960.551 179.636 960.285 179.65Z" fill="#9DD3DB"/>
<path d="M966.342 179.259L963.496 179.429C963.206 179.446 962.961 179.23 962.961 178.957V167.283C962.961 166.988 963.245 166.765 963.553 166.818L966.399 167.301C966.639 167.341 966.813 167.537 966.813 167.766V178.787C966.813 179.036 966.607 179.243 966.342 179.259Z" fill="#9DD3DB"/>
<path d="M835.024 202.188C835.024 201.927 835.249 201.715 835.527 201.715H847.599C847.877 201.715 848.102 201.927 848.102 202.188V206.919C848.102 207.18 847.877 207.392 847.599 207.392H835.527C835.249 207.392 835.024 207.18 835.024 206.919V202.188Z" fill="#D9D9D9"/>
<path d="M878.283 202.188C878.283 201.927 878.508 201.715 878.786 201.715H890.859C891.136 201.715 891.362 201.927 891.362 202.188V206.919C891.362 207.18 891.136 207.392 890.859 207.392H878.786C878.508 207.392 878.283 207.18 878.283 206.919V202.188Z" fill="#D9D9D9"/>
</svg>
