<svg width="393" height="601" viewBox="0 0 393 601" fill="none" xmlns="http://www.w3.org/2000/svg">
<rect x="16" width="361" height="327" rx="17" fill="#DBEFFF"/>
<path d="M-325.977 497.417L346 378.807C265.231 242.252 156.5 249.417 -45 180.417C-170 152.589 -294.501 153.758 -359 158.886L-325.977 497.417Z" fill="#88D2A8"/>
<path d="M660 600.811L-336 557.111C-298 508.811 -323 528.311 -242.5 455.811C-159 395.311 -92.7059 365.363 15 338.811C111.997 314.9 201.5 270.204 365.5 241.811C550.5 197.811 608.51 222.268 676 227.412L660 600.811Z" fill="#A5E1BA"/>
<path d="M36.7492 408L35.5874 407.004C33.9857 405.663 20 393.584 20 384.749C20 375.499 27.4989 368 36.7492 368C45.9996 368 53.4985 375.499 53.4985 384.749C53.4985 393.584 39.5128 405.663 37.9177 407.011L36.7492 408Z" fill="#F02323"/>
<path d="M36.7491 391.388C33.0824 391.388 30.1099 388.415 30.1099 384.749C30.1099 381.082 33.0824 378.109 36.7491 378.109C40.4159 378.109 43.3884 381.082 43.3884 384.749C43.3884 388.415 40.416 391.388 36.7491 391.388Z" fill="white"/>
<path d="M43.7492 287L42.5874 286.004C40.9857 284.663 27 272.584 27 263.749C27 254.499 34.4989 247 43.7492 247C52.9996 247 60.4985 254.499 60.4985 263.749C60.4985 272.584 46.5128 284.663 44.9177 286.011L43.7492 287Z" fill="#F02323"/>
<path d="M43.7491 270.388C40.0824 270.388 37.1099 267.415 37.1099 263.749C37.1099 260.082 40.0824 257.109 43.7491 257.109C47.4159 257.109 50.3884 260.082 50.3884 263.749C50.3884 267.415 47.416 270.388 43.7491 270.388Z" fill="white"/>
<path d="M345.749 347L344.587 346.004C342.986 344.663 329 332.584 329 323.749C329 314.499 336.499 307 345.749 307C355 307 362.498 314.499 362.498 323.749C362.498 332.584 348.513 344.663 346.918 346.011L345.749 347Z" fill="#F02323"/>
<path d="M345.749 330.388C342.082 330.388 339.11 327.415 339.11 323.749C339.11 320.082 342.082 317.109 345.749 317.109C349.416 317.109 352.388 320.082 352.388 323.749C352.388 327.415 349.416 330.388 345.749 330.388Z" fill="white"/>
</svg>
