<svg width="393" height="407" viewBox="0 0 393 407" fill="none" xmlns="http://www.w3.org/2000/svg">
<g clip-path="url(#clip0_739_112)">
<path d="M-325.977 303.417L346 184.807C265.231 48.2523 156.5 55.4173 -45 -13.5827C-170 -41.4107 -294.501 -40.2417 -359 -35.1137L-325.977 303.417Z" fill="#ABD784"/>
<path d="M660 406.811L-336 363.111C-298 314.811 -323 334.311 -242.5 261.811C-159 201.311 -92.7059 171.363 15 144.811C111.997 120.9 201.5 76.2041 365.5 47.8111C550.5 3.8111 608.51 28.2681 676 33.4121L660 406.811Z" fill="#8FC385"/>
<path d="M36.7492 214L35.5874 213.004C33.9857 211.663 20 199.584 20 190.749C20 181.499 27.4989 174 36.7492 174C45.9996 174 53.4985 181.499 53.4985 190.749C53.4985 199.584 39.5128 211.663 37.9177 213.011L36.7492 214Z" fill="#F02323"/>
<path d="M36.7491 197.388C33.0824 197.388 30.1099 194.415 30.1099 190.749C30.1099 187.082 33.0824 184.109 36.7491 184.109C40.4159 184.109 43.3884 187.082 43.3884 190.749C43.3884 194.415 40.416 197.388 36.7491 197.388Z" fill="white"/>
<path d="M43.7492 93L42.5874 92.004C40.9857 90.663 27 78.584 27 69.749C27 60.499 34.4989 53 43.7492 53C52.9996 53 60.4985 60.499 60.4985 69.749C60.4985 78.584 46.5128 90.663 44.9177 92.011L43.7492 93Z" fill="#F02323"/>
<path d="M43.7491 76.3884C40.0824 76.3884 37.1099 73.4154 37.1099 69.7494C37.1099 66.0824 40.0824 63.1094 43.7491 63.1094C47.4159 63.1094 50.3884 66.0824 50.3884 69.7494C50.3884 73.4154 47.416 76.3884 43.7491 76.3884Z" fill="white"/>
<path d="M345.749 153L344.587 152.004C342.986 150.663 329 138.584 329 129.749C329 120.499 336.499 113 345.749 113C355 113 362.498 120.499 362.498 129.749C362.498 138.584 348.513 150.663 346.918 152.011L345.749 153Z" fill="#F02323"/>
<path d="M345.749 136.388C342.082 136.388 339.11 133.415 339.11 129.749C339.11 126.082 342.082 123.109 345.749 123.109C349.416 123.109 352.388 126.082 352.388 129.749C352.388 133.415 349.416 136.388 345.749 136.388Z" fill="white"/>
</g>
<defs>
<clipPath id="clip0_739_112">
<rect width="393" height="407" fill="white"/>
</clipPath>
</defs>
</svg>
