<svg width="192" height="284" viewBox="0 0 192 284" fill="none" xmlns="http://www.w3.org/2000/svg">
<path d="M158.505 250V275H157.505V250H158.505Z" fill="#096148"/>
<path d="M155.505 240C160.199 240 164.005 236.194 164.005 231.5C164.005 226.806 160.199 223 155.505 223C150.81 223 147.005 226.806 147.005 231.5C147.005 236.194 150.81 240 155.505 240Z" fill="#005CAF"/>
<path d="M163.505 257C168.199 257 172.005 253.194 172.005 248.5C172.005 243.806 168.199 240 163.505 240C158.81 240 155.005 243.806 155.005 248.5C155.005 253.194 158.81 257 163.505 257Z" fill="#005CAF"/>
<path d="M151.505 259C156.199 259 160.005 255.194 160.005 250.5C160.005 245.806 156.199 242 151.505 242C146.81 242 143.005 245.806 143.005 250.5C143.005 255.194 146.81 259 151.505 259Z" fill="#005CAF"/>
<path d="M150.173 276.738C154.133 279.645 158.306 280.258 159.491 278.108C160.677 275.958 158.427 271.859 154.467 268.952C150.506 266.046 146.333 265.432 145.148 267.583C143.962 269.733 146.212 273.832 150.173 276.738Z" fill="#00896C"/>
<path d="M160.185 269.159C157.327 273.455 156.072 277.877 157.382 279.037C158.692 280.197 162.071 277.655 164.929 273.36C167.788 269.064 169.043 264.642 167.733 263.482C166.423 262.322 163.044 264.864 160.185 269.159Z" fill="#00896C"/>
<path d="M146.505 250C151.199 250 155.005 246.194 155.005 241.5C155.005 236.806 151.199 233 146.505 233C141.81 233 138.005 236.806 138.005 241.5C138.005 246.194 141.81 250 146.505 250Z" fill="#005CAF"/>
<path d="M166.505 248C171.199 248 175.005 244.194 175.005 239.5C175.005 234.806 171.199 231 166.505 231C161.81 231 158.005 234.806 158.005 239.5C158.005 244.194 161.81 248 166.505 248Z" fill="#005CAF"/>
<path d="M156.505 248C159.542 248 162.005 245.538 162.005 242.5C162.005 239.462 159.542 237 156.505 237C153.467 237 151.005 239.462 151.005 242.5C151.005 245.538 153.467 248 156.505 248Z" fill="white"/>
<path d="M95.1848 182.957H119.475V265C119.475 270.523 114.995 275 109.475 275H105.185C99.6648 275 95.1848 270.523 95.1848 265V182.957Z" fill="#EDDFC3"/>
<path d="M96.3146 110.113C124.071 110.113 146.571 85.4634 146.571 55.0565C146.571 24.6496 124.071 0 96.3146 0C68.5586 0 46.0579 24.6496 46.0579 55.0565C46.0579 85.4634 68.5586 110.113 96.3146 110.113Z" fill="#096148"/>
<path d="M131.895 128.182C159.651 128.182 182.151 103.533 182.151 73.1258C182.151 42.719 159.651 18.0693 131.895 18.0693C104.139 18.0693 81.6379 42.719 81.6379 73.1258C81.6379 103.533 104.139 128.182 131.895 128.182Z" fill="#096148"/>
<path d="M132.175 198.204C157.28 198.204 177.632 173.554 177.632 143.147C177.632 112.74 157.28 88.0908 132.175 88.0908C107.07 88.0908 86.7178 112.74 86.7178 143.147C86.7178 173.554 107.07 198.204 132.175 198.204Z" fill="#096148"/>
<path d="M65.5446 220.225C90.6497 220.225 111.001 195.576 111.001 165.169C111.001 134.762 90.6497 110.112 65.5446 110.112C40.4394 110.112 20.0876 134.762 20.0876 165.169C20.0876 195.576 40.4394 220.225 65.5446 220.225Z" fill="#096148"/>
<path d="M65.2648 147.382C93.0208 147.382 115.521 123.87 115.521 94.867C115.521 65.8635 93.0208 42.3516 65.2648 42.3516C37.5088 42.3516 15.0081 65.8635 15.0081 94.867C15.0081 123.87 37.5088 147.382 65.2648 147.382Z" fill="#096148"/>
<path d="M178.005 196H191.005V277.5C191.005 281.09 188.095 284 184.505 284C180.915 284 178.005 281.09 178.005 277.5V196Z" fill="#EDDFC3"/>
<path d="M180.355 157.062C195.494 157.062 207.767 143.616 207.767 127.031C207.767 110.445 195.494 97 180.355 97C165.215 97 152.942 110.445 152.942 127.031C152.942 143.616 165.215 157.062 180.355 157.062Z" fill="#00896C"/>
<path d="M199.915 205.11C213.608 205.11 224.709 191.665 224.709 175.08C224.709 158.494 213.608 145.049 199.915 145.049C186.221 145.049 175.12 158.494 175.12 175.08C175.12 191.665 186.221 205.11 199.915 205.11Z" fill="#00896C"/>
<path d="M163.575 217.123C177.268 217.123 188.37 203.678 188.37 187.092C188.37 170.507 177.268 157.062 163.575 157.062C149.881 157.062 138.78 170.507 138.78 187.092C138.78 203.678 149.881 217.123 163.575 217.123Z" fill="#00896C"/>
<path d="M163.415 177.39C178.554 177.39 190.827 164.565 190.827 148.745C190.827 132.925 178.554 120.101 163.415 120.101C148.275 120.101 136.002 132.925 136.002 148.745C136.002 164.565 148.275 177.39 163.415 177.39Z" fill="#00896C"/>
<path d="M13.5046 228V244H12.5046V228H13.5046Z" fill="#096148"/>
<path d="M11.2747 220.949C14.2982 220.949 16.7493 218.498 16.7493 215.475C16.7493 212.451 14.2982 210 11.2747 210C8.25113 210 5.80005 212.451 5.80005 215.475C5.80005 218.498 8.25113 220.949 11.2747 220.949Z" fill="#FAD689"/>
<path d="M16.4246 231.898C19.4481 231.898 21.899 229.447 21.899 226.424C21.899 223.4 19.4481 220.949 16.4246 220.949C13.401 220.949 10.95 223.4 10.95 226.424C10.95 229.447 13.401 231.898 16.4246 231.898Z" fill="#FAD689"/>
<path d="M8.70471 233.186C11.7282 233.186 14.1793 230.735 14.1793 227.712C14.1793 224.688 11.7282 222.237 8.70471 222.237C5.68118 222.237 3.23022 224.688 3.23022 227.712C3.23022 230.735 5.68118 233.186 8.70471 233.186Z" fill="#FAD689"/>
<path d="M7.84817 244.61C10.3993 246.482 13.0864 246.877 13.8501 245.493C14.6138 244.108 13.1649 241.468 10.6138 239.596C8.06269 237.724 5.37553 237.329 4.61182 238.713C3.84812 240.098 5.29708 242.738 7.84817 244.61Z" fill="#00896C"/>
<path d="M14.2857 239.73C12.4447 242.496 11.6362 245.345 12.48 246.092C13.3237 246.839 15.5001 245.202 17.3411 242.435C19.1821 239.669 19.9906 236.82 19.1469 236.073C18.3032 235.326 16.1267 236.963 14.2857 239.73Z" fill="#00896C"/>
<path d="M5.47461 227.39C8.49814 227.39 10.9492 224.939 10.9492 221.915C10.9492 218.891 8.49814 216.44 5.47461 216.44C2.45108 216.44 0 218.891 0 221.915C0 224.939 2.45108 227.39 5.47461 227.39Z" fill="#FAD689"/>
<path d="M18.3645 226.102C21.388 226.102 23.8391 223.65 23.8391 220.627C23.8391 217.603 21.388 215.152 18.3645 215.152C15.341 215.152 12.8899 217.603 12.8899 220.627C12.8899 223.65 15.341 226.102 18.3645 226.102Z" fill="#FAD689"/>
<path d="M11.9246 226.101C13.881 226.101 15.4669 224.515 15.4669 222.559C15.4669 220.603 13.881 219.017 11.9246 219.017C9.96816 219.017 8.38208 220.603 8.38208 222.559C8.38208 224.515 9.96816 226.101 11.9246 226.101Z" fill="white"/>
</svg>
