<svg width="618" height="466" viewBox="0 0 618 466" fill="none" xmlns="http://www.w3.org/2000/svg">
<path d="M463.973 246.781H505.002V289.691L497.476 355.852H471.499L463.973 289.691V246.781Z" fill="#005CAF"/>
<path d="M483.88 374.79C489.869 374.79 494.805 376.708 498.689 380.543C502.574 384.219 504.516 389.093 504.516 395.166C504.516 401.239 502.574 406.193 498.689 410.028C494.805 413.864 489.869 415.781 483.88 415.781C477.73 415.781 472.712 413.864 468.828 410.028C464.944 406.193 463.001 401.239 463.001 395.166C463.001 389.093 464.944 384.219 468.828 380.543C472.712 376.708 477.73 374.79 483.88 374.79Z" fill="#E4A51D"/>
<path d="M381.381 282.781C395.536 282.781 407.863 285.492 418.36 290.912C429.017 296.332 437.288 303.984 443.173 313.868C449.058 323.752 452 335.31 452 348.542C452 361.774 449.058 373.412 443.173 383.455C437.288 393.339 429.017 401.071 418.36 406.651C407.863 412.071 395.536 414.781 381.381 414.781C367.225 414.781 354.819 412.071 344.162 406.651C333.665 401.071 325.474 393.339 319.589 383.455C313.863 373.412 311 361.774 311 348.542C311 335.31 313.863 323.752 319.589 313.868C325.474 303.984 333.665 296.332 344.162 290.912C354.819 285.492 367.225 282.781 381.381 282.781ZM381.381 316.499C375.814 316.499 370.963 317.854 366.827 320.564C362.692 323.274 359.431 327.1 357.046 332.042C354.819 336.984 353.706 342.723 353.706 349.26C353.706 355.796 354.819 361.535 357.046 366.477C359.431 371.26 362.692 375.006 366.827 377.716C370.963 380.426 375.814 381.781 381.381 381.781C386.948 381.781 391.799 380.426 395.934 377.716C400.228 375.006 403.489 371.26 405.716 366.477C408.102 361.535 409.294 355.796 409.294 349.26C409.294 342.723 408.102 336.984 405.716 332.042C403.489 327.1 400.228 323.274 395.934 320.564C391.799 317.854 386.948 316.499 381.381 316.499Z" fill="#00896C"/>
<path d="M260.12 360.828H298.12V393.828H260.12V360.828Z" fill="#E4A51D"/>
<path d="M260.16 346.452C260.16 335.98 268.649 327.492 279.12 327.492C289.591 327.492 298.08 335.98 298.08 346.452V374.868C298.08 385.34 289.591 393.828 279.12 393.828C268.649 393.828 260.16 385.34 260.16 374.868V346.452Z" fill="#E4A51D"/>
<path d="M275.04 297.903C269.12 292.017 262.16 287.483 254.16 284.301C246.32 280.961 238.48 279.29 230.64 279.29C223.76 279.29 217.44 280.563 211.68 283.108C205.92 285.654 200.88 289.153 196.56 293.608C192.24 298.062 188.88 303.311 186.48 309.357C184.24 315.402 183.12 321.924 183.12 328.923C183.12 336.082 184.32 342.684 186.72 348.729C189.12 354.774 192.48 360.103 196.8 364.717C201.12 369.171 206.16 372.671 211.92 375.216C217.84 377.761 224.24 379.034 231.12 379.034C237.2 379.034 244.08 377.602 251.76 374.739C259.6 371.716 266.72 367.819 273.12 363.046L298.08 393.828C292.16 397.964 285.2 401.703 277.2 405.043C269.36 408.384 261.12 411.009 252.48 412.918C244 414.827 235.84 415.781 228 415.781C215.2 415.781 203.28 413.634 192.24 409.339C181.36 404.884 171.84 398.76 163.68 390.965C155.52 383.17 149.2 373.943 144.72 363.285C140.24 352.626 138 341.173 138 328.923C138 316.674 140.32 305.3 144.96 294.801C149.6 284.301 156.08 275.154 164.4 267.359C172.88 259.564 182.72 253.519 193.92 249.224C205.28 244.929 217.6 242.781 230.88 242.781C239.2 242.781 247.52 243.815 255.84 245.883C264.32 247.951 272.32 250.815 279.84 254.474C287.52 258.133 294.24 262.587 300 267.837L275.04 297.903Z" fill="#005CAF"/>
<path d="M515.528 40.0073C526.258 39.8475 535.386 42.3235 542.913 47.4353C550.6 52.3874 556.365 59.496 560.208 68.7611C564.212 77.8665 566.214 88.7291 566.214 101.349C566.214 114.128 564.292 125.23 560.448 134.655C556.605 143.92 550.92 151.109 543.393 156.221C536.027 161.173 527.059 163.649 516.489 163.649C505.76 163.649 496.151 161.093 487.664 155.981C479.336 150.71 472.77 143.441 467.966 134.176C463.322 124.751 461 113.729 461 101.109C461 88.8089 463.242 78.1061 467.726 69.0007C472.37 59.8953 478.776 52.7868 486.943 47.675C495.27 42.5632 504.799 40.0073 515.528 40.0073ZM527.299 71.6365C522.014 71.6365 517.37 72.9145 513.367 75.4704C509.523 78.0263 506.48 81.6205 504.238 86.253C501.996 90.8856 500.875 96.237 500.875 102.307C500.875 108.378 501.996 113.729 504.238 118.362C506.48 122.994 509.523 126.588 513.367 129.144C517.37 131.7 522.014 132.978 527.299 132.978C532.423 132.978 536.907 131.7 540.751 129.144C544.754 126.588 547.877 122.994 550.119 118.362C552.361 113.729 553.482 108.378 553.482 102.307C553.482 96.237 552.361 90.8856 550.119 86.253C547.877 81.6205 544.754 78.0263 540.751 75.4704C536.907 72.9145 532.423 71.6365 527.299 71.6365Z" fill="#E4A51D"/>
<path d="M596 159.336C596 171.476 593.037 182.019 587.112 190.965C581.187 199.911 572.94 206.78 562.37 211.572C551.801 216.524 539.47 219 525.377 219C514.007 219 503.278 217.403 493.189 214.208C483.26 211.013 474.612 206.939 467.246 201.987L482.139 173.233C488.064 177.227 494.47 180.342 501.356 182.578C508.242 184.815 515.208 185.933 522.255 185.933C528.82 185.933 534.425 184.895 539.069 182.818C543.714 180.741 547.237 177.786 549.639 173.952C552.201 170.118 553.482 165.566 553.482 160.294V41.4449H596V159.336Z" fill="#00896C"/>
<path d="M369.529 40.0073C380.259 39.8475 389.387 42.3235 396.913 47.4353C404.6 52.3874 410.365 59.496 414.209 68.7611C418.212 77.8665 420.214 88.7291 420.214 101.349C420.214 114.128 418.292 125.23 414.449 134.655C410.605 143.92 404.92 151.109 397.394 156.221C390.027 161.173 381.059 163.649 370.49 163.649C359.76 163.649 350.152 161.093 341.664 155.981C333.337 150.71 326.771 143.441 321.967 134.176C317.323 124.751 315 113.729 315 101.109C315 88.8089 317.242 78.1061 321.726 69.0007C326.371 59.8953 332.776 52.7868 340.944 47.675C349.271 42.5632 358.799 40.0073 369.529 40.0073ZM381.299 71.6365C376.015 71.6365 371.371 72.9145 367.367 75.4704C363.524 78.0263 360.481 81.6205 358.239 86.253C355.997 90.8856 354.876 96.237 354.876 102.307C354.876 108.378 355.997 113.729 358.239 118.362C360.481 122.994 363.524 126.588 367.367 129.144C371.371 131.7 376.015 132.978 381.299 132.978C386.424 132.978 390.908 131.7 394.751 129.144C398.755 126.588 401.878 122.994 404.12 118.362C406.362 113.729 407.483 108.378 407.483 102.307C407.483 96.237 406.362 90.8856 404.12 86.253C401.878 81.6205 398.755 78.0263 394.751 75.4704C390.908 72.9145 386.424 71.6365 381.299 71.6365Z" fill="#00896C"/>
<path d="M450.001 159.336C450.001 171.476 447.038 182.019 441.113 190.965C435.187 199.911 426.94 206.78 416.371 211.572C405.801 216.524 393.47 219 379.378 219C368.008 219 357.278 217.403 347.189 214.208C342.411 212.67 337.93 210.929 333.746 208.985C326.336 205.542 324.084 196.509 327.842 189.254C332.261 180.72 343.145 178.102 352.149 181.46C353.206 181.855 354.275 182.227 355.356 182.578C362.243 184.815 369.209 185.933 376.255 185.933C382.821 185.933 388.426 184.895 393.07 182.818C397.714 180.741 401.237 177.786 403.639 173.952C406.202 170.118 407.483 165.566 407.483 160.294V62.7038C407.483 50.9629 417.001 41.4449 428.742 41.4449C440.483 41.4449 450.001 50.9629 450.001 62.7038V159.336Z" fill="#005CAF"/>
<rect x="47" width="60" height="171" rx="30" fill="#00896C"/>
<rect x="47" y="134" width="92" height="37" fill="#005CAF"/>
<rect x="47" y="134" width="116" height="37" rx="18.5" fill="#005CAF"/>
<path d="M216.537 111.159C216.537 118.447 218.369 124.23 222.033 128.508C225.857 132.786 230.955 134.925 237.327 134.925C244.974 134.767 250.869 131.915 255.011 126.369C259.313 120.824 261.463 113.853 261.463 105.455H271.5C271.5 119.873 269.429 132.073 265.287 142.055C261.145 151.878 255.25 159.325 247.603 164.395C239.956 169.465 230.795 172 220.121 172C210.881 172 202.756 170.02 195.746 166.059C188.896 161.939 183.559 156.235 179.735 148.947C175.912 141.659 174 133.024 174 123.042V42H216.537V111.159Z" fill="#005CAF"/>
<rect x="253" y="77" width="51" height="94" fill="#E4A51D"/>
<rect x="253" y="42" width="51" height="129" rx="25.5" fill="#E4A51D"/>
<rect x="569.552" y="222" width="3" height="6" transform="rotate(15 569.552 222)" fill="#565656"/>
<rect width="3" height="6" transform="matrix(-0.965926 0.258819 0.258819 0.965926 611.897 222)" fill="#565656"/>
<rect x="563" y="155" width="55" height="69" rx="10" fill="#FAD689"/>
<rect x="581" y="149" width="3" height="6" fill="#D9D9D9"/>
<rect x="596" y="149" width="3" height="6" fill="#D9D9D9"/>
<path d="M580 146C580 143.791 581.79 142 584 142H585V150H580V146Z" fill="#6E6448"/>
<path d="M595 142H596C598.209 142 600 143.791 600 146V150H595V142Z" fill="#6E6448"/>
<rect x="584" y="142" width="12" height="4" fill="#6E6448"/>
<path d="M563 213H569C571.761 213 574 215.239 574 218V224H573C567.477 224 563 219.523 563 214V213Z" fill="#808080"/>
<path d="M607 218C607 215.239 609.238 213 612 213H618V214C618 219.523 613.522 224 608 224H607V218Z" fill="#808080"/>
<circle cx="612" cy="230" r="5" fill="#808080"/>
<circle cx="612" cy="230" r="3" fill="#565656"/>
<path d="M573.5 155C574.5 155 596.5 155 608 155" stroke="#808080"/>
<path d="M578 166C578 167.333 578 196.667 578 212" stroke="#6E6448"/>
<path d="M591 166C591 167.333 591 196.667 591 212" stroke="#6E6448"/>
<path d="M604 166C604 167.333 604 196.667 604 212" stroke="#6E6448"/>
<circle cx="569" cy="230" r="5" fill="#808080"/>
<circle cx="569" cy="230" r="3" fill="#565656"/>
<path d="M39.4334 127C32.493 127 26.8667 132.626 26.8667 139.567H29.9C31.2 127 47.6667 127 48.9667 139.567H52C52 132.626 46.3737 127 39.4334 127Z" fill="#423535"/>
<rect y="139.133" width="78" height="51.1333" rx="5" fill="#735454"/>
<path d="M0 172.933V172.933C9.57293 172.933 17.3333 180.694 17.3333 190.267V190.267H5C2.23858 190.267 0 188.028 0 185.267V172.933Z" fill="#423535"/>
<path d="M60.6665 190.267C60.6665 180.694 68.4269 172.933 77.9998 172.933V172.933V185.267C77.9998 188.028 75.7613 190.267 72.9998 190.267H60.6665V190.267Z" fill="#423535"/>
<path d="M9.5332 139.267C9.5332 138.714 9.98092 138.267 10.5332 138.267H16.3332C16.8855 138.267 17.3332 138.714 17.3332 139.267V156.106H9.5332V139.267Z" fill="#423535"/>
<path d="M13.4332 160.8L17.3332 156.106H9.5332L13.4332 160.8Z" fill="#423535"/>
<path d="M60.6665 139.267C60.6665 138.714 61.1142 138.267 61.6665 138.267H67.4665C68.0188 138.267 68.4665 138.714 68.4665 139.267V156.106H60.6665V139.267Z" fill="#423535"/>
<path d="M64.5665 160.8L68.4665 156.106H60.6665L64.5665 160.8Z" fill="#423535"/>
<rect x="8.6665" y="151.267" width="9.53333" height="2.6" fill="#F0D089"/>
<rect x="59.7998" y="151.267" width="9.53333" height="2.6" fill="#F0D089"/>
<rect x="133" y="56" width="52" height="30" rx="4" fill="#5D5D5D"/>
<path d="M133 60C133 57.7909 134.791 56 137 56H181C183.209 56 185 57.7909 185 60V60H133V60Z" fill="#EBEBEB"/>
<path d="M133 82H185V82C185 84.2091 183.209 86 181 86H137C134.791 86 133 84.2091 133 82V82Z" fill="#EBEBEB"/>
<path d="M139 53C139 52.4477 139.448 52 140 52H146C146.552 52 147 52.4477 147 53V56H139V53Z" fill="#898989"/>
<path d="M151 56C151 53.7909 152.791 52 155 52H163C165.209 52 167 53.7909 167 56V56H151V56Z" fill="#EBEBEB"/>
<circle cx="159" cy="71" r="12" fill="#B9B9B9"/>
<circle cx="159" cy="71" r="9" fill="#898989"/>
<circle cx="159" cy="71" r="7" fill="#EBEBEB"/>
<circle cx="159" cy="71" r="5" fill="#898989"/>
<path d="M374.085 461.763C374.085 463.984 372.283 465.784 370.061 465.784C367.838 465.784 366.037 463.984 366.037 461.763C366.037 459.542 367.838 457.742 370.061 457.742C372.283 457.742 374.085 459.542 374.085 461.763Z" fill="#515151"/>
<path d="M372.576 461.763C372.576 463.2 371.45 464.365 370.061 464.365C368.672 464.365 367.546 463.2 367.546 461.763C367.546 460.326 368.672 459.161 370.061 459.161C371.45 459.161 372.576 460.326 372.576 461.763Z" fill="#5F5F5F"/>
<path d="M434.446 460.344C434.446 462.565 432.644 464.365 430.422 464.365C428.2 464.365 426.398 462.565 426.398 460.344C426.398 458.123 428.2 456.323 430.422 456.323C432.644 456.323 434.446 458.123 434.446 460.344Z" fill="#515151"/>
<path d="M432.937 460.344C432.937 461.781 431.811 462.946 430.422 462.946C429.033 462.946 427.907 461.781 427.907 460.344C427.907 458.907 429.033 457.742 430.422 457.742C431.811 457.742 432.937 458.907 432.937 460.344Z" fill="#5F5F5F"/>
<path d="M447.11 455.377C447.11 457.206 445.627 458.688 443.796 458.688C441.966 458.688 440.482 457.206 440.482 455.377C440.482 453.548 441.966 452.065 443.796 452.065C445.627 452.065 447.11 453.548 447.11 455.377Z" fill="#515151"/>
<path d="M445.868 455.377C445.868 456.56 444.94 457.519 443.796 457.519C442.652 457.519 441.725 456.56 441.725 455.377C441.725 454.193 442.652 453.234 443.796 453.234C444.94 453.234 445.868 454.193 445.868 455.377Z" fill="#5F5F5F"/>
<path d="M459.183 450.646C459.183 452.475 457.699 453.958 455.869 453.958C454.038 453.958 452.555 452.475 452.555 450.646C452.555 448.817 454.038 447.335 455.869 447.335C457.699 447.335 459.183 448.817 459.183 450.646Z" fill="#515151"/>
<path d="M457.94 450.646C457.94 451.829 457.012 452.789 455.869 452.789C454.725 452.789 453.797 451.829 453.797 450.646C453.797 449.463 454.725 448.503 455.869 448.503C457.012 448.503 457.94 449.463 457.94 450.646Z" fill="#5F5F5F"/>
<path d="M470.811 445.442C470.811 447.01 469.539 448.281 467.97 448.281C466.402 448.281 465.13 447.01 465.13 445.442C465.13 443.875 466.402 442.604 467.97 442.604C469.539 442.604 470.811 443.875 470.811 445.442Z" fill="#515151"/>
<path d="M469.746 445.442C469.746 446.457 468.951 447.279 467.971 447.279C466.99 447.279 466.195 446.457 466.195 445.442C466.195 444.428 466.99 443.606 467.971 443.606C468.951 443.606 469.746 444.428 469.746 445.442Z" fill="#5F5F5F"/>
<path d="M479.392 441.894C479.392 443.331 478.226 444.496 476.788 444.496C475.35 444.496 474.184 443.331 474.184 441.894C474.184 440.457 475.35 439.292 476.788 439.292C478.226 439.292 479.392 440.457 479.392 441.894Z" fill="#515151"/>
<path d="M478.415 441.894C478.415 442.824 477.687 443.578 476.788 443.578C475.889 443.578 475.161 442.824 475.161 441.894C475.161 440.964 475.889 440.211 476.788 440.211C477.687 440.211 478.415 440.964 478.415 441.894Z" fill="#5F5F5F"/>
<path d="M486.464 438.819C486.464 440.126 485.404 441.185 484.097 441.185C482.789 441.185 481.729 440.126 481.729 438.819C481.729 437.513 482.789 436.454 484.097 436.454C485.404 436.454 486.464 437.513 486.464 438.819Z" fill="#515151"/>
<path d="M485.576 438.819C485.576 439.665 484.914 440.35 484.097 440.35C483.28 440.35 482.617 439.665 482.617 438.819C482.617 437.974 483.28 437.289 484.097 437.289C484.914 437.289 485.576 437.974 485.576 438.819Z" fill="#5F5F5F"/>
<path d="M493.535 435.744C493.535 436.92 492.581 437.873 491.405 437.873C490.228 437.873 489.274 436.92 489.274 435.744C489.274 434.569 490.228 433.615 491.405 433.615C492.581 433.615 493.535 434.569 493.535 435.744Z" fill="#515151"/>
<path d="M492.736 435.744C492.736 436.505 492.14 437.122 491.405 437.122C490.669 437.122 490.073 436.505 490.073 435.744C490.073 434.984 490.669 434.367 491.405 434.367C492.14 434.367 492.736 434.984 492.736 435.744Z" fill="#5F5F5F"/>
<path d="M500.074 432.906C500.074 434.082 499.12 435.035 497.944 435.035C496.767 435.035 495.813 434.082 495.813 432.906C495.813 431.73 496.767 430.777 497.944 430.777C499.12 430.777 500.074 431.73 500.074 432.906Z" fill="#515151"/>
<path d="M499.275 432.906C499.275 433.667 498.679 434.283 497.944 434.283C497.208 434.283 496.612 433.667 496.612 432.906C496.612 432.145 497.208 431.528 497.944 431.528C498.679 431.528 499.275 432.145 499.275 432.906Z" fill="#5F5F5F"/>
<path d="M505.371 430.644C505.371 431.616 504.582 432.403 503.61 432.403C502.638 432.403 501.85 431.616 501.85 430.644C501.85 429.672 502.638 428.885 503.61 428.885C504.582 428.885 505.371 429.672 505.371 430.644Z" fill="#515151"/>
<path d="M504.71 430.644C504.71 431.273 504.218 431.782 503.61 431.782C503.002 431.782 502.51 431.273 502.51 430.644C502.51 430.015 503.002 429.506 503.61 429.506C504.218 429.506 504.71 430.015 504.71 430.644Z" fill="#5F5F5F"/>
<path d="M424.721 453.701L507.215 426.314C507.543 426.205 507.886 426.433 507.886 426.76V428.917C507.886 429.104 507.768 429.274 507.586 429.349L425.092 463.643C424.76 463.781 424.386 463.552 424.386 463.211V454.147C424.386 453.947 424.52 453.768 424.721 453.701Z" fill="#515151"/>
<path d="M507.886 409.666V424.051C507.886 424.275 507.719 424.468 507.485 424.514L424.991 440.638C424.679 440.699 424.386 440.475 424.386 440.175V399.599C423.296 398.101 421.016 395.058 420.613 394.868C420.214 394.681 403.28 391.063 394.662 389.235C394.528 389.207 394.417 389.129 394.346 389.018L393.345 387.449C393.158 387.156 393.354 386.79 393.717 386.784C398.48 386.704 415.811 388.629 424.386 389.665L507.505 409.207C507.729 409.26 507.886 409.449 507.886 409.666Z" fill="#E5E5E5"/>
<path d="M360 397.957H424.386V440.533H360V397.957Z" fill="#E5E5E5"/>
<path d="M424.386 397.957H360.252C359.665 394.409 364.93 387.218 390.684 386.84C416.438 386.461 423.883 394.093 424.386 397.957Z" fill="#E5E5E5"/>
<path d="M420.362 401.447H364.062C363.547 398.581 368.168 392.775 390.777 392.469C413.385 392.164 419.92 398.327 420.362 401.447Z" fill="#515151"/>
<path d="M424.386 454.002H360.032C359.649 456.248 362.753 459.851 371.346 462.3C375.985 463.622 386.261 463.784 395.321 463.914C397.476 463.944 399.381 463.945 401.08 463.914H424.386V454.002Z" fill="#515151"/>
<path d="M364.024 401.268H420.362V429.18H364.024V401.268Z" fill="#9DD3DB"/>
<path d="M364.024 429.18H420.362V436.276H364.024V429.18Z" fill="#515151"/>
<path d="M360 440.283H424.386V454.002H360V440.283Z" fill="#005CAF"/>
<path d="M507.886 424.199L424.386 440.283V454.002L507.886 426.801V424.199Z" fill="#005CAF"/>
<path d="M472.803 406.478L463.629 405.521C463.331 405.49 463.07 405.709 463.07 405.991V423.246C463.07 423.511 463.302 423.724 463.584 423.719L472.759 423.527C473.032 423.521 473.251 423.311 473.251 423.054V406.948C473.251 406.707 473.058 406.505 472.803 406.478Z" fill="#9DD3DB"/>
<path d="M459.888 405.192L446.862 403.417C446.558 403.376 446.287 403.597 446.287 403.885V423.665C446.287 423.933 446.522 424.147 446.806 424.138L459.833 423.744C460.104 423.736 460.319 423.526 460.319 423.271V405.66C460.319 405.425 460.136 405.225 459.888 405.192Z" fill="#9DD3DB"/>
<path d="M431.428 420.843V404.333C431.428 404.054 431.684 403.835 431.98 403.862L442.543 404.825C442.801 404.848 442.997 405.052 442.997 405.296V420.843C442.997 421.104 442.772 421.316 442.494 421.316H431.931C431.653 421.316 431.428 421.104 431.428 420.843Z" fill="#9DD3DB"/>
<path d="M481.852 423.03L476.254 423.281C475.968 423.294 475.728 423.078 475.728 422.808V407.491C475.728 407.205 475.996 406.984 476.298 407.022L481.895 407.733C482.145 407.765 482.331 407.965 482.331 408.202V422.558C482.331 422.81 482.12 423.018 481.852 423.03Z" fill="#9DD3DB"/>
<path d="M489.285 422.431L485.339 422.639C485.05 422.654 484.808 422.439 484.808 422.167V408.778C484.808 408.487 485.084 408.265 485.39 408.311L489.336 408.901C489.581 408.938 489.76 409.136 489.76 409.369V421.959C489.76 422.21 489.552 422.417 489.285 422.431Z" fill="#9DD3DB"/>
<path d="M495.342 422.04L492.496 422.21C492.207 422.228 491.961 422.011 491.961 421.738V410.065C491.961 409.77 492.245 409.547 492.554 409.599L495.4 410.082C495.639 410.123 495.814 410.319 495.814 410.547V421.568C495.814 421.818 495.607 422.024 495.342 422.04Z" fill="#9DD3DB"/>
<path d="M364.024 444.969C364.024 444.708 364.25 444.496 364.527 444.496H376.6C376.878 444.496 377.103 444.708 377.103 444.969V449.7C377.103 449.961 376.878 450.173 376.6 450.173H364.527C364.25 450.173 364.024 449.961 364.024 449.7V444.969Z" fill="#D9D9D9"/>
<path d="M407.284 444.969C407.284 444.708 407.509 444.496 407.787 444.496H419.859C420.137 444.496 420.362 444.708 420.362 444.969V449.7C420.362 449.961 420.137 450.173 419.859 450.173H407.787C407.509 450.173 407.284 449.961 407.284 449.7V444.969Z" fill="#D9D9D9"/>
</svg>
