<svg width="1280" height="368" viewBox="0 0 1280 368" fill="none" xmlns="http://www.w3.org/2000/svg">
<g clip-path="url(#clip0_738_100)">
<path d="M689 354.391C564.281 143.53 167.034 119.918 -16 134.47L-28 484L689 354.391Z" fill="#ABD784"/>
<path d="M289.5 368.5C469.414 76.8511 1042.96 4.47399 1307 24.601L1291 398L289.5 368.5Z" fill="#8FC385"/>
<path d="M1219.75 41L1218.59 40.004C1216.99 38.663 1203 26.584 1203 17.749C1203 8.49899 1210.5 1 1219.75 1C1229 1 1236.5 8.49899 1236.5 17.749C1236.5 26.584 1222.51 38.663 1220.92 40.011L1219.75 41Z" fill="#F02323"/>
<path d="M1219.75 24.3884C1216.08 24.3884 1213.11 21.4154 1213.11 17.7494C1213.11 14.0824 1216.08 11.1094 1219.75 11.1094C1223.42 11.1094 1226.39 14.0824 1226.39 17.7494C1226.39 21.4154 1223.42 24.3884 1219.75 24.3884Z" fill="white"/>
<path d="M1055.75 264L1054.59 263.004C1052.99 261.663 1039 249.584 1039 240.749C1039 231.499 1046.5 224 1055.75 224C1065 224 1072.5 231.499 1072.5 240.749C1072.5 249.584 1058.51 261.663 1056.92 263.011L1055.75 264Z" fill="#F02323"/>
<path d="M1055.75 247.388C1052.08 247.388 1049.11 244.415 1049.11 240.749C1049.11 237.082 1052.08 234.109 1055.75 234.109C1059.42 234.109 1062.39 237.082 1062.39 240.749C1062.39 244.415 1059.42 247.388 1055.75 247.388Z" fill="white"/>
<path d="M271.749 162L270.587 161.004C268.986 159.663 255 147.584 255 138.749C255 129.499 262.499 122 271.749 122C281 122 288.498 129.499 288.498 138.749C288.498 147.584 274.513 159.663 272.918 161.011L271.749 162Z" fill="#F02323"/>
<path d="M271.749 145.388C268.082 145.388 265.11 142.415 265.11 138.749C265.11 135.082 268.082 132.109 271.749 132.109C275.416 132.109 278.388 135.082 278.388 138.749C278.388 142.415 275.416 145.388 271.749 145.388Z" fill="white"/>
<path d="M73.7492 140L72.5874 139.004C70.9857 137.663 57 125.584 57 116.749C57 107.499 64.4989 100 73.7492 100C82.9996 100 90.4985 107.499 90.4985 116.749C90.4985 125.584 76.5128 137.663 74.9177 139.011L73.7492 140Z" fill="#F02323"/>
<path d="M73.7492 123.388C70.0825 123.388 67.11 120.415 67.11 116.749C67.11 113.082 70.0825 110.109 73.7492 110.109C77.416 110.109 80.3885 113.082 80.3885 116.749C80.3885 120.415 77.4161 123.388 73.7492 123.388Z" fill="white"/>
</g>
<defs>
<clipPath id="clip0_738_100">
<rect width="1280" height="368" fill="white"/>
</clipPath>
</defs>
</svg>
