<svg width="1280" height="667" viewBox="0 0 1280 667" fill="none" xmlns="http://www.w3.org/2000/svg">
<rect x="11" width="1256" height="613" rx="17" fill="#DBEFFF"/>
<path d="M17.0229 667L689 548.391C608.231 411.835 499.5 419 298 350C173 322.173 48.4991 323.342 -16 328.47L17.0229 667Z" fill="#88D2A8"/>
<path d="M1291 592L295 548.3C333 500 308 519.5 388.5 447C472 386.5 538.294 356.551 646 330C742.997 306.089 832.5 261.393 996.5 233C1181.5 189 1239.51 213.456 1307 218.601L1291 592Z" fill="#A5E1BA"/>
<path d="M1219.75 235L1218.59 234.004C1216.99 232.663 1203 220.584 1203 211.749C1203 202.499 1210.5 195 1219.75 195C1229 195 1236.5 202.499 1236.5 211.749C1236.5 220.584 1222.51 232.663 1220.92 234.011L1219.75 235Z" fill="#F02323"/>
<path d="M1219.75 218.388C1216.08 218.388 1213.11 215.415 1213.11 211.749C1213.11 208.082 1216.08 205.109 1219.75 205.109C1223.42 205.109 1226.39 208.082 1226.39 211.749C1226.39 215.415 1223.42 218.388 1219.75 218.388Z" fill="white"/>
<path d="M1055.75 458L1054.59 457.004C1052.99 455.663 1039 443.584 1039 434.749C1039 425.499 1046.5 418 1055.75 418C1065 418 1072.5 425.499 1072.5 434.749C1072.5 443.584 1058.51 455.663 1056.92 457.011L1055.75 458Z" fill="#F02323"/>
<path d="M1055.75 441.388C1052.08 441.388 1049.11 438.415 1049.11 434.749C1049.11 431.082 1052.08 428.109 1055.75 428.109C1059.42 428.109 1062.39 431.082 1062.39 434.749C1062.39 438.415 1059.42 441.388 1055.75 441.388Z" fill="white"/>
<path d="M271.749 356L270.587 355.004C268.986 353.663 255 341.584 255 332.749C255 323.499 262.499 316 271.749 316C281 316 288.498 323.499 288.498 332.749C288.498 341.584 274.513 353.663 272.918 355.011L271.749 356Z" fill="#F02323"/>
<path d="M271.749 339.388C268.082 339.388 265.11 336.415 265.11 332.749C265.11 329.082 268.082 326.109 271.749 326.109C275.416 326.109 278.388 329.082 278.388 332.749C278.388 336.415 275.416 339.388 271.749 339.388Z" fill="white"/>
<path d="M73.7492 334L72.5874 333.004C70.9857 331.663 57 319.584 57 310.749C57 301.499 64.4989 294 73.7492 294C82.9996 294 90.4985 301.499 90.4985 310.749C90.4985 319.584 76.5128 331.663 74.9177 333.011L73.7492 334Z" fill="#F02323"/>
<path d="M73.7491 317.388C70.0824 317.388 67.1099 314.415 67.1099 310.749C67.1099 307.082 70.0824 304.109 73.7491 304.109C77.4159 304.109 80.3884 307.082 80.3884 310.749C80.3884 314.415 77.416 317.388 73.7491 317.388Z" fill="white"/>
</svg>
