<svg width="1280" height="413" viewBox="0 0 1280 413" fill="none" xmlns="http://www.w3.org/2000/svg">
<path d="M1279 284C825.582 149.333 452.5 149.334 -1 284H1279Z" fill="#F3F3F3"/>
<rect x="-1" y="283" width="1280" height="130" fill="#F3F3F3"/>
<path d="M1246 250L1246 275" stroke="#096148"/>
<circle cx="1243.5" cy="231.5" r="8.5" fill="#005CAF"/>
<circle cx="1251.5" cy="248.5" r="8.5" fill="#005CAF"/>
<circle cx="1239.5" cy="250.5" r="8.5" fill="#005CAF"/>
<ellipse cx="8.89555" cy="4.44583" rx="8.89555" ry="4.44583" transform="matrix(0.806226 0.591608 -0.482921 0.875664 1235.29 263.689)" fill="#00896C"/>
<ellipse cx="9.34231" cy="3.1681" rx="9.34231" ry="3.1681" transform="matrix(-0.553998 0.832518 -0.748695 -0.662915 1258.1 265.582)" fill="#00896C"/>
<circle cx="1234.5" cy="241.5" r="8.5" fill="#005CAF"/>
<circle cx="1254.5" cy="239.5" r="8.5" fill="#005CAF"/>
<circle cx="1244.5" cy="242.5" r="5.5" fill="white"/>
<path d="M1101 228L1101 244" stroke="#096148"/>
<path d="M1183.18 182.957H1207.47V265C1207.47 270.523 1202.99 275 1197.47 275H1193.18C1187.66 275 1183.18 270.523 1183.18 265V182.957Z" fill="#EDDFC3"/>
<ellipse cx="1184.31" cy="55.0565" rx="50.2567" ry="55.0565" fill="#096148"/>
<ellipse cx="1219.89" cy="73.1263" rx="50.2567" ry="55.0565" fill="#096148"/>
<ellipse cx="1220.17" cy="143.147" rx="45.4569" ry="55.0565" fill="#096148"/>
<ellipse cx="1153.54" cy="165.169" rx="45.4569" ry="55.0565" fill="#096148"/>
<ellipse cx="1153.26" cy="94.8665" rx="50.2567" ry="52.5154" fill="#096148"/>
<path d="M1266 196H1279V277.5C1279 281.09 1276.09 284 1272.5 284C1268.91 284 1266 281.09 1266 277.5V196Z" fill="#EDDFC3"/>
<ellipse cx="1268.35" cy="127.031" rx="27.4127" ry="30.0308" fill="#00896C"/>
<ellipse cx="1287.76" cy="136.887" rx="27.4127" ry="30.0308" fill="#00896C"/>
<ellipse cx="1287.91" cy="175.08" rx="24.7947" ry="30.0308" fill="#00896C"/>
<ellipse cx="1251.57" cy="187.092" rx="24.7947" ry="30.0308" fill="#00896C"/>
<ellipse cx="1251.41" cy="148.745" rx="27.4127" ry="28.6448" fill="#00896C"/>
<circle cx="1099.27" cy="215.475" r="5.47458" fill="#FAD689"/>
<circle cx="1104.42" cy="226.424" r="5.47458" fill="#FAD689"/>
<circle cx="1096.7" cy="227.712" r="5.47458" fill="#FAD689"/>
<ellipse cx="5.72935" cy="2.86342" rx="5.72935" ry="2.86342" transform="matrix(0.806226 0.591608 -0.482921 0.875664 1093.99 236.206)" fill="#00896C"/>
<ellipse cx="6.01709" cy="2.04047" rx="6.01709" ry="2.04047" transform="matrix(-0.553998 0.832518 -0.748695 -0.662915 1108.67 237.426)" fill="#00896C"/>
<circle cx="1093.47" cy="221.915" r="5.47458" fill="#FAD689"/>
<circle cx="1106.36" cy="220.627" r="5.47458" fill="#FAD689"/>
<circle cx="1099.92" cy="222.559" r="3.54238" fill="white"/>
<path d="M39.1848 228.957H63.4661V311C63.4661 316.523 58.989 321 53.4661 321H49.1848C43.662 321 39.1848 316.523 39.1848 311V228.957Z" fill="#EDDFC3"/>
<ellipse cx="40.3143" cy="101.056" rx="50.2567" ry="55.0565" fill="#096148"/>
<ellipse cx="75.889" cy="119.126" rx="50.2567" ry="55.0565" fill="#096148"/>
<ellipse cx="76.1715" cy="189.147" rx="45.4569" ry="55.0565" fill="#096148"/>
<ellipse cx="9.53891" cy="211.169" rx="45.4569" ry="55.0565" fill="#096148"/>
<ellipse cx="9.25667" cy="140.867" rx="50.2567" ry="52.5154" fill="#096148"/>
<path d="M123.737 245.795H136.981V289.378C136.981 293.035 134.017 296 130.359 296V296C126.702 296 123.737 293.035 123.737 289.378V245.795Z" fill="#EDDFC3"/>
<ellipse cx="124.353" cy="176.031" rx="27.4127" ry="30.0308" fill="#00896C"/>
<ellipse cx="143.758" cy="185.887" rx="27.4127" ry="30.0308" fill="#00896C"/>
<ellipse cx="143.912" cy="224.08" rx="24.7947" ry="30.0308" fill="#00896C"/>
<ellipse cx="107.567" cy="236.092" rx="24.7947" ry="30.0308" fill="#00896C"/>
<ellipse cx="107.413" cy="197.745" rx="27.4127" ry="28.6448" fill="#00896C"/>
<path d="M11 302L11 318" stroke="#096148"/>
<circle cx="9.27121" cy="289.475" r="5.47458" fill="#FAD689"/>
<circle cx="14.4238" cy="300.424" r="5.47458" fill="#FAD689"/>
<circle cx="6.69504" cy="301.712" r="5.47458" fill="#FAD689"/>
<ellipse cx="5.72935" cy="2.86342" rx="5.72935" ry="2.86342" transform="matrix(0.806226 0.591608 -0.482921 0.875664 3.98584 310.206)" fill="#00896C"/>
<ellipse cx="6.01709" cy="2.04047" rx="6.01709" ry="2.04047" transform="matrix(-0.553998 0.832518 -0.748695 -0.662915 18.6716 311.426)" fill="#00896C"/>
<circle cx="3.47458" cy="295.915" r="5.47458" fill="#FAD689"/>
<circle cx="16.3559" cy="294.627" r="5.47458" fill="#FAD689"/>
<circle cx="9.91518" cy="296.559" r="3.54238" fill="white"/>
</svg>
