<svg width="172" height="277" viewBox="0 0 172 277" fill="none" xmlns="http://www.w3.org/2000/svg">
<path d="M39.1846 183.957H63.4659V266C63.4659 271.523 58.9888 276 53.4659 276H49.1846C43.6618 276 39.1846 271.523 39.1846 266V183.957Z" fill="#EDDFC3"/>
<path d="M40.3143 111.112C68.0703 111.112 90.571 86.4624 90.571 56.0555C90.571 25.6487 68.0703 0.999023 40.3143 0.999023C12.5583 0.999023 -9.94238 25.6487 -9.94238 56.0555C-9.94238 86.4624 12.5583 111.112 40.3143 111.112Z" fill="#096148"/>
<path d="M75.889 129.182C103.645 129.182 126.146 104.533 126.146 74.1258C126.146 43.719 103.645 19.0693 75.889 19.0693C48.133 19.0693 25.6323 43.719 25.6323 74.1258C25.6323 104.533 48.133 129.182 75.889 129.182Z" fill="#096148"/>
<path d="M76.1717 199.204C101.277 199.204 121.629 174.554 121.629 144.147C121.629 113.74 101.277 89.0908 76.1717 89.0908C51.0666 89.0908 30.7148 113.74 30.7148 144.147C30.7148 174.554 51.0666 199.204 76.1717 199.204Z" fill="#096148"/>
<path d="M9.53893 221.225C34.6441 221.225 54.9958 196.576 54.9958 166.169C54.9958 135.762 34.6441 111.112 9.53893 111.112C-15.5662 111.112 -35.918 135.762 -35.918 166.169C-35.918 196.576 -15.5662 221.225 9.53893 221.225Z" fill="#096148"/>
<path d="M9.2567 149.031C37.0127 149.031 59.5134 125.519 59.5134 96.5154C59.5134 67.5119 37.0127 44 9.2567 44C-18.4993 44 -41 67.5119 -41 96.5154C-41 125.519 -18.4993 149.031 9.2567 149.031Z" fill="#096148"/>
<path d="M123.737 200.795H136.981V244.378C136.981 248.035 134.017 251 130.359 251C126.702 251 123.737 248.035 123.737 244.378V200.795Z" fill="#EDDFC3"/>
<path d="M124.353 161.062C139.493 161.062 151.766 147.616 151.766 131.031C151.766 114.445 139.493 101 124.353 101C109.213 101 96.9402 114.445 96.9402 131.031C96.9402 147.616 109.213 161.062 124.353 161.062Z" fill="#00896C"/>
<path d="M143.758 170.918C158.898 170.918 171.171 157.473 171.171 140.887C171.171 124.302 158.898 110.856 143.758 110.856C128.618 110.856 116.345 124.302 116.345 140.887C116.345 157.473 128.618 170.918 143.758 170.918Z" fill="#00896C"/>
<path d="M143.912 209.11C157.606 209.11 168.707 195.665 168.707 179.08C168.707 162.494 157.606 149.049 143.912 149.049C130.218 149.049 119.117 162.494 119.117 179.08C119.117 195.665 130.218 209.11 143.912 209.11Z" fill="#00896C"/>
<path d="M107.567 221.123C121.261 221.123 132.362 207.678 132.362 191.092C132.362 174.507 121.261 161.062 107.567 161.062C93.8732 161.062 82.7722 174.507 82.7722 191.092C82.7722 207.678 93.8732 221.123 107.567 221.123Z" fill="#00896C"/>
<path d="M107.413 181.39C122.553 181.39 134.826 168.565 134.826 152.745C134.826 136.925 122.553 124.101 107.413 124.101C92.2733 124.101 80.0002 136.925 80.0002 152.745C80.0002 168.565 92.2733 181.39 107.413 181.39Z" fill="#00896C"/>
<path d="M11.5 257V273H10.5V257H11.5Z" fill="#096148"/>
<path d="M9.27097 249.949C12.2945 249.949 14.7455 247.498 14.7455 244.475C14.7455 241.451 12.2945 239 9.27097 239C6.24744 239 3.79639 241.451 3.79639 244.475C3.79639 247.498 6.24744 249.949 9.27097 249.949Z" fill="#FAD689"/>
<path d="M14.4238 260.898C17.4473 260.898 19.8984 258.447 19.8984 255.424C19.8984 252.4 17.4473 249.949 14.4238 249.949C11.4003 249.949 8.94922 252.4 8.94922 255.424C8.94922 258.447 11.4003 260.898 14.4238 260.898Z" fill="#FAD689"/>
<path d="M6.69528 262.186C9.71881 262.186 12.1699 259.735 12.1699 256.712C12.1699 253.688 9.71881 251.237 6.69528 251.237C3.67176 251.237 1.2207 253.688 1.2207 256.712C1.2207 259.735 3.67176 262.186 6.69528 262.186Z" fill="#FAD689"/>
<path d="M5.83938 273.61C8.39047 275.482 11.0776 275.877 11.8413 274.493C12.605 273.108 11.1561 270.468 8.60499 268.596C6.0539 266.724 3.36674 266.329 2.60303 267.713C1.83933 269.098 3.28829 271.738 5.83938 273.61Z" fill="#00896C"/>
<path d="M12.2826 268.73C10.4415 271.496 9.63307 274.345 10.4768 275.092C11.3205 275.839 13.4969 274.202 15.3379 271.435C17.1789 268.669 17.9874 265.82 17.1437 265.073C16.3 264.326 14.1236 265.963 12.2826 268.73Z" fill="#00896C"/>
<path d="M3.47458 256.39C6.49811 256.39 8.94916 253.939 8.94916 250.915C8.94916 247.891 6.49811 245.44 3.47458 245.44C0.451053 245.44 -2 247.891 -2 250.915C-2 253.939 0.451053 256.39 3.47458 256.39Z" fill="#FAD689"/>
<path d="M16.3559 255.102C19.3795 255.102 21.8305 252.65 21.8305 249.627C21.8305 246.603 19.3795 244.152 16.3559 244.152C13.3324 244.152 10.8813 246.603 10.8813 249.627C10.8813 252.65 13.3324 255.102 16.3559 255.102Z" fill="#FAD689"/>
<path d="M9.91494 255.101C11.8713 255.101 13.4573 253.515 13.4573 251.559C13.4573 249.603 11.8713 248.017 9.91494 248.017C7.95854 248.017 6.37256 249.603 6.37256 251.559C6.37256 253.515 7.95854 255.101 9.91494 255.101Z" fill="white"/>
</svg>
