<svg width="148" height="102" viewBox="0 0 148 102" fill="none" xmlns="http://www.w3.org/2000/svg">
<path d="M93.5766 29.7837L81.5985 39.5325C81.3369 39.7454 80.9694 39.7792 80.6819 39.6169L60.5205 28.2314C59.8898 27.8752 60.0835 26.9395 60.8146 26.8104L77.0143 23.9522C81.0946 22.7433 89.1604 26.2387 93.4864 28.5505C93.9593 28.8033 94.0009 29.4384 93.5766 29.7837Z" fill="white"/>
<path d="M143.273 47.5205C144.015 47.8476 144.208 48.8106 143.651 49.3988L122.75 71.4512C122.687 71.5179 122.62 71.5745 122.542 71.6233C118.358 74.2417 104.511 77.3295 81.5223 69.2209C62.2231 62.4136 41.7957 54.4371 29.9956 49.6956C28.7959 49.3059 27.5901 48.8477 26.3898 48.3181C25.9254 48.1133 25.4697 47.8998 25.0219 47.6808C24.6747 47.5389 24.343 47.404 24.0283 47.2747C23.9994 47.2629 23.9816 47.2337 23.9842 47.2027C23.9865 47.1741 23.9713 47.1467 23.946 47.1333C14.2862 42.0175 8.9514 33.7227 11.8792 27.8107C14.0739 23.3793 20.3343 21.4503 27.6929 22.3259C27.8708 22.347 28.0484 22.3303 28.2184 22.2734C35.1176 19.9641 48.0832 17.6519 58.8681 22.4658C70.8685 27.5487 97.9122 39.9368 111.086 49.2297C111.372 49.4317 111.725 49.493 112.064 49.4029L133.793 43.6196C134.051 43.5511 134.324 43.5724 134.568 43.6799L143.273 47.5205Z" fill="white"/>
<path d="M49.0231 31.212C40.7374 26.8484 37.043 22.9126 35.9108 20.9457C35.7089 20.595 35.3029 20.3839 34.9116 20.4872L28.6361 22.1443C28.2644 22.2424 28.0134 22.5968 28.1095 22.969C29.2928 27.552 37.7564 32.9715 42.3221 35.358C42.5336 35.4686 42.7814 35.4724 42.9986 35.3734L48.9941 32.6386C49.5916 32.3661 49.6041 31.5179 49.0231 31.212Z" fill="#C1D9EB"/>
<path d="M34.862 20.2983C35.3537 20.1685 35.8429 20.4357 36.0804 20.8483C37.1865 22.7697 40.8442 26.6838 49.1144 31.0391C49.8336 31.4179 49.8257 32.4741 49.0752 32.8164L43.0798 35.5512C42.8095 35.6745 42.4983 35.6705 42.2319 35.5313C39.9413 34.3339 36.6731 32.3761 33.8268 30.1409C32.4037 29.0232 31.0819 27.833 30.0398 26.6306C28.9997 25.4305 28.2274 24.2053 27.9207 23.0177C27.7931 22.5232 28.1301 22.0758 28.5863 21.9553L34.862 20.2983ZM35.7417 21.0433C35.5755 20.7546 35.2525 20.5992 34.9617 20.6759L28.686 22.333C28.3989 22.4088 28.2345 22.6703 28.299 22.9202C28.584 24.024 29.3129 25.1951 30.3352 26.3747C31.3555 27.552 32.6571 28.7251 34.0684 29.8335C36.8912 32.0503 40.1376 33.9959 42.4127 35.1851C42.5693 35.2669 42.7538 35.2704 42.9177 35.1956L48.9131 32.4608C49.3575 32.2581 49.375 31.6182 48.9324 31.3849C40.6315 27.0134 36.9003 23.0558 35.7417 21.0433Z" fill="#C1D9EB"/>
<path d="M52.6161 34.0484L47.5101 36.8084C46.9724 37.0991 46.9617 37.8668 47.4911 38.1723L53.1646 41.4463C53.4134 41.5899 53.721 41.5853 53.9654 41.4344L58.825 38.4349C59.3321 38.1219 59.3161 37.3791 58.7959 37.0883L53.3689 34.0537C53.1354 33.9232 52.8514 33.9212 52.6161 34.0484Z" fill="#C1D9EB"/>
<path d="M52.5235 33.8768C52.8176 33.7178 53.1725 33.7201 53.4643 33.8832L58.8913 36.9179C59.5415 37.2815 59.5617 38.21 58.9277 38.6013L54.0682 41.6008C53.7627 41.7893 53.3783 41.7948 53.0674 41.6154L47.3939 38.3415C46.7321 37.9597 46.7452 37 47.4173 36.6366L52.5235 33.8768ZM53.2737 34.2244C53.0986 34.1265 52.8858 34.1249 52.7094 34.2202L47.603 36.9804C47.1999 37.1984 47.1919 37.774 47.5889 38.0031L53.2624 41.277C53.449 41.3846 53.6799 41.3816 53.8632 41.2684L58.7227 38.269C59.1031 38.0342 59.0909 37.4768 58.7008 37.2587L53.2737 34.2244Z" fill="#C1D9EB"/>
<path d="M62.5673 39.7978L57.5732 42.7556C57.0473 43.067 57.0666 43.8346 57.6076 44.1191L63.4048 47.1686C63.6591 47.3024 63.9662 47.2858 64.2046 47.1255L68.9431 43.9382C69.4376 43.6055 69.3925 42.864 68.8613 42.5937L63.3197 39.7738C63.0813 39.6525 62.7975 39.6616 62.5673 39.7978Z" fill="#C1D9EB"/>
<path d="M62.4676 39.6299C62.7552 39.4596 63.1099 39.448 63.4079 39.5996L68.9495 42.4196C69.6134 42.7574 69.6699 43.6845 69.0517 44.1003L64.3133 47.2875C64.0153 47.4879 63.6315 47.5084 63.3138 47.3413L57.5165 44.2919C56.8404 43.9363 56.8159 42.9768 57.4732 42.5874L62.4676 39.6299ZM63.2308 39.9479C63.052 39.857 62.8393 39.8636 62.6668 39.9658L57.6723 42.9236C57.278 43.1573 57.2926 43.7327 57.6982 43.9462L63.4954 46.9955C63.6861 47.0958 63.9167 47.0838 64.0954 46.9635L68.8339 43.7762C69.2048 43.5268 69.1708 42.9703 68.7724 42.7676L63.2308 39.9479Z" fill="#C1D9EB"/>
<path d="M117.022 71.8302C102.534 73.5641 64.2686 56.6882 46.2661 47.6866C46.0552 47.5812 45.8263 47.5459 45.5927 47.5774L39.5831 48.3884C38.5094 48.5333 38.2071 49.8973 39.1414 50.446C45.4318 54.1399 58.7042 60.9915 77.5361 68.1801C98.0198 75.9992 112.166 75.8791 117.811 74.6546C118.473 74.5112 118.804 73.8064 118.558 73.1763L118.33 72.5923C118.124 72.0653 117.584 71.7629 117.022 71.8302Z" fill="#005CAF"/>
<path d="M87.8043 87.9729L78.319 66.2629C77.7291 64.9127 76.6169 63.849 75.2137 63.2928L51.1286 53.7462C50.4028 53.4585 49.6983 54.2558 50.1105 54.8986C59.8234 73.2085 65.0809 80.0589 73.7288 83.8741C78.8573 86.1366 84.3979 88.4063 86.9515 89.1522C87.8979 89.4287 88.188 88.8512 87.8043 87.9729Z" fill="white"/>
<path d="M122.883 66.1276L111.126 64.2004C109.821 63.9866 108.92 65.4692 109.71 66.5287L117.028 76.3414C117.225 76.6066 117.507 76.7973 117.826 76.8826L130.656 80.309C132 80.668 133.044 79.1316 132.215 78.0142L123.826 66.7023C123.598 66.3955 123.26 66.1893 122.883 66.1276Z" fill="white"/>
</svg>
